<?xml version="1.0" encoding="utf-8"?>
<!-- Generator: Adobe Illustrator 23.1.0, SVG Export Plug-In . SVG Version: 6.00 Build 0)  -->
<svg version="1.1" xmlns="http://www.w3.org/2000/svg" xmlns:xlink="http://www.w3.org/1999/xlink" x="0px" y="0px"
	 viewBox="0 0 350 350" style="enable-background:new 0 0 350 350;" xml:space="preserve">
<style type="text/css">
	.st0{fill:none;}
	.st1{display:none;fill:#040404;}
	.st2{fill:#040404;}
	.st3{fill:#245684;}
	.st4{fill:#131423;}
	.st5{fill:#8793BE;}
	.st6{fill:#3B6FAD;stroke:url(#SVGID_1_);stroke-miterlimit:10;}
	.st7{fill:url(#SVGID_2_);stroke:url(#SVGID_3_);stroke-miterlimit:10;}
	.st8{fill:#72C59D;}
	.st9{fill:#65B78F;}
	.st10{fill:#FFFFFF;stroke:#3E58A7;stroke-width:3;stroke-miterlimit:10;}
	.st11{fill:none;stroke:#3E58A7;stroke-miterlimit:10;}
	.st12{fill:#EAE7D0;stroke:#3E58A7;stroke-width:2;stroke-miterlimit:10;}
	.st13{fill:#CEB646;stroke:#3E58A7;stroke-width:2;stroke-miterlimit:10;}
	.st14{fill:#CEB646;stroke:#3E58A7;stroke-miterlimit:10;}
	.st15{fill:#FFFFFF;stroke:#3E58A7;stroke-width:2;stroke-miterlimit:10;}
	.st16{fill:#FFFFFF;}
	.st17{fill:none;stroke:#3E58A7;stroke-width:6;stroke-miterlimit:10;}
	.st18{fill:#FFFFFF;stroke:#3E58A7;stroke-miterlimit:10;}
	.st19{fill:#EAE7D0;stroke:#3E58A7;stroke-miterlimit:10;}
	.st20{fill:#CEB646;stroke:#3E58A7;stroke-width:3;stroke-miterlimit:10;}
	.st21{fill:#EAE7D0;stroke:#3E58A7;stroke-width:1.8;stroke-miterlimit:10;}
	.st22{fill:none;stroke:#3E58A7;stroke-width:0.8;stroke-miterlimit:10;}
	.st23{fill:#3E58A7;}
	.st24{fill:#FFFFFF;stroke:#3E58A7;stroke-width:4;stroke-miterlimit:10;}
	.st25{fill:none;stroke:#FFFFFF;stroke-width:10;stroke-miterlimit:10;}
</style>
<pattern  width="20" height="20" patternUnits="userSpaceOnUse" id="New_Pattern_Swatch_6" viewBox="0 -20 20 20" style="overflow:visible;">
	<g>
		<rect y="-20" class="st0" width="20" height="20"/>
		<rect y="-20" class="st1" width="20" height="20"/>
		<path class="st2" d="M16.8-10H3.3 M10-3.3v-13.5"/>
	</g>
</pattern>
<pattern  width="31" height="31" patternUnits="userSpaceOnUse" id="New_Pattern_Swatch_8" viewBox="0 -32 31 31" style="overflow:visible;">
	<g>
		<rect y="-32" class="st0" width="31" height="31"/>
		<path class="st3" d="M3-29"/>
		<path class="st3" d="M0-29c0,4,6,4,6,0S0-33,0-29z M25-29c0,4,6,4,6,0S25-33,25-29z M0-4c0,4,6,4,6,0S0-8,0-4z M25-4c0,4,6,4,6,0
			S25-8,25-4z"/>
		<path class="st3" d="M11.5-16.5l4,4l4-4l-4-4L11.5-16.5z"/>
	</g>
</pattern>
<g id="BG_01">
	<circle class="st4" cx="175.3" cy="174.8" r="152.4"/>
</g>
<g id="bg_04">
	<circle class="st5" cx="175" cy="175.9" r="152.4"/>
</g>
<g id="bg_03">
	<pattern  id="SVGID_1_" xlink:href="#New_Pattern_Swatch_6" patternTransform="matrix(1 0 0 1 16.4176 -8.7714)">
	</pattern>
	<circle class="st6" cx="178.3" cy="177.7" r="151.5"/>
	<pattern  id="SVGID_2_" xlink:href="#New_Pattern_Swatch_8" patternTransform="matrix(1 0 0 1 -34.5824 -26.6219)">
	</pattern>
	<pattern  id="SVGID_3_" xlink:href="#New_Pattern_Swatch_6" patternTransform="matrix(1 0 0 1 -3.5824 -7.6219)">
	</pattern>
	<circle class="st7" cx="178.3" cy="178.9" r="151.5"/>
</g>
<g id="bg_02">
	<circle class="st8" cx="172.4" cy="174.8" r="151.5"/>
	<circle class="st9" cx="175.7" cy="175.8" r="111.7"/>
</g>
<g id="Layer_28">
</g>
<g id="chest_1">
	<path class="st10" d="M259.5,265.1v36.7c0,3.8-38.3,17.4-52.6,23.4l-64.9-0.6c-30.2-14-45.3-18.5-45.3-22.3v-37.1
		c0-1.1,0.2-2.1,0.7-3c1.1-2.3,3.5-3.9,6.2-3.9h149c2.8,0,5.2,1.7,6.3,4.1C259.3,263.1,259.5,264.1,259.5,265.1z"/>
	<path class="st10" d="M96.7,263.3c-0.4,0.9,0,1.8,0,2.8v34.6h-4c-1.6,0-3-1.2-3-2.8v-31.9c0-1.5,1.3-2.8,3-2.8H96.7z"/>
	<path class="st10" d="M85.2,269.1h4.5v27.7h-4.5c-3,0-5.4-2.3-5.4-5.1v-17.5C79.9,271.4,82.3,269.1,85.2,269.1z"/>
	<path class="st10" d="M269.1,265.9v28.9c0,1.4-1.3,2.5-3,2.5h-6.6v-31.5c0-0.9,0.4-1.7,0-2.5h6.6
		C267.8,263.4,269.1,264.5,269.1,265.9z"/>
	<path class="st10" d="M279,273.3v13.8c0,2.2-2.4,4-5.4,4h-4.5v-21.9h4.5C276.6,269.2,279,271,279,273.3z"/>
	<path class="st10" d="M236.9,312.2c-11.1,4.5-23.5,9.1-30.5,12l-64.9-0.6c-8.8-4.1-16.3-7.3-22.5-10c2.3-9.8,7.4-18.6,15.2-26
		c7.8-7.3,16.8-12.6,27.8-15.2c3.3-0.8,6.7-0.9,9.9-2.1h0.3c4.7,0.3,9.3-0.2,14.1,0.5c8.1,1.1,15.6,3.5,22.7,7.2
		C222.8,285.3,233,297.8,236.9,312.2z"/>
</g>
<g id="chest_2">
	<path class="st10" d="M259.5,264.1v36.7c0,3.8-38.3,17.4-52.6,23.4l-64.9-0.6c-30.2-14-45.3-18.5-45.3-22.3v-37.1
		c0-1.1,0.2-2.1,0.7-3c1.1-2.3,3.5-3.9,6.2-3.9h149c2.8,0,5.2,1.7,6.3,4.1C259.3,262.1,259.5,263.1,259.5,264.1z"/>
	<path class="st10" d="M96.7,262.3c-0.4,0.9,0,1.8,0,2.8v34.6h-4c-1.6,0-3-1.2-3-2.8v-31.9c0-1.5,1.3-2.8,3-2.8H96.7z"/>
	<path class="st10" d="M85.2,268.1h4.5v27.7h-4.5c-3,0-5.4-2.3-5.4-5.1v-17.5C79.9,270.4,82.3,268.1,85.2,268.1z"/>
	<path class="st10" d="M269.1,264.9v28.9c0,1.4-1.3,2.5-3,2.5h-6.6v-31.5c0-0.9,0.4-1.7,0-2.5h6.6
		C267.8,262.4,269.1,263.5,269.1,264.9z"/>
	<path class="st10" d="M279,272.3v13.8c0,2.2-2.4,4-5.4,4h-4.5v-21.9h4.5C276.6,268.2,279,270,279,272.3z"/>
	<circle class="st11" cx="195.1" cy="274.9" r="2"/>
	<circle class="st11" cx="202.8" cy="274.9" r="2"/>
	<path class="st11" d="M245.5,276.9h-34.7c-0.6,0-1.1-0.5-1.1-1.1v-1.9c0-0.6,0.5-1.1,1.1-1.1h34.7c0.6,0,1.1,0.5,1.1,1.1v1.9
		C246.5,276.4,246,276.9,245.5,276.9z"/>
</g>
<g id="chest_4">
	<path class="st10" d="M260.3,264.6v36.7c0,3.8-38.3,17.4-52.6,23.4l-64.9-0.6c-30.2-14-45.3-18.5-45.3-22.3v-37.1
		c0-1.1,0.2-2.1,0.7-3c1.1-2.3,3.5-3.9,6.2-3.9h149c2.8,0,5.2,1.7,6.3,4.1C260.1,262.6,260.3,263.6,260.3,264.6z"/>
	<path class="st12" d="M97.5,262.7c-0.4,0.9,0,1.8,0,2.8v34.6h-4c-1.6,0-3-1.2-3-2.8v-31.9c0-1.5,1.3-2.8,3-2.8H97.5z"/>
	<path class="st13" d="M86,268.6h4.5v27.7H86c-3,0-5.4-2.3-5.4-5.1v-17.5C80.7,270.9,83.1,268.6,86,268.6z"/>
	<path class="st12" d="M269.9,265.4v28.9c0,1.4-1.3,2.5-3,2.5h-6.6v-31.5c0-0.9,0.4-1.7,0-2.5h6.6
		C268.6,262.8,269.9,264,269.9,265.4z"/>
	<path class="st13" d="M279.8,272.7v13.8c0,2.2-2.4,4-5.4,4h-4.5v-21.9h4.5C277.4,268.7,279.8,270.5,279.8,272.7z"/>
	<circle class="st11" cx="195.9" cy="275.3" r="2"/>
	<circle class="st11" cx="203.6" cy="275.3" r="2"/>
	<path class="st14" d="M246.3,277.3h-34.7c-0.6,0-1.1-0.5-1.1-1.1v-1.9c0-0.6,0.5-1.1,1.1-1.1h34.7c0.6,0,1.1,0.5,1.1,1.1v1.9
		C247.3,276.8,246.9,277.3,246.3,277.3z"/>
	<line class="st11" x1="109.7" y1="271.5" x2="109.7" y2="306.5"/>
</g>
<g id="chest_3">
	<path class="st10" d="M259.5,264.1v36.7c0,3.8-38.3,17.4-52.6,23.4l-64.9-0.6c-30.2-14-45.3-18.5-45.3-22.3v-37.1
		c0-1.1,0.2-2.1,0.7-3c1.1-2.3,3.5-3.9,6.2-3.9h149c2.8,0,5.2,1.7,6.3,4.1C259.3,262.1,259.5,263.1,259.5,264.1z"/>
	<path class="st10" d="M96.7,262.3c-0.4,0.9,0,1.8,0,2.8v34.6h-4c-1.6,0-3-1.2-3-2.8v-31.9c0-1.5,1.3-2.8,3-2.8H96.7z"/>
	<path class="st10" d="M85.2,268.1h4.5v27.7h-4.5c-3,0-5.4-2.3-5.4-5.1v-17.5C79.9,270.4,82.3,268.1,85.2,268.1z"/>
	<path class="st10" d="M269.1,264.9v28.9c0,1.4-1.3,2.5-3,2.5h-6.6v-31.5c0-0.9,0.4-1.7,0-2.5h6.6
		C267.8,262.4,269.1,263.5,269.1,264.9z"/>
	<path class="st10" d="M279,272.3v13.8c0,2.2-2.4,4-5.4,4h-4.5v-21.9h4.5C276.6,268.2,279,270,279,272.3z"/>
</g>
<g id="neck">
	<rect x="162.6" y="213" class="st15" width="31" height="43.9"/>
</g>
<g id="neck_2">
	<rect x="166.5" y="212.5" class="st15" width="23.3" height="43.9"/>
	<line class="st11" x1="170.8" y1="216.4" x2="170.8" y2="252.5"/>
</g>
<g id="full">
	<path class="st10" d="M284.3,141.7"/>
	<path class="st10" d="M281.9,194.8"/>
	<path class="st10" d="M272.9,156.9v50.5c0,2.3-1.9,4.2-4.2,4.2h-175c-2.3,0-4.2-1.9-4.2-4.2v-50.5c0-2.3,1.9-4.3,4.2-4.3h175
		C271.1,152.6,272.9,154.5,272.9,156.9z"/>
	<path class="st10" d="M284.3,168.5v25.3c0,4.2-2.4,7.7-5.3,7.7H274c-0.6,0-1.1-0.7-1.1-1.6V164c0-0.9,0.5-1.6,1.1-1.6h2.9
		c0.6,0,1.1-0.7,1.1-1.6v-17.9c0-2,1.1-3.6,2.5-3.6h0c1.4,0,2.5,1.6,2.5,3.6v20.4c0,0.4,0.1,0.8,0.3,1.1
		C283.9,165.5,284.3,166.9,284.3,168.5z"/>
	<path class="st10" d="M89.5,160.5v43.2h-7c-2.9,0-5.2-3-5.2-6.7v-29.9c0-2.1,0.8-4,2-5.3V95c0.8,0.6,1.8,0.9,2.8,0.9
		c1,0,2-0.3,2.8-0.9v65.4H89.5z"/>
	<path class="st10" d="M244,181.6H113.9c-2.3,0-4.2-1.9-4.2-4.2v-6.9c0-2.3,1.9-4.2,4.2-4.2H244c2.3,0,4.2,1.9,4.2,4.2v6.9
		C248.2,179.7,246.3,181.6,244,181.6z"/>
	<path class="st10" d="M131.4,210.2v-13.5c0-1.6,1.3-2.8,2.8-3.7H233c1.6,0.9,2.8,2.1,2.8,3.7v13.5"/>
	<path class="st10" d="M87.8,91c0,2.2-1.2,4.2-2.9,5.2c-0.8,0.5-1.8,0.8-2.8,0.8c-1,0-2-0.3-2.8-0.8c-1.7-1-2.9-3-2.9-5.2
		c0-3.3,2.5-6,5.7-6C85.3,85,87.8,87.7,87.8,91z"/>
</g>
<g id="antena_1">
	<path class="st10" d="M269.5,190.7c0.1-3.4,0-7.4,0.1-11.4c0.1-2.9,0.2-5.9,0-8.8c-0.2-2.5,1.5-3.8,3.3-2.6c3.5,2.3,6.3,5.3,7.4,10
		c0.2,0.9,0.2,1.8,0.2,2.7c0,3.5-0.2,7,0,10.4c0.3,5.1-1.9,8.7-5,11.7c-0.8,0.8-1.7,1.6-2.7,2.1c-1.6,0.8-2.6,0.3-3.1-1.6
		c-0.2-0.8-0.3-1.7-0.3-2.5C269.5,197.5,269.5,194.4,269.5,190.7z"/>
	<path class="st10" d="M87.4,200.7c0,0.9-0.1,1.7-0.3,2.5c-0.5,1.9-1.5,2.4-3.1,1.6c-1-0.5-1.9-1.3-2.7-2.1c-3.2-3.1-5.3-6.6-5-11.7
		c0.2-3.5,0-6.9,0-10.4c0-0.9,0-1.8,0.2-2.7c1.1-4.7,4-7.7,7.4-10c1.9-1.2,3.5,0.1,3.3,2.6c-0.2,2.9-0.1,5.9,0,8.8
		c0.1,4,0,8,0.1,11.4C87.4,194.4,87.4,197.5,87.4,200.7z"/>
</g>
<g id="antena_2">
	<path class="st16" d="M278,198.9"/>
	<path class="st10" d="M269.2,189.9c0.1-2.4,0-5.2,0.1-8c0-2.1-0.2-5-0.1-7.5c0.5-1.2,1.3-1.3,2.4-0.7c2.6,1.4,4,1.8,4.7,5.1
		c0.1,0.6,0.1,3.4,0.1,4c0,2.4-0.1,7.4,0,9.8c-0.1,3.6-1.1,3.7-3.3,5.7c0,0,0,0,0,0c-0.7,0.6-0.9,0.7-1.5,0.9
		c-0.5,0.2-1,0.2-1.4-0.1c-0.6-0.3-0.9-0.8-1.1-1.8c0-0.7,0-0.9,0-2.1C269.2,193,269.2,192.5,269.2,189.9z"/>
	<line class="st17" x1="276.4" y1="186.5" x2="295.1" y2="186"/>
	<ellipse class="st15" cx="295.1" cy="186" rx="3.8" ry="4.1"/>
	<path class="st10" d="M86.7,196.5c0.1,1.3,0.1,1.6,0,2.4c-0.2,1.1-0.6,1.7-1.3,2.1c-0.5,0.3-1.1,0.2-1.6,0.1
		c-0.6-0.2-0.9-0.4-1.7-1.1c0,0,0,0,0,0c-2.5-2.4-3.6-2.4-3.7-6.6c0.2-2.8,0.1-8.4,0.1-11.2c0-0.7,0-3.9,0.1-4.6
		c0.8-3.7,2.4-4.3,5.4-5.8c1.2-0.6,2.2-0.5,2.7,0.9c0.1,2.9-0.2,6.3-0.1,8.6c0.1,3.2,0,6.4,0.1,9.2C86.7,193.3,86.7,194,86.7,196.5z
		"/>
	<line class="st17" x1="78.4" y1="186.5" x2="57" y2="186"/>
	<ellipse class="st15" cx="60.7" cy="186" rx="3.8" ry="4.1"/>
</g>
<g id="antena_3">
	<path class="st10" d="M269.1,190.8c0.1-2.9,0-6.3,0.1-9.6c0.1-2.5,0.2-5,0-7.5c-0.2-2.1,1.4-3.2,3.1-2.2c3.3,1.9,6,4.5,7.1,8.4
		c0.2,0.7,0.2,1.5,0.2,2.2c0,2.9-0.2,5.9,0,8.8c0.3,4.3-1.8,7.3-4.8,9.9c-0.8,0.7-1.6,1.3-2.6,1.8c-1.5,0.7-2.5,0.3-2.9-1.4
		c-0.2-0.7-0.3-1.4-0.3-2.1C269.1,196.5,269.1,193.9,269.1,190.8z"/>
	<path class="st16" d="M281.2,151.1"/>
	<path class="st15" d="M270.4,166.5V206c0.2,0,0.3,0,0.5,0h7.2c1.9,0,3.4-1.8,3.4-3.9v-31.8c0-0.9-0.3-1.8-0.7-2.5v-36.6
		c0-1.4-1-2.5-2.2-2.5h-0.4c-1.2,0-2.2,1.1-2.2,2.5v35.1H271C270.8,166.4,270.6,166.4,270.4,166.5z"/>
	<line class="st11" x1="274.4" y1="169.8" x2="274.4" y2="203"/>
	<path class="st10" d="M86.1,199.2c0,0.7-0.1,1.4-0.3,2.1c-0.4,1.6-1.4,2.1-2.9,1.4c-1-0.5-1.8-1.1-2.6-1.8c-3-2.6-5.1-5.6-4.8-9.9
		c0.2-2.9,0-5.9,0-8.8c0-0.8,0-1.5,0.2-2.2c1.1-3.9,3.8-6.5,7.1-8.4c1.8-1,3.3,0.1,3.1,2.2c-0.2,2.5-0.1,5,0,7.5
		c0.1,3.4,0,6.7,0.1,9.6C86.1,193.9,86.1,196.5,86.1,199.2z"/>
	<path class="st16" d="M74,151.1"/>
	<path class="st15" d="M84.3,166.4H79v-35.1c0-1.4-1-2.5-2.2-2.5h-0.4c-1.2,0-2.2,1.1-2.2,2.5v36.6c-0.5,0.7-0.7,1.5-0.7,2.5v31.8
		c0,2.2,1.5,3.9,3.4,3.9h7.2c0.2,0,0.3,0,0.5,0v-39.6C84.6,166.4,84.5,166.4,84.3,166.4z"/>
	<line class="st11" x1="80.8" y1="169.8" x2="80.8" y2="203"/>
</g>
<g id="antena_4">
	<g>
		<path class="st10" d="M162.8,162.3c0.2-3.9,0-7.8,0.1-11.8c0.1-2.1,0.9-2.7,1.9-2.7c1.4,0,3.4,0,4.9-0.1c2.4-0.1,2.4-0.1,4.3-0.2
			c0.3,0,1.6,0,1.8,0c0.3,0,0.2-3,0.2-3.7c0-3.1,0-6.1,0-9.1c0-7.1,0.3-14.1,0.2-21.2c0-1.2-0.1-2.3-0.7-3.3
			c-1.9-3.1-2.2-6.6-0.9-10.5c1-3.2,3.6-4.7,5.7-3.3c1.6,1,2.8,3,3.1,6.1c0.3,3.3-0.2,6.3-1.9,8.2c-0.5,0.6-0.7,1.3-0.7,2.3
			c0.1,10.4,0,20.8,0.2,31.1c0,0.6,0,2.5,0.4,2.9c0.3,0.4,1.1,0.3,1.5,0.3c0.9,0,2.2,0,2.9,0c2-0.1,2.3,0,3.3,0c1,0,2.1-0.1,3.3-0.1
			c1.7,0,1.3,1,1.3,4.5c0,3.1,0,5.8,0,8.8"/>
		<circle class="st15" cx="178.7" cy="103.3" r="7.3"/>
	</g>
</g>
<g id="antena_5">
	<g>
		<path class="st15" d="M84.4,166v36.3h-7c-2.9,0-5.2-2.5-5.2-5.6v-25.1c0-1.8,0.8-3.4,2-4.4V111c0.8,0.5,1.8,0.8,2.8,0.8
			c1,0,2-0.3,2.8-0.8v55H84.4z"/>
		<path class="st15" d="M82.7,106.3c0,2.2-1.2,4.2-2.9,5.2c-0.8,0.5-1.8,0.8-2.8,0.8s-2-0.3-2.8-0.8c-1.7-1-2.9-3-2.9-5.2
			c0-3.3,2.5-6,5.7-6C80.2,100.3,82.7,103,82.7,106.3z"/>
	</g>
	<g>
		<path class="st15" d="M276,166v36.3h7c2.9,0,5.2-2.5,5.2-5.6v-25.1c0-1.8-0.8-3.4-2-4.4V111c-0.8,0.5-1.8,0.8-2.8,0.8
			c-1,0-2-0.3-2.8-0.8v55H276z"/>
		<path class="st15" d="M277.7,106.3c0,2.2,1.2,4.2,2.9,5.2c0.8,0.5,1.8,0.8,2.8,0.8s2-0.3,2.8-0.8c1.7-1,2.9-3,2.9-5.2
			c0-3.3-2.5-6-5.7-6C280.3,100.3,277.7,103,277.7,106.3z"/>
	</g>
</g>
<g id="head_1">
	<path class="st10" d="M276,159.6v45.1c0,4.6-3.7,8.3-8.3,8.3H92.7c-4.6,0-8.3-3.7-8.3-8.3v-45.1c0-4.6,3.7-8.3,8.3-8.3h175.1
		C272.3,151.3,276,155,276,159.6z"/>
</g>
<g id="head_2">
	<path class="st10" d="M205.9,181.7c0.5,15.1-12.2,28.3-28.2,28.1c-15.7-0.2-27.8-12.3-27.9-28.1c-0.1-15.6,12.3-28.2,28.6-28.2
		C193.3,153.7,206.5,166.4,205.9,181.7z M178,208.2c15,0.3,26.7-11.9,26.7-26.5c0-14-11.2-27.5-28.9-26.5
		c-12.2,0.7-25,11.3-24.4,27.7C151.9,196.1,162.7,208.5,178,208.2z"/>
	<path class="st15" d="M273.3,167.9v32.5c0.2,0,0.3,0,0.5,0h7.2c1.9,0,3.4-1.4,3.4-3.2v-26.1c0-0.8-0.3-1.5-0.7-2V139
		c0-1.1-1-2-2.2-2h-0.4c-1.2,0-2.2,0.9-2.2,2v28.8h-5.2C273.7,167.9,273.5,167.9,273.3,167.9z"/>
	<path class="st15" d="M82.4,167.9h-5.2V139c0-1.1-1-2-2.2-2h-0.4c-1.2,0-2.2,0.9-2.2,2v30.1c-0.5,0.6-0.7,1.3-0.7,2v26.1
		c0,1.8,1.5,3.2,3.4,3.2h7.2c0.2,0,0.3,0,0.5,0v-32.5C82.7,167.9,82.5,167.9,82.4,167.9z"/>
	<path class="st10" d="M273.3,165.9v35.6c0,1.9-1.8,3.4-4,3.4h-66.2c6.4-6.2,10.3-14.3,10.3-23.1c0-7.1-2.5-13.7-6.8-19.3
		c0,0,0,0-0.1-0.1h62.8C271.5,162.4,273.3,164,273.3,165.9z"/>
	<path class="st10" d="M212.9,181.7c0,8.9-3.3,17-8.8,23.1c0,0,0,0-0.1,0.1c-6.4,7.2-15.7,11.8-26.1,11.8s-19.7-4.5-26.1-11.8
		c-5.5-6.2-8.8-14.3-8.8-23.2c0-7.1,2.1-13.7,5.8-19.3c6.3-9.5,17-15.7,29.2-15.7c12.2,0,22.9,6.2,29.1,15.6c0,0,0,0,0,0.1
		C210.7,168,212.9,174.6,212.9,181.7z"/>
	<path class="st10" d="M213,181.7c0,8.9-3.3,17-8.8,23.2c-6.4,7.2-15.7,11.8-26.1,11.8c-10.4,0-19.7-4.5-26.1-11.8
		c-5.5-6.2-8.8-14.3-8.8-23.2c0-7.1,2.1-13.7,5.8-19.3c6.3-9.5,17-15.7,29.2-15.7c12.2,0,22.9,6.2,29.2,15.7
		C210.9,167.9,213,174.6,213,181.7z"/>
	<circle class="st15" cx="178" cy="181.7" r="28"/>
	<path class="st10" d="M151.9,204.9H86.3c-1.9,0-3.4-1.5-3.4-3.4v-35.6c0-1.9,1.5-3.4,3.4-3.4h62.6c-3.7,5.5-5.8,12.1-5.8,19.3
		C143.1,190.6,146.4,198.7,151.9,204.9z"/>
	<path class="st10" d="M281.7,193.7"/>
	<line class="st18" x1="77.9" y1="170.7" x2="77.9" y2="197.9"/>
	<line class="st18" x1="278.3" y1="170.7" x2="278.3" y2="197.9"/>
	<path class="st10" d="M74.5,193.7"/>
</g>
<g id="head_01">
	<path class="st10" d="M270.4,192.1c0.1-2.9,0-6.3,0.1-9.6c0.1-2.5,0.2-5,0-7.5c-0.2-2.1,1.4-3.2,3.1-2.2c3.3,1.9,6,4.5,7.1,8.4
		c0.2,0.7,0.2,1.5,0.2,2.2c0,2.9-0.2,5.9,0,8.8c0.3,4.3-1.8,7.3-4.8,9.9c-0.8,0.7-1.6,1.3-2.6,1.8c-1.5,0.7-2.5,0.3-2.9-1.4
		c-0.2-0.7-0.3-1.4-0.3-2.1C270.4,197.9,270.4,195.2,270.4,192.1z"/>
	<path class="st16" d="M282.5,152.5"/>
	<path class="st16" d="M280.1,199.3"/>
	<path class="st10" d="M271.3,165.9v44.5c0,2.1-1.9,3.7-4.2,3.7H93.1c-2.3,0-4.2-1.7-4.2-3.7v-44.5c0-2.1,1.9-3.8,4.2-3.8H267
		C269.4,162.1,271.3,163.8,271.3,165.9z"/>
	<path class="st19" d="M123.8,163.6v36.1c0,1,1.3,1.9,2.9,1.9h109.5c1.6,0,2.9-0.8,2.9-1.9v-36.1"/>
	<path class="st20" d="M251,184.2h-64.9c-0.9,0-1.6-0.7-1.6-1.6v-6.6c0-0.9,0.7-1.6,1.6-1.6H251c0.9,0,1.6,0.7,1.6,1.6v6.6
		C252.6,183.5,251.9,184.2,251,184.2z"/>
	<path class="st20" d="M173.1,184.2h-64.8c-0.9,0-1.6-0.7-1.6-1.6v-6.5c0-0.9,0.7-1.6,1.6-1.6h64.8c0.9,0,1.6,0.7,1.6,1.6v6.5
		C174.7,183.5,174,184.2,173.1,184.2z"/>
	<path class="st21" d="M271.8,167.8v39.6c0.2,0,0.3,0,0.5,0h7.2c1.9,0,3.4-1.8,3.4-3.9v-31.8c0-0.9-0.3-1.8-0.7-2.5v-36.6
		c0-1.4-1-2.5-2.2-2.5h-0.4c-1.2,0-2.2,1.1-2.2,2.5v35.1h-5.2C272.1,167.8,271.9,167.8,271.8,167.8z"/>
	<line class="st22" x1="275.7" y1="171.2" x2="275.7" y2="204.4"/>
	<path class="st21" d="M88.6,167.8h-5.2v-35.1c0-1.4-1-2.5-2.2-2.5h-0.4c-1.2,0-2.2,1.1-2.2,2.5v36.6c-0.5,0.7-0.7,1.5-0.7,2.5v31.8
		c0,2.2,1.5,3.9,3.4,3.9h7.2c0.2,0,0.3,0,0.5,0v-39.6C89,167.8,88.8,167.8,88.6,167.8z"/>
	<line class="st22" x1="85.2" y1="171.2" x2="85.2" y2="204.4"/>
</g>
<g id="head_3">
	<path class="st10" d="M269.1,164v44.5c0,2.1-1.9,3.7-4.2,3.7H91c-2.3,0-4.2-1.7-4.2-3.7V164c0-2.1,1.9-3.8,4.2-3.8h173.9
		C267.2,160.3,269.1,162,269.1,164z"/>
</g>
<g id="mouth_1">
	<path class="st10" d="M109.3,211.2v-14.1c0-1.8,1.6-3.2,3.5-3.2h134.8c1.9,0,3.5,1.5,3.5,3.2v14.1"/>
</g>
<g id="mouth_2">
	<path class="st23" d="M200.9,201.6c-2.2,0.9-4.3,0.8-6.5-0.2c-3.2-1.5-6.3-2.8-9.5-4.3c-1.2-0.5-2.3-0.6-3.6-0.1
		c-3.8,1.6-7.6,3-11.3,4.6c-1.7,0.7-3.4,0.7-5-0.1c-3.5-1.6-7-3.1-10.4-4.7c-1.6-0.8-2.9-0.8-4.5,0c-3.3,1.6-6.5,3.2-9.8,4.7
		c-1.1,0.5-2.3,1-3.6,1c-1,0-1.9-0.4-2.8-0.9c-3-1.7-6-3.3-8.9-5.1c-1-0.6-2.5-1.4-1.8-2.9c0.7-1.4,2.2-0.8,3.4-0.4
		c2.8,1,5.4,2.6,8,4c1.5,0.9,2.9,0.9,4.5,0.1c3.3-1.6,6.6-3,9.9-4.6c2.2-1.1,4.1-1.3,6.3-0.2c3.5,1.7,7.2,3.1,10.7,4.7
		c1,0.5,2,0.5,3,0.1c3.4-1.4,6.9-2.6,10.3-4.1c2.7-1.2,5.3-1.2,8,0.1c2.9,1.4,6,2.6,8.9,4c1.6,0.7,3.1,0.3,4.6-0.3
		c4-1.5,7.9-3,11.8-4.6c2.4-1,4.6-0.8,6.8,0.4c2.7,1.5,5.5,3,8.3,4.6c1,0.6,2.3,1.1,1.7,2.7c-0.5,1.1-2.2,1.6-3.6,1
		c-1.5-0.6-3-1.2-4.2-2.1c-3.9-3-7.7-3.5-12.1-1"/>
</g>
<g id="mouth_3">
	<path class="st18" d="M120.7,162.3v36.1c0,1,1.3,1.9,2.9,1.9H233c1.6,0,2.9-0.8,2.9-1.9v-36.1"/>
</g>
<g id="mouth_4">
	<path class="st10" d="M107.3,210.3v-14.1c0-1.8,1.6-3.2,3.5-3.2h134.8c1.9,0,3.5,1.5,3.5,3.2v14.1"/>
</g>
<g id="eyes_1">
	<path class="st10" d="M249.6,194.6H106.9c-2.8,0-5-2.2-5-5v-9.8c0-2.8,2.2-5,5-5h142.7c2.8,0,5,2.2,5,5v9.8
		C254.6,192.4,252.4,194.6,249.6,194.6z"/>
	<circle class="st11" cx="136" cy="185.1" r="3"/>
	<circle class="st11" cx="165.7" cy="185.1" r="3"/>
	<circle class="st11" cx="194.6" cy="185.1" r="3"/>
	<circle class="st11" cx="221.6" cy="185.1" r="3"/>
</g>
<g id="eyes_2">
	<path class="st10" d="M239.1,193.7H116.8c-2.5,0-4.5-2-4.5-4.5v-9.8c0-2.5,2-4.5,4.5-4.5h122.3c2.5,0,4.5,2,4.5,4.5v9.8
		C243.6,191.6,241.6,193.7,239.1,193.7z"/>
</g>
<g id="eyes_3">
	<path class="st10" d="M249.4,185.8h-64.9c-0.9,0-1.6-0.7-1.6-1.6v-6.6c0-0.9,0.7-1.6,1.6-1.6h64.9c0.9,0,1.6,0.7,1.6,1.6v6.6
		C251,185.1,250.3,185.8,249.4,185.8z"/>
	<path class="st10" d="M171.4,185.8h-64.8c-0.9,0-1.6-0.7-1.6-1.6v-6.5c0-0.9,0.7-1.6,1.6-1.6h64.8c0.9,0,1.6,0.7,1.6,1.6v6.5
		C173.1,185,172.3,185.8,171.4,185.8z"/>
</g>
<g id="eyes_4">
	<path class="st24" d="M246.9,196.1H111.4c-9.8,0-17.8-8-17.8-17.8v0c0-9.8,8-17.8,17.8-17.8h135.5c9.8,0,17.8,8,17.8,17.8v0
		C264.7,188.1,256.7,196.1,246.9,196.1z"/>
</g>
<g id="_x30_">
	<circle class="st25" cx="175.3" cy="174.8" r="152.4"/>
</g>
</svg>
