<?xml version="1.0" encoding="utf-8"?>
<!-- Generator: Adobe Illustrator 23.1.0, SVG Export Plug-In . SVG Version: 6.00 Build 0)  -->
<svg version="1.1" id="Layer_1" xmlns="http://www.w3.org/2000/svg" xmlns:xlink="http://www.w3.org/1999/xlink" x="0px" y="0px"
	 viewBox="0 0 350 350" style="enable-background:new 0 0 350 350;" xml:space="preserve">
<style type="text/css">
	.st0{fill:none;}
	.st1{display:none;fill:#040404;}
	.st2{fill:#040404;}
	.st3{fill:#245684;}
	.st4{fill:#131423;}
	.st5{fill:#8793BE;}
	.st6{fill:#3B6FAD;stroke:url(#SVGID_1_);stroke-miterlimit:10;}
	.st7{fill:url(#SVGID_2_);stroke:url(#SVGID_3_);stroke-miterlimit:10;}
	.st8{fill:#72C59D;}
	.st9{fill:#65B78F;}
	.st10{fill:#FFFFFF;stroke:#3E58A7;stroke-width:3;stroke-miterlimit:10;}
	.st11{fill:none;stroke:#3E58A7;stroke-miterlimit:10;}
	.st12{fill:#EAE7D0;stroke:#3E58A7;stroke-width:2;stroke-miterlimit:10;}
	.st13{fill:#CEB646;stroke:#3E58A7;stroke-width:2;stroke-miterlimit:10;}
	.st14{fill:#CEB646;stroke:#3E58A7;stroke-miterlimit:10;}
	.st15{fill:#252735;stroke:#4D5176;stroke-width:2;stroke-miterlimit:10;}
	.st16{fill:#252735;stroke:#4D5176;stroke-width:3;stroke-miterlimit:10;}
	.st17{fill:#252735;stroke:#4D5176;stroke-miterlimit:10;}
	.st18{fill:#DFDEDF;stroke:#2E323B;stroke-width:3;stroke-miterlimit:10;}
	.st19{fill:#FFFFFF;stroke:#2E323B;stroke-width:3;stroke-miterlimit:10;}
	.st20{fill:#E4BD4F;stroke:#2E323B;stroke-width:2;stroke-miterlimit:10;}
	.st21{fill:#DFDEDF;stroke:#2E323B;stroke-width:2;stroke-miterlimit:10;}
	.st22{fill:#A9373A;stroke:#212121;stroke-width:3;stroke-miterlimit:10;}
	.st23{fill:#A9373A;stroke:#212121;stroke-miterlimit:10;}
	.st24{fill:#E3DEB9;stroke:#212121;stroke-miterlimit:10;}
	.st25{fill:none;stroke:#212121;stroke-miterlimit:10;}
	.st26{fill:#FFFFFF;stroke:#827E9D;stroke-width:3;stroke-miterlimit:10;}
	.st27{fill:#FFFFFF;stroke:#827E9D;stroke-width:2;stroke-miterlimit:10;}
	.st28{fill:none;stroke:#827E9D;stroke-width:2;stroke-miterlimit:10;}
	.st29{fill:#131423;stroke:#2D2F47;stroke-miterlimit:10;}
	.st30{fill:#FFFFFF;stroke:#2D2F47;stroke-miterlimit:10;}
	.st31{fill:#FFFFFF;stroke:#3E58A7;stroke-width:2;stroke-miterlimit:10;}
	.st32{fill:none;stroke:#3E58A7;stroke-width:6;stroke-miterlimit:10;}
	.st33{fill:#EAE7D0;stroke:#3E58A7;stroke-miterlimit:10;}
	.st34{fill:#CEB646;stroke:#3E58A7;stroke-width:3;stroke-miterlimit:10;}
	.st35{fill:#EAE7D0;stroke:#3E58A7;stroke-width:1.8;stroke-miterlimit:10;}
	.st36{fill:none;stroke:#3E58A7;stroke-width:0.8;stroke-miterlimit:10;}
	.st37{fill:#A9373A;stroke:#212121;stroke-width:2;stroke-miterlimit:10;}
	.st38{fill:#E3DEB9;stroke:#212121;stroke-width:2;stroke-miterlimit:10;}
	.st39{fill:#A9373A;stroke:#212121;stroke-width:1.4;stroke-miterlimit:10;}
	.st40{fill:#E4BD4F;stroke:#2E323B;stroke-width:3;stroke-miterlimit:10;}
	.st41{fill:#B7D374;stroke:#2E323B;stroke-width:3;stroke-miterlimit:10;}
	.st42{fill:#FFFFFF;stroke:#21262E;stroke-width:3;stroke-miterlimit:10;}
	.st43{fill:#C44549;stroke:#21262E;stroke-width:2;stroke-miterlimit:10;}
	.st44{fill:none;stroke:#252735;stroke-width:5;stroke-miterlimit:10;}
	.st45{fill:#B5D077;stroke:#4D5176;stroke-width:3;stroke-miterlimit:10;}
	.st46{fill:#252735;stroke:#4D5176;stroke-width:1.8;stroke-miterlimit:10;}
	.st47{fill:none;stroke:#827E9D;stroke-miterlimit:10;}
	.st48{fill:#3E58A7;}
	.st49{fill:#FFFFFF;stroke:#3E58A7;stroke-miterlimit:10;}
	.st50{fill:#FFFFFF;stroke:#3E58A7;stroke-width:4;stroke-miterlimit:10;}
	.st51{fill:none;stroke:#FFFFFF;stroke-width:10;stroke-miterlimit:10;}
</style>
<pattern  y="350" width="20" height="20" patternUnits="userSpaceOnUse" id="SVGID_4_" viewBox="0 -20 20 20" style="overflow:visible;">
	<g>
		<rect y="-20" class="st0" width="20" height="20"/>
		<g>
			<rect y="-20" class="st0" width="20" height="20"/>
			<g>
				<rect y="-20" class="st0" width="20" height="20"/>
				<rect y="-20" class="st1" width="20" height="20"/>
				<path class="st2" d="M16.8-10H3.3 M10-3.3v-13.5"/>
			</g>
		</g>
	</g>
</pattern>
<pattern  y="350" width="31" height="31" patternUnits="userSpaceOnUse" id="SVGID_5_" viewBox="0 -31 31 31" style="overflow:visible;">
	<g>
		<rect y="-31" class="st0" width="31" height="31"/>
		<g>
			<rect y="-31" class="st0" width="31" height="31"/>
			<g>
				<rect y="-31" class="st0" width="31" height="31"/>
				<path class="st3" d="M3-28"/>
				<path class="st3" d="M0-28c0,4,6,4,6,0S0-32,0-28z M25-28c0,4,6,4,6,0S25-32,25-28z M0-3c0,4,6,4,6,0S0-7,0-3z M25-3
					c0,4,6,4,6,0S25-7,25-3z"/>
				<path class="st3" d="M11.5-15.5l4,4l4-4l-4-4L11.5-15.5z"/>
			</g>
		</g>
	</g>
</pattern>
<pattern  y="350" width="20" height="20" patternUnits="userSpaceOnUse" id="SVGID_6_" viewBox="0 -20 20 20" style="overflow:visible;">
	<g>
		<rect y="-20" class="st0" width="20" height="20"/>
		<g>
			<rect y="-20" class="st0" width="20" height="20"/>
			<g>
				<rect y="-20" class="st0" width="20" height="20"/>
				<rect y="-20" class="st1" width="20" height="20"/>
				<path class="st2" d="M16.8-10H3.3 M10-3.3v-13.5"/>
			</g>
		</g>
	</g>
</pattern>
<g id="BG_01">
	<circle class="st4" cx="175.3" cy="174.8" r="152.4"/>
</g>
<g id="bg_04">
	<circle class="st5" cx="175" cy="175.9" r="152.4"/>
</g>
<g id="bg_03">
	<pattern  id="SVGID_1_" xlink:href="#SVGID_4_" patternTransform="matrix(1 0 0 1 16.4176 16415.2285)">
	</pattern>
	<circle class="st6" cx="178.3" cy="177.7" r="151.5"/>
	<pattern  id="SVGID_2_" xlink:href="#SVGID_5_" patternTransform="matrix(1 0 0 1 -34.5824 16420.3789)">
	</pattern>
	<pattern  id="SVGID_3_" xlink:href="#SVGID_6_" patternTransform="matrix(1 0 0 1 -3.5824 16416.3789)">
	</pattern>
	<circle class="st7" cx="178.3" cy="178.9" r="151.5"/>
</g>
<g id="bg_02">
	<circle class="st8" cx="172.4" cy="174.8" r="151.5"/>
	<circle class="st9" cx="175.7" cy="175.8" r="111.7"/>
</g>
<g id="chest_1">
	<path class="st10" d="M259.5,265.1v36.7c0,3.8-38.3,17.4-52.6,23.4l-64.9-0.6c-30.2-14-45.3-18.5-45.3-22.3v-37.1
		c0-1.1,0.2-2.1,0.7-3c1.1-2.3,3.5-3.9,6.2-3.9h149c2.8,0,5.2,1.7,6.3,4.1C259.3,263.1,259.5,264.1,259.5,265.1z"/>
	<path class="st10" d="M96.7,263.3c-0.4,0.9,0,1.8,0,2.8v34.6h-4c-1.6,0-3-1.2-3-2.8V266c0-1.5,1.3-2.8,3-2.8L96.7,263.3L96.7,263.3
		z"/>
	<path class="st10" d="M85.2,269.1h4.5v27.7h-4.5c-3,0-5.4-2.3-5.4-5.1v-17.5C79.9,271.4,82.3,269.1,85.2,269.1z"/>
	<path class="st10" d="M269.1,265.9v28.9c0,1.4-1.3,2.5-3,2.5h-6.6v-31.5c0-0.9,0.4-1.7,0-2.5h6.6
		C267.8,263.4,269.1,264.5,269.1,265.9z"/>
	<path class="st10" d="M279,273.3v13.8c0,2.2-2.4,4-5.4,4h-4.5v-21.9h4.5C276.6,269.2,279,271,279,273.3z"/>
	<path class="st10" d="M236.9,312.2c-11.1,4.5-23.5,9.1-30.5,12l-64.9-0.6c-8.8-4.1-16.3-7.3-22.5-10c2.3-9.8,7.4-18.6,15.2-26
		c7.8-7.3,16.8-12.6,27.8-15.2c3.3-0.8,6.7-0.9,9.9-2.1h0.3c4.7,0.3,9.3-0.2,14.1,0.5c8.1,1.1,15.6,3.5,22.7,7.2
		C222.8,285.3,233,297.8,236.9,312.2z"/>
</g>
<g id="chest_2">
	<path class="st10" d="M259.5,264.1v36.7c0,3.8-38.3,17.4-52.6,23.4l-64.9-0.6c-30.2-14-45.3-18.5-45.3-22.3v-37.1
		c0-1.1,0.2-2.1,0.7-3c1.1-2.3,3.5-3.9,6.2-3.9h149c2.8,0,5.2,1.7,6.3,4.1C259.3,262.1,259.5,263.1,259.5,264.1z"/>
	<path class="st10" d="M96.7,262.3c-0.4,0.9,0,1.8,0,2.8v34.6h-4c-1.6,0-3-1.2-3-2.8V265c0-1.5,1.3-2.8,3-2.8L96.7,262.3L96.7,262.3
		z"/>
	<path class="st10" d="M85.2,268.1h4.5v27.7h-4.5c-3,0-5.4-2.3-5.4-5.1v-17.5C79.9,270.4,82.3,268.1,85.2,268.1z"/>
	<path class="st10" d="M269.1,264.9v28.9c0,1.4-1.3,2.5-3,2.5h-6.6v-31.5c0-0.9,0.4-1.7,0-2.5h6.6
		C267.8,262.4,269.1,263.5,269.1,264.9z"/>
	<path class="st10" d="M279,272.3v13.8c0,2.2-2.4,4-5.4,4h-4.5v-21.9h4.5C276.6,268.2,279,270,279,272.3z"/>
	<circle class="st11" cx="195.1" cy="274.9" r="2"/>
	<circle class="st11" cx="202.8" cy="274.9" r="2"/>
	<path class="st11" d="M245.5,276.9h-34.7c-0.6,0-1.1-0.5-1.1-1.1v-1.9c0-0.6,0.5-1.1,1.1-1.1h34.7c0.6,0,1.1,0.5,1.1,1.1v1.9
		C246.5,276.4,246,276.9,245.5,276.9z"/>
</g>
<g id="chest_4">
	<path class="st10" d="M260.3,264.6v36.7c0,3.8-38.3,17.4-52.6,23.4l-64.9-0.6c-30.2-14-45.3-18.5-45.3-22.3v-37.1
		c0-1.1,0.2-2.1,0.7-3c1.1-2.3,3.5-3.9,6.2-3.9h149c2.8,0,5.2,1.7,6.3,4.1C260.1,262.6,260.3,263.6,260.3,264.6z"/>
	<path class="st12" d="M97.5,262.7c-0.4,0.9,0,1.8,0,2.8v34.6h-4c-1.6,0-3-1.2-3-2.8v-31.9c0-1.5,1.3-2.8,3-2.8L97.5,262.7
		L97.5,262.7z"/>
	<path class="st13" d="M86,268.6h4.5v27.7H86c-3,0-5.4-2.3-5.4-5.1v-17.5C80.7,270.9,83.1,268.6,86,268.6z"/>
	<path class="st12" d="M269.9,265.4v28.9c0,1.4-1.3,2.5-3,2.5h-6.6v-31.5c0-0.9,0.4-1.7,0-2.5h6.6
		C268.6,262.8,269.9,264,269.9,265.4z"/>
	<path class="st13" d="M279.8,272.7v13.8c0,2.2-2.4,4-5.4,4h-4.5v-21.9h4.5C277.4,268.7,279.8,270.5,279.8,272.7z"/>
	<circle class="st11" cx="195.9" cy="275.3" r="2"/>
	<circle class="st11" cx="203.6" cy="275.3" r="2"/>
	<path class="st14" d="M246.3,277.3h-34.7c-0.6,0-1.1-0.5-1.1-1.1v-1.9c0-0.6,0.5-1.1,1.1-1.1h34.7c0.6,0,1.1,0.5,1.1,1.1v1.9
		C247.3,276.8,246.9,277.3,246.3,277.3z"/>
	<line class="st11" x1="109.7" y1="271.5" x2="109.7" y2="306.5"/>
</g>
<g id="chest_3">
	<path class="st10" d="M259.5,264.1v36.7c0,3.8-38.3,17.4-52.6,23.4l-64.9-0.6c-30.2-14-45.3-18.5-45.3-22.3v-37.1
		c0-1.1,0.2-2.1,0.7-3c1.1-2.3,3.5-3.9,6.2-3.9h149c2.8,0,5.2,1.7,6.3,4.1C259.3,262.1,259.5,263.1,259.5,264.1z"/>
	<path class="st10" d="M96.7,262.3c-0.4,0.9,0,1.8,0,2.8v34.6h-4c-1.6,0-3-1.2-3-2.8V265c0-1.5,1.3-2.8,3-2.8L96.7,262.3L96.7,262.3
		z"/>
	<path class="st10" d="M85.2,268.1h4.5v27.7h-4.5c-3,0-5.4-2.3-5.4-5.1v-17.5C79.9,270.4,82.3,268.1,85.2,268.1z"/>
	<path class="st10" d="M269.1,264.9v28.9c0,1.4-1.3,2.5-3,2.5h-6.6v-31.5c0-0.9,0.4-1.7,0-2.5h6.6
		C267.8,262.4,269.1,263.5,269.1,264.9z"/>
	<path class="st10" d="M279,272.3v13.8c0,2.2-2.4,4-5.4,4h-4.5v-21.9h4.5C276.6,268.2,279,270,279,272.3z"/>
</g>
<g id="body_1">
	<rect x="161.9" y="199.9" class="st15" width="31" height="57.9"/>
	<path class="st16" d="M259.2,263.5v36.7c0,3.8-38.3,17.4-52.6,23.4l-64.9-0.6c-30.2-14-45.3-18.5-45.3-22.3v-37.1
		c0-1.1,0.2-2.1,0.7-3c1.1-2.3,3.5-3.9,6.2-3.9h149c2.8,0,5.2,1.7,6.3,4.1C259,261.5,259.2,262.5,259.2,263.5z"/>
	<path class="st15" d="M96.4,261.7c-0.4,0.9,0,1.8,0,2.8v34.6h-4c-1.6,0-3-1.2-3-2.8v-31.9c0-1.5,1.3-2.8,3-2.8L96.4,261.7
		L96.4,261.7z"/>
	<path class="st15" d="M84.9,267.5h4.5v27.7h-4.5c-3,0-5.4-2.3-5.4-5.1v-17.5C79.6,269.8,82,267.5,84.9,267.5z"/>
	<path class="st15" d="M268.8,264.3v28.9c0,1.4-1.3,2.5-3,2.5h-6.6v-31.5c0-0.9,0.4-1.7,0-2.5h6.6
		C267.5,261.8,268.8,262.9,268.8,264.3z"/>
	<path class="st15" d="M278.7,271.7v13.8c0,2.2-2.4,4-5.4,4h-4.5v-21.9h4.5C276.3,267.6,278.7,269.4,278.7,271.7z"/>
	<path class="st17" d="M236.6,310.6c-11.1,4.5-23.5,9.1-30.5,12l-64.9-0.6c-8.8-4.1-16.3-7.3-22.5-10c2.3-9.8,7.4-18.6,15.2-26
		c7.8-7.3,16.8-12.6,27.8-15.2c3.3-0.8,6.7-0.9,9.9-2.1h0.3c4.7,0.3,9.3-0.2,14.1,0.5c8.1,1.1,15.6,3.5,22.7,7.2
		C222.5,283.7,232.7,296.1,236.6,310.6z"/>
</g>
<g id="body_2">
	<rect x="162.9" y="216.5" class="st18" width="31" height="43.9"/>
	<path class="st19" d="M260.2,266.1v36.7c0,3.8-38.3,17.4-52.6,23.4l-64.9-0.6c-30.2-14-45.3-18.5-45.3-22.3v-37.1
		c0-1.1,0.2-2.1,0.7-3c1.1-2.3,3.5-3.9,6.2-3.9h149c2.8,0,5.2,1.7,6.3,4.1C260,264.1,260.2,265.1,260.2,266.1z"/>
	<path class="st20" d="M96.6,264.3c-0.5,0.9,0,1.8,0,2.8v34.6h-4.7c-1.9,0-3.5-1.2-3.5-2.8V267c0-1.5,1.6-2.8,3.5-2.8L96.6,264.3
		L96.6,264.3z"/>
	<path class="st21" d="M83.9,270.1h4.5v27.7h-4.5c-3,0-5.4-2.3-5.4-5.1v-17.5C78.6,272.4,80.9,270.1,83.9,270.1z"/>
	<path class="st21" d="M236.4,313.3c-11.1,4.5-23.5,9.1-30.5,12l-64.9-0.6c-8.8-4.1-16.3-7.3-22.5-10c2.3-9.8,7.4-18.6,15.2-26
		c7.8-7.3,16.8-12.6,27.8-15.2c3.3-0.8,5.3-1.5,9.9-2.1h0.3c5.4-0.4,9.3-0.2,14.1,0.5c8.1,1.1,15.6,3.5,22.7,7.2
		C222.3,286.4,232.4,298.9,236.4,313.3z"/>
	<path class="st20" d="M268.8,266.9v28.9c0,1.4-1.2,2.5-2.7,2.5h-5.9v-31.5c0-0.9,0.4-1.7,0-2.5h5.9
		C267.6,264.4,268.8,265.5,268.8,266.9z"/>
	<path class="st21" d="M279.7,273.9v12.7c0,2.1-2.4,3.7-5.4,3.7h-4.5v-20.2h4.5C277.3,270.2,279.7,271.9,279.7,273.9z"/>
</g>
<g id="body_3">
	<rect x="165.8" y="216.1" class="st22" width="23.3" height="43.9"/>
	<path class="st22" d="M259.2,264.4V301c0,3.8-38.3,17.4-52.6,23.4l-64.9-0.6c-30.2-14-45.3-18.5-45.3-22.3v-37.1
		c0-1.1,0.2-2.1,0.7-3c1.1-2.3,3.5-3.9,6.2-3.9h149c2.8,0,5.2,1.7,6.3,4.1C259,262.4,259.2,263.3,259.2,264.4z"/>
	<path class="st22" d="M96.4,262.5c-0.4,0.9,0,1.8,0,2.8V300h-4c-1.6,0-3-1.2-3-2.8v-31.9c0-1.5,1.3-2.8,3-2.8L96.4,262.5
		L96.4,262.5z"/>
	<path class="st22" d="M84.9,268.3h4.5V296h-4.5c-3,0-5.4-2.3-5.4-5.1v-17.5C79.6,270.6,82,268.3,84.9,268.3z"/>
	<path class="st22" d="M268.8,265.2v28.9c0,1.4-1.3,2.5-3,2.5h-6.6v-31.5c0-0.9,0.4-1.7,0-2.5h6.6
		C267.5,262.6,268.8,263.8,268.8,265.2z"/>
	<path class="st22" d="M278.7,272.5v13.8c0,2.2-2.4,4-5.4,4h-4.5v-21.9h4.5C276.3,268.5,278.7,270.3,278.7,272.5z"/>
	<circle class="st23" cx="194.8" cy="275.1" r="2"/>
	<circle class="st23" cx="202.5" cy="275.1" r="2"/>
	<path class="st24" d="M245.2,277.1h-34.7c-0.6,0-1.1-0.5-1.1-1.1v-1.9c0-0.6,0.5-1.1,1.1-1.1h34.7c0.6,0,1.1,0.5,1.1,1.1v1.9
		C246.2,276.6,245.7,277.1,245.2,277.1z"/>
	<line class="st25" x1="170.2" y1="219.9" x2="170.2" y2="256"/>
</g>
<g id="body_5">
	<rect x="162" y="214.5" class="st26" width="31" height="43.9"/>
	<path class="st26" d="M259.3,264.2v36.7c0,3.8-38.3,17.4-52.6,23.4l-64.9-0.6c-30.2-14-45.3-18.5-45.3-22.3v-37.1
		c0-1.1,0.2-2.1,0.7-3c1.1-2.3,3.5-3.9,6.2-3.9h149c2.8,0,5.2,1.7,6.3,4.1C259,262.2,259.3,263.1,259.3,264.2z"/>
	<path class="st26" d="M96.4,262.3c-0.4,0.9,0,1.8,0,2.8v34.6h-4c-1.6,0-3-1.2-3-2.8V265c0-1.5,1.3-2.8,3-2.8L96.4,262.3L96.4,262.3
		z"/>
	<path class="st26" d="M84.9,268.1h4.5v27.7h-4.5c-3,0-5.4-2.3-5.4-5.1v-17.5C79.6,270.4,82,268.1,84.9,268.1z"/>
	<path class="st26" d="M268.8,265v28.9c0,1.4-1.3,2.5-3,2.5h-6.6v-31.5c0-0.9,0.4-1.7,0-2.5h6.6C267.5,262.4,268.8,263.6,268.8,265z
		"/>
	<path class="st26" d="M278.7,272.3v13.8c0,2.2-2.4,4-5.4,4h-4.5v-21.9h4.5C276.3,268.3,278.7,270.1,278.7,272.3z"/>
	<circle class="st27" cx="194.7" cy="275.1" r="2"/>
	<circle class="st27" cx="202.4" cy="275.1" r="2"/>
	<path class="st27" d="M245.1,277.1h-34.7c-0.6,0-1.1-0.5-1.1-1.1v-1.9c0-0.6,0.5-1.1,1.1-1.1h34.7c0.6,0,1.1,0.5,1.1,1.1v1.9
		C246.2,276.6,245.7,277.1,245.1,277.1z"/>
	<line class="st28" x1="108.6" y1="271.2" x2="108.6" y2="306.2"/>
</g>
<g id="body_4">
	<rect x="165.7" y="215.1" class="st4" width="25" height="44.1"/>
	<path class="st29" d="M261.1,265v36.9c0,3.9-38.5,17.5-52.9,23.5l-65.3-0.6c-30.4-14.1-45.6-18.6-45.6-22.5V265
		c0-1.1,0.2-2.1,0.7-3c1.1-2.3,3.5-4,6.3-4h149.9c2.8,0,5.2,1.7,6.3,4.1C260.8,263,261.1,264,261.1,265z"/>
	<path class="st30" d="M234.8,311.9c-11.1,4.5-23.5,9.1-30.5,12l-64.9-0.6c-8.8-4.1-16.3-7.3-22.5-10c2.3-9.8,7.4-18.6,15.2-26
		c7.8-7.3,16.8-12.6,27.8-15.2c3.3-0.8,5.3-1.5,9.9-2.1h0.3c5.4-0.4,9.3-0.2,14.1,0.5c8.1,1.1,15.6,3.5,22.7,7.2
		C220.7,285,230.8,297.5,234.8,311.9z"/>
	<path class="st4" d="M86.1,267H91v29.9h-4.9c-3.2,0-5.8-2.5-5.8-5.5v-18.9C80.3,269.4,82.9,267,86.1,267z"/>
	<path class="st29" d="M267.7,265.8v29.1c0,1.4-0.9,2.6-2.1,2.6H261v-31.7c0-0.9,0.3-1.7,0-2.5h4.6
		C266.8,263.3,267.7,264.4,267.7,265.8z"/>
	<path class="st4" d="M276.6,273.2v13.9c0,2.2-2.2,4.1-4.8,4.1h-4.1v-22h4.1C274.4,269.1,276.6,270.9,276.6,273.2z"/>
	<path class="st29" d="M97.2,263.2c-0.5,0.9,0,1.8,0,2.8v34.8h-4c-1.7,0-3-1.3-3-2.8v-32c0-1.6,1.3-2.8,3-2.8H97.2z"/>
</g>
<g id="neck">
	<rect x="162.6" y="213" class="st31" width="31" height="43.9"/>
</g>
<g id="neck_2">
	<rect x="166.5" y="212.5" class="st31" width="23.3" height="43.9"/>
	<line class="st11" x1="170.8" y1="216.4" x2="170.8" y2="252.5"/>
</g>
<g id="full">
	<path class="st10" d="M272.9,156.9v50.5c0,2.3-1.9,4.2-4.2,4.2h-175c-2.3,0-4.2-1.9-4.2-4.2v-50.5c0-2.3,1.9-4.3,4.2-4.3h175
		C271.1,152.6,272.9,154.5,272.9,156.9z"/>
	<path class="st10" d="M284.3,168.5v25.3c0,4.2-2.4,7.7-5.3,7.7h-5c-0.6,0-1.1-0.7-1.1-1.6V164c0-0.9,0.5-1.6,1.1-1.6h2.9
		c0.6,0,1.1-0.7,1.1-1.6v-17.9c0-2,1.1-3.6,2.5-3.6l0,0c1.4,0,2.5,1.6,2.5,3.6v20.4c0,0.4,0.1,0.8,0.3,1.1
		C283.9,165.5,284.3,166.9,284.3,168.5z"/>
	<path class="st10" d="M89.5,160.5v43.2h-7c-2.9,0-5.2-3-5.2-6.7v-29.9c0-2.1,0.8-4,2-5.3V95c0.8,0.6,1.8,0.9,2.8,0.9s2-0.3,2.8-0.9
		v65.4h4.6C89.5,160.4,89.5,160.5,89.5,160.5z"/>
	<path class="st10" d="M244,181.6H113.9c-2.3,0-4.2-1.9-4.2-4.2v-6.9c0-2.3,1.9-4.2,4.2-4.2H244c2.3,0,4.2,1.9,4.2,4.2v6.9
		C248.2,179.7,246.3,181.6,244,181.6z"/>
	<path class="st10" d="M131.4,210.2v-13.5c0-1.6,1.3-2.8,2.8-3.7H233c1.6,0.9,2.8,2.1,2.8,3.7v13.5"/>
	<path class="st10" d="M87.8,91c0,2.2-1.2,4.2-2.9,5.2c-0.8,0.5-1.8,0.8-2.8,0.8s-2-0.3-2.8-0.8c-1.7-1-2.9-3-2.9-5.2
		c0-3.3,2.5-6,5.7-6C85.3,85,87.8,87.7,87.8,91z"/>
</g>
<g id="antena_1">
	<path class="st10" d="M269.5,190.7c0.1-3.4,0-7.4,0.1-11.4c0.1-2.9,0.2-5.9,0-8.8c-0.2-2.5,1.5-3.8,3.3-2.6c3.5,2.3,6.3,5.3,7.4,10
		c0.2,0.9,0.2,1.8,0.2,2.7c0,3.5-0.2,7,0,10.4c0.3,5.1-1.9,8.7-5,11.7c-0.8,0.8-1.7,1.6-2.7,2.1c-1.6,0.8-2.6,0.3-3.1-1.6
		c-0.2-0.8-0.3-1.7-0.3-2.5C269.5,197.5,269.5,194.4,269.5,190.7z"/>
	<path class="st10" d="M87.4,200.7c0,0.9-0.1,1.7-0.3,2.5c-0.5,1.9-1.5,2.4-3.1,1.6c-1-0.5-1.9-1.3-2.7-2.1c-3.2-3.1-5.3-6.6-5-11.7
		c0.2-3.5,0-6.9,0-10.4c0-0.9,0-1.8,0.2-2.7c1.1-4.7,4-7.7,7.4-10c1.9-1.2,3.5,0.1,3.3,2.6c-0.2,2.9-0.1,5.9,0,8.8
		c0.1,4,0,8,0.1,11.4C87.4,194.4,87.4,197.5,87.4,200.7z"/>
</g>
<g id="antena_2">
	<path class="st10" d="M269.2,189.9c0.1-2.4,0-5.2,0.1-8c0-2.1-0.2-5-0.1-7.5c0.5-1.2,1.3-1.3,2.4-0.7c2.6,1.4,4,1.8,4.7,5.1
		c0.1,0.6,0.1,3.4,0.1,4c0,2.4-0.1,7.4,0,9.8c-0.1,3.6-1.1,3.7-3.3,5.7l0,0c-0.7,0.6-0.9,0.7-1.5,0.9c-0.5,0.2-1,0.2-1.4-0.1
		c-0.6-0.3-0.9-0.8-1.1-1.8c0-0.7,0-0.9,0-2.1C269.2,193,269.2,192.5,269.2,189.9z"/>
	<line class="st32" x1="276.4" y1="186.5" x2="295.1" y2="186"/>
	<ellipse class="st31" cx="295.1" cy="186" rx="3.8" ry="4.1"/>
	<path class="st10" d="M86.7,196.5c0.1,1.3,0.1,1.6,0,2.4c-0.2,1.1-0.6,1.7-1.3,2.1c-0.5,0.3-1.1,0.2-1.6,0.1
		c-0.6-0.2-0.9-0.4-1.7-1.1l0,0c-2.5-2.4-3.6-2.4-3.7-6.6c0.2-2.8,0.1-8.4,0.1-11.2c0-0.7,0-3.9,0.1-4.6c0.8-3.7,2.4-4.3,5.4-5.8
		c1.2-0.6,2.2-0.5,2.7,0.9c0.1,2.9-0.2,6.3-0.1,8.6c0.1,3.2,0,6.4,0.1,9.2C86.7,193.3,86.7,194,86.7,196.5z"/>
	<line class="st32" x1="78.4" y1="186.5" x2="57" y2="186"/>
	<ellipse class="st31" cx="60.7" cy="186" rx="3.8" ry="4.1"/>
</g>
<g id="antena_3">
	<path class="st10" d="M269.1,190.8c0.1-2.9,0-6.3,0.1-9.6c0.1-2.5,0.2-5,0-7.5c-0.2-2.1,1.4-3.2,3.1-2.2c3.3,1.9,6,4.5,7.1,8.4
		c0.2,0.7,0.2,1.5,0.2,2.2c0,2.9-0.2,5.9,0,8.8c0.3,4.3-1.8,7.3-4.8,9.9c-0.8,0.7-1.6,1.3-2.6,1.8c-1.5,0.7-2.5,0.3-2.9-1.4
		c-0.2-0.7-0.3-1.4-0.3-2.1C269.1,196.5,269.1,193.9,269.1,190.8z"/>
	<path class="st31" d="M270.4,166.5V206c0.2,0,0.3,0,0.5,0h7.2c1.9,0,3.4-1.8,3.4-3.9v-31.8c0-0.9-0.3-1.8-0.7-2.5v-36.6
		c0-1.4-1-2.5-2.2-2.5h-0.4c-1.2,0-2.2,1.1-2.2,2.5v35.1h-5C270.8,166.4,270.6,166.4,270.4,166.5z"/>
	<line class="st11" x1="274.4" y1="169.8" x2="274.4" y2="203"/>
	<path class="st10" d="M86.1,199.2c0,0.7-0.1,1.4-0.3,2.1c-0.4,1.6-1.4,2.1-2.9,1.4c-1-0.5-1.8-1.1-2.6-1.8c-3-2.6-5.1-5.6-4.8-9.9
		c0.2-2.9,0-5.9,0-8.8c0-0.8,0-1.5,0.2-2.2c1.1-3.9,3.8-6.5,7.1-8.4c1.8-1,3.3,0.1,3.1,2.2c-0.2,2.5-0.1,5,0,7.5
		c0.1,3.4,0,6.7,0.1,9.6C86.1,193.9,86.1,196.5,86.1,199.2z"/>
	<path class="st31" d="M84.3,166.4H79v-35.1c0-1.4-1-2.5-2.2-2.5h-0.4c-1.2,0-2.2,1.1-2.2,2.5v36.6c-0.5,0.7-0.7,1.5-0.7,2.5v31.8
		c0,2.2,1.5,3.9,3.4,3.9h7.2c0.2,0,0.3,0,0.5,0v-39.6C84.6,166.4,84.5,166.4,84.3,166.4z"/>
	<line class="st11" x1="80.8" y1="169.8" x2="80.8" y2="203"/>
</g>
<g id="antena_4">
	<g>
		<path class="st10" d="M162.8,162.3c0.2-3.9,0-7.8,0.1-11.8c0.1-2.1,0.9-2.7,1.9-2.7c1.4,0,3.4,0,4.9-0.1c2.4-0.1,2.4-0.1,4.3-0.2
			c0.3,0,1.6,0,1.8,0c0.3,0,0.2-3,0.2-3.7c0-3.1,0-6.1,0-9.1c0-7.1,0.3-14.1,0.2-21.2c0-1.2-0.1-2.3-0.7-3.3
			c-1.9-3.1-2.2-6.6-0.9-10.5c1-3.2,3.6-4.7,5.7-3.3c1.6,1,2.8,3,3.1,6.1c0.3,3.3-0.2,6.3-1.9,8.2c-0.5,0.6-0.7,1.3-0.7,2.3
			c0.1,10.4,0,20.8,0.2,31.1c0,0.6,0,2.5,0.4,2.9c0.3,0.4,1.1,0.3,1.5,0.3c0.9,0,2.2,0,2.9,0c2-0.1,2.3,0,3.3,0s2.1-0.1,3.3-0.1
			c1.7,0,1.3,1,1.3,4.5c0,3.1,0,5.8,0,8.8"/>
		<circle class="st31" cx="178.7" cy="103.3" r="7.3"/>
	</g>
</g>
<g id="antena_5">
	<g>
		<path class="st31" d="M84.4,166v36.3h-7c-2.9,0-5.2-2.5-5.2-5.6v-25.1c0-1.8,0.8-3.4,2-4.4V111c0.8,0.5,1.8,0.8,2.8,0.8
			s2-0.3,2.8-0.8v55H84.4z"/>
		<path class="st31" d="M82.7,106.3c0,2.2-1.2,4.2-2.9,5.2c-0.8,0.5-1.8,0.8-2.8,0.8s-2-0.3-2.8-0.8c-1.7-1-2.9-3-2.9-5.2
			c0-3.3,2.5-6,5.7-6C80.2,100.3,82.7,103,82.7,106.3z"/>
	</g>
	<g>
		<path class="st31" d="M276,166v36.3h7c2.9,0,5.2-2.5,5.2-5.6v-25.1c0-1.8-0.8-3.4-2-4.4V111c-0.8,0.5-1.8,0.8-2.8,0.8
			s-2-0.3-2.8-0.8v55H276z"/>
		<path class="st31" d="M277.7,106.3c0,2.2,1.2,4.2,2.9,5.2c0.8,0.5,1.8,0.8,2.8,0.8s2-0.3,2.8-0.8c1.7-1,2.9-3,2.9-5.2
			c0-3.3-2.5-6-5.7-6C280.3,100.3,277.7,103,277.7,106.3z"/>
	</g>
</g>
<g id="head_1">
	<path class="st10" d="M276,159.6v45.1c0,4.6-3.7,8.3-8.3,8.3h-175c-4.6,0-8.3-3.7-8.3-8.3v-45.1c0-4.6,3.7-8.3,8.3-8.3h175.1
		C272.3,151.3,276,155,276,159.6z"/>
</g>
<g id="head_2">
	<path class="st10" d="M205.9,181.7c0.5,15.1-12.2,28.3-28.2,28.1c-15.7-0.2-27.8-12.3-27.9-28.1c-0.1-15.6,12.3-28.2,28.6-28.2
		C193.3,153.7,206.5,166.4,205.9,181.7z M178,208.2c15,0.3,26.7-11.9,26.7-26.5c0-14-11.2-27.5-28.9-26.5
		c-12.2,0.7-25,11.3-24.4,27.7C151.9,196.1,162.7,208.5,178,208.2z"/>
	<path class="st31" d="M273.3,167.9v32.5c0.2,0,0.3,0,0.5,0h7.2c1.9,0,3.4-1.4,3.4-3.2v-26.1c0-0.8-0.3-1.5-0.7-2V139
		c0-1.1-1-2-2.2-2h-0.4c-1.2,0-2.2,0.9-2.2,2v28.8h-5.2C273.7,167.9,273.5,167.9,273.3,167.9z"/>
	<path class="st31" d="M82.4,167.9h-5.2V139c0-1.1-1-2-2.2-2h-0.4c-1.2,0-2.2,0.9-2.2,2v30.1c-0.5,0.6-0.7,1.3-0.7,2v26.1
		c0,1.8,1.5,3.2,3.4,3.2h7.2c0.2,0,0.3,0,0.5,0v-32.5C82.7,167.9,82.5,167.9,82.4,167.9z"/>
	<path class="st10" d="M273.3,165.9v35.6c0,1.9-1.8,3.4-4,3.4h-66.2c6.4-6.2,10.3-14.3,10.3-23.1c0-7.1-2.5-13.7-6.8-19.3
		c0,0,0,0-0.1-0.1h62.8C271.5,162.4,273.3,164,273.3,165.9z"/>
	<path class="st10" d="M212.9,181.7c0,8.9-3.3,17-8.8,23.1c0,0,0,0-0.1,0.1c-6.4,7.2-15.7,11.8-26.1,11.8s-19.7-4.5-26.1-11.8
		c-5.5-6.2-8.8-14.3-8.8-23.2c0-7.1,2.1-13.7,5.8-19.3c6.3-9.5,17-15.7,29.2-15.7s22.9,6.2,29.1,15.6c0,0,0,0,0,0.1
		C210.7,168,212.9,174.6,212.9,181.7z"/>
	<path class="st10" d="M213,181.7c0,8.9-3.3,17-8.8,23.2c-6.4,7.2-15.7,11.8-26.1,11.8c-10.4,0-19.7-4.5-26.1-11.8
		c-5.5-6.2-8.8-14.3-8.8-23.2c0-7.1,2.1-13.7,5.8-19.3c6.3-9.5,17-15.7,29.2-15.7s22.9,6.2,29.2,15.7
		C210.9,167.9,213,174.6,213,181.7z"/>
	<circle class="st31" cx="178" cy="181.7" r="28"/>
	<path class="st10" d="M151.9,204.9H86.3c-1.9,0-3.4-1.5-3.4-3.4v-35.6c0-1.9,1.5-3.4,3.4-3.4h62.6c-3.7,5.5-5.8,12.1-5.8,19.3
		C143.1,190.6,146.4,198.7,151.9,204.9z"/>
	<line class="st11" x1="77.9" y1="170.7" x2="77.9" y2="197.9"/>
	<line class="st11" x1="278.3" y1="170.7" x2="278.3" y2="197.9"/>
</g>
<g id="head_01">
	<path class="st10" d="M270.4,192.1c0.1-2.9,0-6.3,0.1-9.6c0.1-2.5,0.2-5,0-7.5c-0.2-2.1,1.4-3.2,3.1-2.2c3.3,1.9,6,4.5,7.1,8.4
		c0.2,0.7,0.2,1.5,0.2,2.2c0,2.9-0.2,5.9,0,8.8c0.3,4.3-1.8,7.3-4.8,9.9c-0.8,0.7-1.6,1.3-2.6,1.8c-1.5,0.7-2.5,0.3-2.9-1.4
		c-0.2-0.7-0.3-1.4-0.3-2.1C270.4,197.9,270.4,195.2,270.4,192.1z"/>
	<path class="st10" d="M271.3,165.9v44.5c0,2.1-1.9,3.7-4.2,3.7h-174c-2.3,0-4.2-1.7-4.2-3.7v-44.5c0-2.1,1.9-3.8,4.2-3.8H267
		C269.4,162.1,271.3,163.8,271.3,165.9z"/>
	<path class="st33" d="M123.8,163.6v36.1c0,1,1.3,1.9,2.9,1.9h109.5c1.6,0,2.9-0.8,2.9-1.9v-36.1"/>
	<path class="st34" d="M251,184.2h-64.9c-0.9,0-1.6-0.7-1.6-1.6V176c0-0.9,0.7-1.6,1.6-1.6H251c0.9,0,1.6,0.7,1.6,1.6v6.6
		C252.6,183.5,251.9,184.2,251,184.2z"/>
	<path class="st34" d="M173.1,184.2h-64.8c-0.9,0-1.6-0.7-1.6-1.6v-6.5c0-0.9,0.7-1.6,1.6-1.6h64.8c0.9,0,1.6,0.7,1.6,1.6v6.5
		C174.7,183.5,174,184.2,173.1,184.2z"/>
	<path class="st35" d="M271.8,167.8v39.6c0.2,0,0.3,0,0.5,0h7.2c1.9,0,3.4-1.8,3.4-3.9v-31.8c0-0.9-0.3-1.8-0.7-2.5v-36.6
		c0-1.4-1-2.5-2.2-2.5h-0.4c-1.2,0-2.2,1.1-2.2,2.5v35.1h-5.2C272.1,167.8,271.9,167.8,271.8,167.8z"/>
	<line class="st36" x1="275.7" y1="171.2" x2="275.7" y2="204.4"/>
	<path class="st35" d="M88.6,167.8h-5.2v-35.1c0-1.4-1-2.5-2.2-2.5h-0.4c-1.2,0-2.2,1.1-2.2,2.5v36.6c-0.5,0.7-0.7,1.5-0.7,2.5v31.8
		c0,2.2,1.5,3.9,3.4,3.9h7.2c0.2,0,0.3,0,0.5,0v-39.6C89,167.8,88.8,167.8,88.6,167.8z"/>
	<line class="st36" x1="85.2" y1="171.2" x2="85.2" y2="204.4"/>
</g>
<g id="head_21">
	<path class="st22" d="M267.2,193.7c0.1-2.9,0-6.3,0.1-9.6c0.1-2.5,0.2-5,0-7.5c-0.2-2.1,1.4-3.2,3.1-2.2c3.3,1.9,6,4.5,7.1,8.4
		c0.2,0.7,0.2,1.5,0.2,2.2c0,2.9-0.2,5.9,0,8.8c0.3,4.3-1.8,7.3-4.8,9.9c-0.8,0.7-1.6,1.3-2.6,1.8c-1.5,0.7-2.5,0.3-2.9-1.4
		c-0.2-0.7-0.3-1.4-0.3-2.1C267.2,199.4,267.2,196.8,267.2,193.7z"/>
	<path class="st37" d="M85.2,169.3H80v-35.1c0-1.4-1-2.5-2.2-2.5h-0.4c-1.2,0-2.2,1.1-2.2,2.5v36.6c-0.5,0.7-0.7,1.5-0.7,2.5V205
		c0,2.2,1.5,3.9,3.4,3.9h7.2c0.2,0,0.3,0,0.5,0v-39.6C85.5,169.3,85.4,169.3,85.2,169.3z"/>
	<path class="st22" d="M268,167.4v44.5c0,2.1-1.9,3.7-4.2,3.7H89.9c-2.3,0-4.2-1.7-4.2-3.7v-44.5c0-2.1,1.9-3.8,4.2-3.8h173.9
		C266.2,163.7,268,165.3,268,167.4z"/>
	<path class="st38" d="M247.8,185.8h-64.9c-0.9,0-1.6-0.7-1.6-1.6v-6.6c0-0.9,0.7-1.6,1.6-1.6h64.9c0.9,0,1.6,0.7,1.6,1.6v6.6
		C249.4,185,248.7,185.8,247.8,185.8z"/>
	<path class="st38" d="M169.8,185.8H105c-0.9,0-1.6-0.7-1.6-1.6v-6.5c0-0.9,0.7-1.6,1.6-1.6h64.8c0.9,0,1.6,0.7,1.6,1.6v6.5
		C171.5,185,170.7,185.8,169.8,185.8z"/>
	<line class="st25" x1="81.8" y1="172.7" x2="81.8" y2="205.9"/>
	<path class="st39" d="M105.5,214.2v-14.1c0-1.8,1.6-3.2,3.5-3.2h134.8c1.9,0,3.5,1.5,3.5,3.2v14.1"/>
	<path class="st37" d="M268.5,169.4V209c0.2,0,0.3,0,0.5,0h7.2c1.9,0,3.4-1.8,3.4-3.9v-31.8c0-0.9-0.3-1.8-0.7-2.5v-36.6
		c0-1.4-1-2.5-2.2-2.5h-0.4c-1.2,0-2.2,1.1-2.2,2.5v35.1H269C268.9,169.3,268.7,169.3,268.5,169.4z"/>
	<line class="st25" x1="272.5" y1="172.7" x2="272.5" y2="205.9"/>
</g>
<g id="head_22">
	<path class="st10" d="M266.6,193.3c0.1-2.9,0-6.3,0.1-9.6c0.1-2.5,0.2-5,0-7.5c-0.2-2.1,1.4-3.2,3.1-2.2c3.3,1.9,6,4.5,7.1,8.4
		c0.2,0.7,0.2,1.5,0.2,2.2c0,2.9-0.2,5.9,0,8.8c0.3,4.3-1.8,7.3-4.8,9.9c-0.8,0.7-1.6,1.3-2.6,1.8c-1.5,0.7-2.5,0.3-2.9-1.4
		c-0.2-0.7-0.3-1.4-0.3-2.1C266.6,199,266.6,196.4,266.6,193.3z"/>
	<path class="st10" d="M267.5,167v44.5c0,2.1-1.9,3.7-4.2,3.7H89.4c-2.3,0-4.2-1.7-4.2-3.7V167c0-2.1,1.9-3.8,4.2-3.8h173.9
		C265.6,163.3,267.5,164.9,267.5,167z"/>
	<path class="st33" d="M120,164.7v36.1c0,1,1.3,1.9,2.9,1.9h109.5c1.6,0,2.9-0.8,2.9-1.9v-36.1"/>
	<path class="st34" d="M247.2,185.4h-64.9c-0.9,0-1.6-0.7-1.6-1.6v-6.6c0-0.9,0.7-1.6,1.6-1.6h64.9c0.9,0,1.6,0.7,1.6,1.6v6.6
		C248.8,184.6,248.1,185.4,247.2,185.4z"/>
	<path class="st34" d="M169.3,185.4h-64.8c-0.9,0-1.6-0.7-1.6-1.6v-6.5c0-0.9,0.7-1.6,1.6-1.6h64.8c0.9,0,1.6,0.7,1.6,1.6v6.5
		C170.9,184.6,170.2,185.4,169.3,185.4z"/>
	<path class="st35" d="M268,169v39.6c0.2,0,0.3,0,0.5,0h7.2c1.9,0,3.4-1.8,3.4-3.9v-31.8c0-0.9-0.3-1.8-0.7-2.5v-36.6
		c0-1.4-1-2.5-2.2-2.5h-0.4c-1.2,0-2.2,1.1-2.2,2.5v35.1h-5.2C268.3,168.9,268.1,168.9,268,169z"/>
	<line class="st36" x1="271.9" y1="172.3" x2="271.9" y2="205.5"/>
	<path class="st35" d="M84.8,168.9h-5.2v-35.1c0-1.4-1-2.5-2.2-2.5H77c-1.2,0-2.2,1.1-2.2,2.5v36.6c-0.5,0.7-0.7,1.5-0.7,2.5v31.8
		c0,2.2,1.5,3.9,3.4,3.9h7.2c0.2,0,0.3,0,0.5,0V169C85.2,168.9,85,168.9,84.8,168.9z"/>
	<line class="st36" x1="81.4" y1="172.3" x2="81.4" y2="205.5"/>
</g>
<g id="head_23">
	<path class="st40" d="M280.8,173.5v26.7c0,3.3-2.7,6.1-6.1,6.1h-10.3v-38.8h10.3c1.6,0,3,0.6,4.1,1.6
		C280.1,170.1,280.8,171.7,280.8,173.5z"/>
	<path class="st40" d="M86.1,165.5v43h-8.9c-3.6,0-6.6-3-6.6-6.6v-29.7c0-2.1,1-4,2.6-5.2c1.1-0.9,2.5-1.4,4.1-1.4h8.8V165.5z"/>
	<path class="st19" d="M266.5,161.9v50.2c0,2.3-1.9,4.2-4.2,4.2h-174c-2.3,0-4.2-1.9-4.2-4.2v-50.2c0-2.3,1.9-4.2,4.2-4.2h173.9
		C264.6,157.7,266.5,159.6,266.5,161.9z"/>
	<path class="st21" d="M116.4,160.1v42c0,1.2,1.3,2.2,2.9,2.2h109.5c1.6,0,2.9-1,2.9-2.2v-42"/>
	<path class="st41" d="M237.7,186.5H108.4c-2.3,0-4.2-1.9-4.2-4.2v-6.9c0-2.3,1.9-4.2,4.2-4.2h129.3c2.3,0,4.2,1.9,4.2,4.2v6.9
		C241.8,184.6,240,186.5,237.7,186.5z"/>
</g>
<g id="head_24">
	<path class="st42" d="M204.9,189.2c0.5,15.1-12.2,28.3-28.2,28.1c-15.7-0.2-27.8-12.3-27.9-28.1c-0.1-15.6,12.3-28.2,28.6-28.2
		C192.3,161.1,205.5,173.8,204.9,189.2z M177,215.6c15,0.3,26.7-11.9,26.7-26.5c0-14-11.2-27.5-28.9-26.5
		c-12.2,0.7-25,11.3-24.4,27.7C150.8,203.5,161.7,215.9,177,215.6z"/>
	<path class="st42" d="M211.8,189.2c0,8.9-3.3,17-8.8,23.1c0,0,0,0-0.1,0.1c-6.4,7.2-15.7,11.8-26.1,11.8s-19.7-4.5-26.1-11.8
		c-5.5-6.2-8.8-14.3-8.8-23.2c0-7.1,2.1-13.7,5.8-19.3c6.3-9.5,17-15.7,29.2-15.7s22.9,6.2,29.1,15.6c0,0,0,0,0,0.1
		C209.7,175.4,211.8,182,211.8,189.2z"/>
	<path class="st42" d="M211.9,189.1c0,8.9-3.3,17-8.8,23.2c-6.4,7.2-15.7,11.8-26.1,11.8c-10.4,0-19.7-4.5-26.1-11.8
		c-5.5-6.2-8.8-14.3-8.8-23.2c0-7.1,2.1-13.7,5.8-19.3c6.3-9.5,17-15.7,29.2-15.7s22.9,6.2,29.2,15.7
		C209.8,175.4,211.9,182,211.9,189.1z"/>
	<circle class="st43" cx="177" cy="189.2" r="28"/>
	<path class="st42" d="M150.9,212.3H85.3c-1.9,0-3.4-1.5-3.4-3.4v-35.6c0-1.9,1.5-3.4,3.4-3.4h62.6c-3.7,5.5-5.8,12.1-5.8,19.3
		C142.1,198,145.4,206.1,150.9,212.3z"/>
	<path class="st42" d="M263.1,173.3v35.6c0,1.9-1.5,3.4-3.4,3.4h-56.5c5.5-6.2,8.8-14.3,8.8-23.1c0-7.1-2.1-13.7-5.8-19.3
		c0,0,0,0,0-0.1h53.6C261.5,169.9,263.1,171.4,263.1,173.3z"/>
	<path class="st43" d="M81.4,175.5h-4.8v-27.9c0-1.1-0.9-2-2-2h-0.3c-1.1,0-2,0.9-2,2v29.1c-0.4,0.5-0.7,1.2-0.7,2V204
		c0,1.7,1.4,3.1,3.1,3.1h6.6c0.2,0,0.3,0,0.5,0v-31.5C81.7,175.5,81.5,175.5,81.4,175.5z"/>
	<path class="st43" d="M263.1,175v31.5c0.1,0,0.3,0,0.5,0h6.6c1.7,0,3.1-1.4,3.1-3.1v-25.3c0-0.7-0.3-1.4-0.7-2V147c0-1.1-0.9-2-2-2
		h-0.3c-1.1,0-2,0.9-2,2v28h-4.8C263.4,175,263.3,175,263.1,175z"/>
</g>
<g id="head_25">
	<line class="st44" x1="275.9" y1="186.6" x2="294.6" y2="186.1"/>
	<line class="st44" x1="78.9" y1="186.6" x2="60.2" y2="186.1"/>
	<path class="st15" d="M268.6,161.2v50.2c0,2.3-1.9,4.2-4.2,4.2H90.5c-2.3,0-4.2-1.9-4.2-4.2v-50.2c0-2.3,1.9-4.2,4.2-4.2h173.9
		C266.7,157,268.6,158.9,268.6,161.2z"/>
	<path class="st45" d="M244.9,201.2H109.4c-9.8,0-17.8-8-17.8-17.8l0,0c0-9.8,8-17.8,17.8-17.8h135.5c9.8,0,17.8,8,17.8,17.8l0,0
		C262.7,193.2,254.8,201.2,244.9,201.2z"/>
	<path class="st15" d="M195.5,208.7h-36.4c-0.3,0-0.5-0.1-0.5-0.1l0,0c0-0.1,0.2-0.1,0.5-0.1h36.4c0.3,0,0.5,0.1,0.5,0.1l0,0
		C196,208.7,195.8,208.7,195.5,208.7z"/>
	<path class="st46" d="M268.6,189.9c0.1-2.4,0-5.2,0.1-8c0-2.1-0.2-5-0.1-7.5c0.5-1.2,1.3-1.3,2.4-0.7c2.6,1.4,4,1.8,4.7,5.1
		c0.1,0.6,0.1,3.4,0.1,4c0,2.4-0.1,7.4,0,9.8c-0.1,3.6-1.1,3.7-3.3,5.7l0,0c-0.7,0.6-0.9,0.7-1.5,0.9c-0.5,0.2-1,0.2-1.4-0.1
		c-0.6-0.3-0.9-0.8-1.1-1.8c0-0.7,0-0.9,0-2.1C268.6,193.1,268.6,192.5,268.6,189.9z"/>
	<ellipse class="st46" cx="294.6" cy="186.1" rx="3.8" ry="4.1"/>
	<path class="st46" d="M86.2,195.3c0.1,1.2,0.1,1.4,0,2.1c-0.2,1-0.5,1.5-1.1,1.8c-0.4,0.2-1,0.2-1.4,0.1c-0.6-0.2-0.8-0.3-1.5-0.9
		l0,0c-2.2-2.1-3.1-2.1-3.3-5.7c0.1-2.4,0-7.4,0-9.8c0-0.6,0-3.4,0.1-4c0.7-3.3,2.1-3.7,4.7-5.1c1-0.6,1.9-0.4,2.4,0.7
		c0.1,2.5-0.2,5.5-0.1,7.5c0.1,2.8,0,5.6,0.1,8C86.2,192.5,86.2,193.1,86.2,195.3z"/>
	<ellipse class="st46" cx="60.2" cy="186.1" rx="3.8" ry="4.1"/>
</g>
<g id="head_26">
	<path class="st29" d="M285.3,171.7V197c0,4.2-2.4,7.7-5.3,7.7h-4.9c-0.6,0-1.1-0.7-1.1-1.6v-35.9c0-0.9,0.5-1.6,1.1-1.6h2.9
		c0.6,0,1.1-0.7,1.1-1.6v-17.9c0-2,1.1-3.6,2.5-3.6l0,0c1.4,0,2.5,1.6,2.5,3.6v20.4c0,0.4,0.1,0.8,0.3,1.1
		C284.9,168.7,285.3,170.1,285.3,171.7z"/>
	<path class="st29" d="M90.5,163.7v43.2h-7c-2.9,0-5.2-3-5.2-6.7v-29.9c0-2.1,0.8-4,2-5.3V98.2c0.8,0.6,1.8,0.9,2.8,0.9
		s2-0.3,2.8-0.9v65.4L90.5,163.7L90.5,163.7z"/>
	<path class="st29" d="M274,160.1v50.5c0,2.3-1.9,4.2-4.2,4.2h-175c-2.3,0-4.2-1.9-4.2-4.2v-50.5c0-2.3,1.9-4.3,4.2-4.3h175
		C272.1,155.8,274,157.7,274,160.1z"/>
	<path class="st30" d="M245,184.8H115c-2.3,0-4.2-1.9-4.2-4.2v-6.9c0-2.3,1.9-4.2,4.2-4.2h130c2.3,0,4.2,1.9,4.2,4.2v6.9
		C249.2,182.9,247.3,184.8,245,184.8z"/>
	<path class="st30" d="M132.4,214.3v-13.5c0-1.6,1.3-2.8,2.8-3.7H234c1.6,0.9,2.8,2.1,2.8,3.7v13.5"/>
	<path class="st4" d="M88.8,94.2c0,2.2-1.2,4.2-2.9,5.2c-0.8,0.5-1.8,0.8-2.8,0.8s-2-0.3-2.8-0.8c-1.7-1-2.9-3-2.9-5.2
		c0-3.3,2.5-6,5.7-6C86.3,88.2,88.8,90.9,88.8,94.2z"/>
</g>
<g id="head_27">
	<path class="st26" d="M206.3,189.6c0.5,15.1-12.2,28.3-28.2,28.1c-15.7-0.2-27.8-12.3-27.9-28.1c-0.1-15.6,12.3-28.2,28.6-28.2
		C193.6,161.6,206.9,174.3,206.3,189.6z M178.4,216.1c15,0.3,26.7-11.9,26.7-26.5c0-14-11.2-27.5-28.9-26.5
		c-12.2,0.7-25,11.3-24.4,27.7C152.2,204,163.1,216.4,178.4,216.1z"/>
	<path class="st27" d="M273.7,175.8v32.5c0.2,0,0.3,0,0.5,0h7.2c1.9,0,3.4-1.4,3.4-3.2V179c0-0.8-0.3-1.5-0.7-2v-30.1
		c0-1.1-1-2-2.2-2h-0.4c-1.2,0-2.2,0.9-2.2,2v28.8h-5.2C274,175.8,273.8,175.8,273.7,175.8z"/>
	<path class="st27" d="M82.7,175.8h-5.2V147c0-1.1-1-2-2.2-2h-0.4c-1.2,0-2.2,0.9-2.2,2v30c-0.5,0.6-0.7,1.3-0.7,2v26.1
		c0,1.8,1.5,3.2,3.4,3.2h7.2c0.2,0,0.3,0,0.5,0v-32.5C83,175.8,82.9,175.8,82.7,175.8z"/>
	<path class="st26" d="M273.7,173.8v35.6c0,1.9-1.8,3.4-4,3.4h-66.2c6.4-6.2,10.3-14.3,10.3-23.1c0-7.1-2.5-13.7-6.8-19.3
		c0,0,0,0-0.1-0.1h62.8C271.9,170.3,273.7,171.9,273.7,173.8z"/>
	<path class="st26" d="M213.2,189.6c0,8.9-3.3,17-8.8,23.1c0,0,0,0-0.1,0.1c-6.4,7.2-15.7,11.8-26.1,11.8
		c-10.4,0-19.7-4.5-26.1-11.8c-5.5-6.2-8.8-14.3-8.8-23.2c0-7.1,2.1-13.7,5.8-19.3c6.3-9.5,17-15.7,29.2-15.7s22.9,6.2,29.1,15.6
		c0,0,0,0,0,0.1C211.1,175.9,213.2,182.5,213.2,189.6z"/>
	<path class="st26" d="M213.3,189.6c0,8.9-3.3,17-8.8,23.2c-6.4,7.2-15.7,11.8-26.1,11.8c-10.4,0-19.7-4.5-26.1-11.8
		c-5.5-6.2-8.8-14.3-8.8-23.2c0-7.1,2.1-13.7,5.8-19.3c6.3-9.5,17-15.7,29.2-15.7s22.9,6.2,29.2,15.7
		C211.2,175.8,213.3,182.5,213.3,189.6z"/>
	<circle class="st27" cx="178.4" cy="189.6" r="28"/>
	<path class="st26" d="M152.2,212.8H86.7c-1.9,0-3.4-1.5-3.4-3.4v-35.6c0-1.9,1.5-3.4,3.4-3.4h62.6c-3.7,5.5-5.8,12.1-5.8,19.3
		C143.4,198.5,146.8,206.6,152.2,212.8z"/>
	<line class="st47" x1="78.2" y1="178.6" x2="78.2" y2="205.8"/>
	<line class="st47" x1="278.6" y1="178.6" x2="278.6" y2="205.8"/>
</g>
<g id="head_3">
	<path class="st10" d="M269.1,164v44.5c0,2.1-1.9,3.7-4.2,3.7H91c-2.3,0-4.2-1.7-4.2-3.7V164c0-2.1,1.9-3.8,4.2-3.8h173.9
		C267.2,160.3,269.1,162,269.1,164z"/>
</g>
<g id="mouth_1">
	<path class="st10" d="M109.3,211.2v-14.1c0-1.8,1.6-3.2,3.5-3.2h134.8c1.9,0,3.5,1.5,3.5,3.2v14.1"/>
</g>
<g id="mouth_2">
	<path class="st48" d="M200.9,201.6c-2.2,0.9-4.3,0.8-6.5-0.2c-3.2-1.5-6.3-2.8-9.5-4.3c-1.2-0.5-2.3-0.6-3.6-0.1
		c-3.8,1.6-7.6,3-11.3,4.6c-1.7,0.7-3.4,0.7-5-0.1c-3.5-1.6-7-3.1-10.4-4.7c-1.6-0.8-2.9-0.8-4.5,0c-3.3,1.6-6.5,3.2-9.8,4.7
		c-1.1,0.5-2.3,1-3.6,1c-1,0-1.9-0.4-2.8-0.9c-3-1.7-6-3.3-8.9-5.1c-1-0.6-2.5-1.4-1.8-2.9c0.7-1.4,2.2-0.8,3.4-0.4
		c2.8,1,5.4,2.6,8,4c1.5,0.9,2.9,0.9,4.5,0.1c3.3-1.6,6.6-3,9.9-4.6c2.2-1.1,4.1-1.3,6.3-0.2c3.5,1.7,7.2,3.1,10.7,4.7
		c1,0.5,2,0.5,3,0.1c3.4-1.4,6.9-2.6,10.3-4.1c2.7-1.2,5.3-1.2,8,0.1c2.9,1.4,6,2.6,8.9,4c1.6,0.7,3.1,0.3,4.6-0.3
		c4-1.5,7.9-3,11.8-4.6c2.4-1,4.6-0.8,6.8,0.4c2.7,1.5,5.5,3,8.3,4.6c1,0.6,2.3,1.1,1.7,2.7c-0.5,1.1-2.2,1.6-3.6,1
		c-1.5-0.6-3-1.2-4.2-2.1c-3.9-3-7.7-3.5-12.1-1"/>
</g>
<g id="mouth_3">
	<path class="st49" d="M120.7,162.3v36.1c0,1,1.3,1.9,2.9,1.9H233c1.6,0,2.9-0.8,2.9-1.9v-36.1"/>
</g>
<g id="mouth_4">
	<path class="st10" d="M107.3,210.3v-14.1c0-1.8,1.6-3.2,3.5-3.2h134.8c1.9,0,3.5,1.5,3.5,3.2v14.1"/>
</g>
<g id="eyes_1">
	<path class="st10" d="M249.6,194.6H106.9c-2.8,0-5-2.2-5-5v-9.8c0-2.8,2.2-5,5-5h142.7c2.8,0,5,2.2,5,5v9.8
		C254.6,192.4,252.4,194.6,249.6,194.6z"/>
	<circle class="st11" cx="136" cy="185.1" r="3"/>
	<circle class="st11" cx="165.7" cy="185.1" r="3"/>
	<circle class="st11" cx="194.6" cy="185.1" r="3"/>
	<circle class="st11" cx="221.6" cy="185.1" r="3"/>
</g>
<g id="eyes_2">
	<path class="st10" d="M239.1,193.7H116.8c-2.5,0-4.5-2-4.5-4.5v-9.8c0-2.5,2-4.5,4.5-4.5h122.3c2.5,0,4.5,2,4.5,4.5v9.8
		C243.6,191.6,241.6,193.7,239.1,193.7z"/>
</g>
<g id="eyes_3">
	<path class="st10" d="M249.4,185.8h-64.9c-0.9,0-1.6-0.7-1.6-1.6v-6.6c0-0.9,0.7-1.6,1.6-1.6h64.9c0.9,0,1.6,0.7,1.6,1.6v6.6
		C251,185.1,250.3,185.8,249.4,185.8z"/>
	<path class="st10" d="M171.4,185.8h-64.8c-0.9,0-1.6-0.7-1.6-1.6v-6.5c0-0.9,0.7-1.6,1.6-1.6h64.8c0.9,0,1.6,0.7,1.6,1.6v6.5
		C173.1,185,172.3,185.8,171.4,185.8z"/>
</g>
<g id="eyes_4">
	<path class="st50" d="M246.9,196.1H111.4c-9.8,0-17.8-8-17.8-17.8l0,0c0-9.8,8-17.8,17.8-17.8h135.5c9.8,0,17.8,8,17.8,17.8l0,0
		C264.7,188.1,256.7,196.1,246.9,196.1z"/>
</g>
<g id="_x30__frame__x5B_ON_x5D_">
	<circle class="st51" cx="175.3" cy="174.8" r="152.4"/>
</g>
</svg>
