<?xml version="1.0" encoding="utf-8"?>
<!-- Generator: Adobe Illustrator 23.1.0, SVG Export Plug-In . SVG Version: 6.00 Build 0)  -->
<svg version="1.1" xmlns="http://www.w3.org/2000/svg" xmlns:xlink="http://www.w3.org/1999/xlink" x="0px" y="0px"
	 viewBox="0 0 360.8 360.8" style="enable-background:new 0 0 360.8 360.8;" xml:space="preserve">
<style type="text/css">
	.st0{fill:#D8D8D8;}
	.st1{fill:#FFFFFF;}
	.st2{fill:none;stroke:#3E58A7;stroke-width:4;stroke-miterlimit:10;}
	.st3{fill:#FFFFFF;stroke:#3E58A7;stroke-width:3;stroke-miterlimit:10;}
	.st4{fill:#FFFFFF;stroke:#3E58A7;stroke-width:2;stroke-miterlimit:10;}
	.st5{fill:#FFFFFF;stroke:#3E58A7;stroke-miterlimit:10;}
	.st6{fill:#FFFFFF;stroke:#3E58A7;stroke-width:1.2;stroke-miterlimit:10;}
	.st7{fill:none;stroke:#3E58A7;stroke-miterlimit:10;}
	.st8{fill:none;stroke:#767AA5;stroke-width:4;stroke-linecap:round;stroke-linejoin:round;stroke-miterlimit:10;}
	.st9{fill:none;stroke:#3E58A7;stroke-width:3;stroke-miterlimit:10;}
	.st10{fill:none;stroke:#3E58A7;stroke-width:7;stroke-miterlimit:10;}
	.st11{fill:#3E58A7;}
	.st12{fill:#FFFFFF;stroke:#3E58A7;stroke-width:4;stroke-miterlimit:10;}
	.st13{fill:none;}
	.st14{fill:none;stroke:#3E58A7;stroke-width:2;stroke-miterlimit:10;}
	.st15{fill:#131423;stroke:#2D2F47;stroke-miterlimit:10;}
	.st16{fill:#131423;}
	.st17{fill:#FFFFFF;stroke:#2D2F47;stroke-miterlimit:10;}
	.st18{fill:none;stroke:#131423;stroke-width:10;stroke-miterlimit:10;}
	.st19{fill:#D6AB4F;stroke:url(#);stroke-miterlimit:10;}
	.st20{fill:#FFFFFF;stroke:#2B4CA1;stroke-width:2;stroke-miterlimit:10;}
	.st21{fill:#FFFFFF;stroke:#2B4CA1;stroke-width:0;stroke-miterlimit:10;}
	.st22{fill:#FFFFFF;stroke:#2B4CA1;stroke-width:3;stroke-miterlimit:10;}
	.st23{fill:#DEECC4;stroke:#2B4CA1;stroke-width:2;stroke-miterlimit:10;}
	.st24{fill:none;stroke:#FFFFFF;stroke-width:8;stroke-miterlimit:10;}
	.st25{fill:#DEECC4;stroke:#2B4CA1;stroke-width:3;stroke-miterlimit:10;}
	.st26{fill:#2B4CA1;}
	.st27{fill:none;stroke:#2B4CA1;stroke-miterlimit:10;}
	.st28{fill:none;stroke:#3E58A7;stroke-width:0.4;stroke-miterlimit:10;}
	.st29{fill:#DEECC4;stroke:#2B4CA1;stroke-miterlimit:10;}
	.st30{fill:#C44549;}
	.st31{fill:#FFFFFF;stroke:#827E9D;stroke-width:3;stroke-miterlimit:10;}
	.st32{fill:#FFFFFF;stroke:#827E9D;stroke-width:2;stroke-miterlimit:10;}
	.st33{fill:#FFFFFF;stroke:#827E9D;stroke-miterlimit:10;}
	.st34{fill:#227EB3;stroke:#FFFFFF;stroke-miterlimit:10;}
	.st35{fill:#E1DFBC;stroke:#21262E;stroke-width:3;stroke-miterlimit:10;}
	.st36{fill:#FFFFFF;stroke:#21262E;stroke-width:3;stroke-miterlimit:10;}
	.st37{fill:#C44549;stroke:#21262E;stroke-width:3;stroke-miterlimit:10;}
	.st38{fill:#E1DFBC;stroke:#21262E;stroke-width:2;stroke-miterlimit:10;}
	.st39{fill:#C44549;stroke:#21262E;stroke-width:2;stroke-miterlimit:10;}
	.st40{fill:#504F75;}
	.st41{fill:#FFFFFF;stroke:#2E323B;stroke-width:0;stroke-miterlimit:10;}
	.st42{fill:#DFDEDF;stroke:#2E323B;stroke-width:3;stroke-miterlimit:10;}
	.st43{fill:#FFFFFF;stroke:#2E323B;stroke-width:3;stroke-miterlimit:10;}
	.st44{fill:#E4BD4F;stroke:#2E323B;stroke-width:2;stroke-miterlimit:10;}
	.st45{fill:#DFDEDF;stroke:#2E323B;stroke-width:2;stroke-miterlimit:10;}
	.st46{fill:#E4BD4F;stroke:#2E323B;stroke-width:3;stroke-miterlimit:10;}
	.st47{fill:#B7D374;stroke:#2E323B;stroke-width:3;stroke-miterlimit:10;}
	.st48{fill:#72C59D;}
	.st49{fill:#65B78F;}
	.st50{fill:#252735;stroke:#4D5176;stroke-width:0;stroke-miterlimit:10;}
	.st51{fill:#252735;stroke:#4D5176;stroke-width:2;stroke-miterlimit:10;}
	.st52{fill:#252735;stroke:#4D5176;stroke-width:3;stroke-miterlimit:10;}
	.st53{fill:#252735;stroke:#252735;stroke-width:5;stroke-miterlimit:10;}
	.st54{fill:#252735;stroke:#4D5176;stroke-miterlimit:10;}
	.st55{fill:#B5D077;stroke:#4D5176;stroke-width:3;stroke-miterlimit:10;}
	.st56{fill:#252735;stroke:#4D5176;stroke-width:1.8;stroke-miterlimit:10;}
	.st57{fill:#3B6FAD;stroke:url(#);stroke-miterlimit:10;}
	.st58{fill:url(#);stroke:url(#);stroke-miterlimit:10;}
	.st59{fill:#A9373A;stroke:#212121;stroke-width:3;stroke-miterlimit:10;}
	.st60{fill:#A9373A;stroke:#212121;stroke-width:0;stroke-miterlimit:10;}
	.st61{fill:#A9373A;stroke:#212121;stroke-width:2;stroke-miterlimit:10;}
	.st62{fill:#E3DEB9;stroke:#212121;stroke-width:2;stroke-miterlimit:10;}
	.st63{fill:#A9373A;stroke:#212121;stroke-miterlimit:10;}
	.st64{fill:#E3DEB9;stroke:#212121;stroke-miterlimit:10;}
	.st65{fill:#A9373A;stroke:#212121;stroke-width:1.4;stroke-miterlimit:10;}
	.st66{fill:#8793BE;}
	.st67{fill:#EAE7D0;stroke:#3E58A7;stroke-width:2;stroke-miterlimit:10;}
	.st68{fill:#CEB646;stroke:#3E58A7;stroke-width:2;stroke-miterlimit:10;}
	.st69{fill:#EAE7D0;stroke:#3E58A7;stroke-miterlimit:10;}
	.st70{fill:#CEB646;stroke:#3E58A7;stroke-width:3;stroke-miterlimit:10;}
	.st71{fill:#CEB646;stroke:#3E58A7;stroke-miterlimit:10;}
	.st72{fill:#EAE7D0;stroke:#3E58A7;stroke-width:1.8;stroke-miterlimit:10;}
	.st73{fill:none;stroke:#3E58A7;stroke-width:0.8;stroke-miterlimit:10;}
</style>
<g id="bg">
</g>
<g id="part1__x28_line_all_fits_all_x29_">
</g>
<g id="chest_03">
</g>
<g id="chest_02">
</g>
<g id="chest_01">
</g>
<g id="mouth_04">
</g>
<g id="mouth_03">
</g>
<g id="mouth_02">
</g>
<g id="mouth_01">
</g>
<g id="eyes_04">
</g>
<g id="eyes_03">
</g>
<g id="eyes_02">
</g>
<g id="eyes_01">
</g>
<g id="head_1">
</g>
<g id="head_2">
</g>
<g id="head_3">
</g>
<g id="_x5B_dvd_x5D_">
</g>
<g id="bot_01">
</g>
<g id="bot_02">
</g>
<g id="bot_03">
</g>
<g id="bot_04">
</g>
<g id="bot_05">
	<circle class="st40" cx="189.8" cy="179.6" r="151.5"/>
	<rect x="176.3" y="220.1" class="st42" width="31" height="43.9"/>
	<path class="st43" d="M273.6,269.7v36.7c0,3.8-38.3,17.4-52.6,23.4l-64.9-0.6c-30.2-14-45.3-18.5-45.3-22.3v-37.1
		c0-1.1,0.2-2.1,0.7-3c1.1-2.3,3.5-3.9,6.2-3.9h149c2.8,0,5.2,1.7,6.3,4.1C273.4,267.7,273.6,268.7,273.6,269.7z"/>
	<path class="st44" d="M110,267.9c-0.5,0.9,0,1.8,0,2.8v34.6h-4.7c-1.9,0-3.5-1.2-3.5-2.8v-31.9c0-1.5,1.6-2.8,3.5-2.8H110z"/>
	<path class="st45" d="M97.3,273.7h4.5v27.7h-4.5c-3,0-5.4-2.3-5.4-5.1v-17.5C92,276,94.4,273.7,97.3,273.7z"/>
	<path class="st46" d="M298.7,177.2v26.7c0,3.3-2.7,6.1-6.1,6.1h-10.3v-38.8h10.3c1.6,0,3,0.6,4.1,1.6
		C297.9,173.8,298.7,175.4,298.7,177.2z"/>
	<path class="st46" d="M103.9,169.2v43H95c-3.6,0-6.6-3-6.6-6.6v-29.7c0-2.1,1-4,2.6-5.2c1.1-0.9,2.5-1.4,4.1-1.4H103.9z"/>
	<path class="st45" d="M249.8,316.9c-11.1,4.5-23.5,9.1-30.5,12l-64.9-0.6c-8.8-4.1-16.3-7.3-22.5-10c2.3-9.8,7.4-18.6,15.2-26
		c7.8-7.3,16.8-12.6,27.8-15.2c3.3-0.8,5.3-1.5,9.9-2.1h0.3c5.4-0.4,9.3-0.2,14.1,0.5c8.1,1.1,15.6,3.5,22.7,7.2
		C235.7,290,245.8,302.5,249.8,316.9z"/>
	<path class="st43" d="M284.3,165.6v50.2c0,2.3-1.9,4.2-4.2,4.2H106.2c-2.3,0-4.2-1.9-4.2-4.2v-50.2c0-2.3,1.9-4.2,4.2-4.2h173.9
		C282.4,161.4,284.3,163.3,284.3,165.6z"/>
	<path class="st45" d="M134.3,163.8v42c0,1.2,1.3,2.2,2.9,2.2h109.5c1.6,0,2.9-1,2.9-2.2v-42"/>
	<path class="st44" d="M282.2,270.5v28.9c0,1.4-1.2,2.5-2.7,2.5h-5.9v-31.5c0-0.9,0.4-1.7,0-2.5h5.9
		C281,268,282.2,269.1,282.2,270.5z"/>
	<path class="st45" d="M293.1,277.5v12.7c0,2.1-2.4,3.7-5.4,3.7h-4.5v-20.2h4.5C290.7,273.8,293.1,275.5,293.1,277.5z"/>
	<circle class="st24" cx="188.9" cy="179.6" r="151.5"/>
	<path class="st47" d="M255.5,190.2H126.2c-2.3,0-4.2-1.9-4.2-4.2v-6.9c0-2.3,1.9-4.2,4.2-4.2h129.3c2.3,0,4.2,1.9,4.2,4.2v6.9
		C259.7,188.3,257.8,190.2,255.5,190.2z"/>
</g>
<g id="bot_06">
</g>
<g id="bot_07">
</g>
<g id="bot_08">
</g>
<g id="bot_09">
</g>
</svg>
