<?xml version="1.0" encoding="utf-8"?>
<!-- Generator: Adobe Illustrator 23.1.0, SVG Export Plug-In . SVG Version: 6.00 Build 0)  -->
<svg version="1.1" xmlns="http://www.w3.org/2000/svg" xmlns:xlink="http://www.w3.org/1999/xlink" x="0px" y="0px"
	 viewBox="0 0 1171.5 631.9" style="enable-background:new 0 0 1171.5 631.9;" xml:space="preserve">
<style type="text/css">
	.st0{fill:#D8D8D8;}
	.st1{fill:#FFFFFF;}
	.st2{fill:#3E58A7;}
	.st3{font-family:'ArcadeNormal';}
	.st4{font-size:24px;}
	.st5{fill:none;stroke:#3E58A7;stroke-width:4;stroke-miterlimit:10;}
	.st6{fill:#FFFFFF;stroke:#3E58A7;stroke-width:3;stroke-miterlimit:10;}
	.st7{fill:#FFFFFF;stroke:#3E58A7;stroke-width:2;stroke-miterlimit:10;}
	.st8{fill:#FFFFFF;stroke:#3E58A7;stroke-miterlimit:10;}
	.st9{fill:#FFFFFF;stroke:#3E58A7;stroke-width:1.2;stroke-miterlimit:10;}
	.st10{fill:none;stroke:#3E58A7;stroke-miterlimit:10;}
	.st11{fill:none;stroke:#767AA5;stroke-width:4;stroke-linecap:round;stroke-linejoin:round;stroke-miterlimit:10;}
	.st12{fill:none;stroke:#3E58A7;stroke-width:3;stroke-miterlimit:10;}
	.st13{fill:none;stroke:#3E58A7;stroke-width:7;stroke-miterlimit:10;}
	.st14{fill:#FFFFFF;stroke:#3E58A7;stroke-width:4;stroke-miterlimit:10;}
	.st15{fill:none;}
	.st16{fill:none;stroke:#3E58A7;stroke-width:2;stroke-miterlimit:10;}
	.st17{fill:#131423;stroke:#2D2F47;stroke-miterlimit:10;}
	.st18{fill:#131423;}
	.st19{fill:#FFFFFF;stroke:#2D2F47;stroke-miterlimit:10;}
	.st20{fill:none;stroke:#131423;stroke-width:10;stroke-miterlimit:10;}
	.st21{fill:#D6AB4F;stroke:url(#);stroke-miterlimit:10;}
	.st22{fill:#FFFFFF;stroke:#2B4CA1;stroke-width:2;stroke-miterlimit:10;}
	.st23{fill:#FFFFFF;stroke:#2B4CA1;stroke-width:0;stroke-miterlimit:10;}
	.st24{fill:#FFFFFF;stroke:#2B4CA1;stroke-width:3;stroke-miterlimit:10;}
	.st25{fill:#DEECC4;stroke:#2B4CA1;stroke-width:2;stroke-miterlimit:10;}
	.st26{fill:none;stroke:#FFFFFF;stroke-width:8;stroke-miterlimit:10;}
	.st27{fill:#DEECC4;stroke:#2B4CA1;stroke-width:3;stroke-miterlimit:10;}
	.st28{fill:#2B4CA1;}
	.st29{fill:none;stroke:#2B4CA1;stroke-miterlimit:10;}
	.st30{fill:none;stroke:#3E58A7;stroke-width:0.4;stroke-miterlimit:10;}
	.st31{fill:#DEECC4;stroke:#2B4CA1;stroke-miterlimit:10;}
	.st32{fill:#C44549;}
	.st33{fill:#FFFFFF;stroke:#827E9D;stroke-width:3;stroke-miterlimit:10;}
	.st34{fill:#FFFFFF;stroke:#827E9D;stroke-width:2;stroke-miterlimit:10;}
	.st35{fill:#FFFFFF;stroke:#827E9D;stroke-miterlimit:10;}
	.st36{fill:#227EB3;stroke:#FFFFFF;stroke-miterlimit:10;}
	.st37{fill:#E1DFBC;stroke:#21262E;stroke-width:3;stroke-miterlimit:10;}
	.st38{fill:#FFFFFF;stroke:#21262E;stroke-width:3;stroke-miterlimit:10;}
	.st39{fill:#C44549;stroke:#21262E;stroke-width:3;stroke-miterlimit:10;}
	.st40{fill:#E1DFBC;stroke:#21262E;stroke-width:2;stroke-miterlimit:10;}
	.st41{fill:#C44549;stroke:#21262E;stroke-width:2;stroke-miterlimit:10;}
	.st42{fill:#504F75;}
	.st43{fill:#FFFFFF;stroke:#2E323B;stroke-width:0;stroke-miterlimit:10;}
	.st44{fill:#DFDEDF;stroke:#2E323B;stroke-width:3;stroke-miterlimit:10;}
	.st45{fill:#FFFFFF;stroke:#2E323B;stroke-width:3;stroke-miterlimit:10;}
	.st46{fill:#E4BD4F;stroke:#2E323B;stroke-width:2;stroke-miterlimit:10;}
	.st47{fill:#DFDEDF;stroke:#2E323B;stroke-width:2;stroke-miterlimit:10;}
	.st48{fill:#E4BD4F;stroke:#2E323B;stroke-width:3;stroke-miterlimit:10;}
	.st49{fill:#B7D374;stroke:#2E323B;stroke-width:3;stroke-miterlimit:10;}
	.st50{fill:#72C59D;}
	.st51{fill:#65B78F;}
	.st52{fill:#252735;stroke:#4D5176;stroke-width:0;stroke-miterlimit:10;}
	.st53{fill:#252735;stroke:#4D5176;stroke-width:2;stroke-miterlimit:10;}
	.st54{fill:#252735;stroke:#4D5176;stroke-width:3;stroke-miterlimit:10;}
	.st55{fill:#252735;stroke:#252735;stroke-width:5;stroke-miterlimit:10;}
	.st56{fill:#252735;stroke:#4D5176;stroke-miterlimit:10;}
	.st57{fill:#B5D077;stroke:#4D5176;stroke-width:3;stroke-miterlimit:10;}
	.st58{fill:#252735;stroke:#4D5176;stroke-width:1.8;stroke-miterlimit:10;}
	.st59{fill:#3B6FAD;stroke:url(#);stroke-miterlimit:10;}
	.st60{fill:url(#);stroke:url(#);stroke-miterlimit:10;}
	.st61{fill:#A9373A;stroke:#212121;stroke-width:3;stroke-miterlimit:10;}
	.st62{fill:#A9373A;stroke:#212121;stroke-width:0;stroke-miterlimit:10;}
	.st63{fill:#A9373A;stroke:#212121;stroke-width:2;stroke-miterlimit:10;}
	.st64{fill:#E3DEB9;stroke:#212121;stroke-width:2;stroke-miterlimit:10;}
	.st65{fill:#A9373A;stroke:#212121;stroke-miterlimit:10;}
	.st66{fill:#E3DEB9;stroke:#212121;stroke-miterlimit:10;}
	.st67{fill:#A9373A;stroke:#212121;stroke-width:1.4;stroke-miterlimit:10;}
	.st68{fill:#8793BE;}
	.st69{fill:#EAE7D0;stroke:#3E58A7;stroke-width:2;stroke-miterlimit:10;}
	.st70{fill:#CEB646;stroke:#3E58A7;stroke-width:2;stroke-miterlimit:10;}
	.st71{fill:#EAE7D0;stroke:#3E58A7;stroke-miterlimit:10;}
	.st72{fill:#CEB646;stroke:#3E58A7;stroke-width:3;stroke-miterlimit:10;}
	.st73{fill:#CEB646;stroke:#3E58A7;stroke-miterlimit:10;}
	.st74{fill:#EAE7D0;stroke:#3E58A7;stroke-width:1.8;stroke-miterlimit:10;}
	.st75{fill:none;stroke:#3E58A7;stroke-width:0.8;stroke-miterlimit:10;}
</style>
<g id="bg">
	<rect x="505.5" y="90.9" class="st0" width="324" height="530.5"/>
	<rect x="174.3" y="92.6" class="st0" width="324" height="530.5"/>
	<rect x="835.6" y="90.9" class="st0" width="324" height="530.5"/>
	<rect x="6.3" y="192.8" class="st1" width="1153.3" height="6.8"/>
	<rect x="7.1" y="301.4" class="st1" width="1152.5" height="6.8"/>
	<rect x="6.3" y="413.2" class="st1" width="1153.3" height="6.8"/>
	<rect x="6.3" y="520.5" class="st1" width="1153.3" height="6.8"/>
	<text transform="matrix(1 0 0 1 34.8841 157.8418)" class="st2 st3 st4">head</text>
	<text transform="matrix(1 0 0 1 290.2334 49.2536)" class="st2 st3 st4">BOT 1</text>
	<text transform="matrix(1 0 0 1 622.7083 49.2536)" class="st2 st3 st4">BOT 2</text>
	<text transform="matrix(1 0 0 1 948.2081 49.2536)" class="st2 st3 st4">BOT 3</text>
	<text transform="matrix(1 0 0 1 34.8841 263.7948)" class="st2 st3 st4">eyes</text>
	<text transform="matrix(1 0 0 1 622.7081 266.7294)" class="st1 st3 st4">nofit</text>
	<text transform="matrix(1 0 0 1 622.7081 372.5171)" class="st1 st3 st4">nofit</text>
	<text transform="matrix(1 0 0 1 34.8841 368.8972)" class="st2 st3 st4">mouth</text>
	<text transform="matrix(1 0 0 1 34.8841 482.7007)" class="st2 st3 st4">part1</text>
	<text transform="matrix(1 0 0 1 34.8841 583.9595)" class="st2 st3 st4">chest</text>
</g>
<g id="part1__x28_line_all_fits_all_x29_">
	<path class="st5" d="M775.1,461.6v42.9c0.2,0,0.4,0,0.6,0h9c2.4,0,4.3-1.9,4.3-4.3v-34.4c0-1-0.3-1.9-0.9-2.7v-39.7
		c0-1.5-1.2-2.7-2.7-2.7h-0.5c-1.5,0-2.7,1.2-2.7,2.7v38.1h-6.5C775.5,461.5,775.3,461.6,775.1,461.6z"/>
	<g>
		<path class="st6" d="M326.7,503.4c0.2-3.9,0-7.8,0.1-11.8c0.1-2.1,0.9-2.7,1.9-2.7c1.4,0,3.4,0,4.9-0.1c2.4-0.1,2.4-0.1,4.3-0.2
			c0.3,0,1.6,0,1.8,0c0.3,0,0.2-3,0.2-3.7c0-3.1,0-6.1,0-9.1c0-7.1,0.3-14.1,0.2-21.2c0-1.2-0.1-2.3-0.7-3.3
			c-1.9-3.1-2.2-6.6-0.9-10.5c1-3.2,3.6-4.7,5.7-3.3c1.6,1,2.8,3,3.1,6.1c0.3,3.3-0.2,6.3-1.9,8.2c-0.5,0.6-0.7,1.3-0.7,2.3
			c0.1,10.4,0,20.8,0.2,31.1c0,0.6,0,2.5,0.4,2.9c0.3,0.4,1.1,0.3,1.5,0.3c0.9,0,2.2,0,2.9,0c2-0.1,2.3,0,3.3,0c1,0,2.1-0.1,3.3-0.1
			c1.7,0,1.3,1,1.3,4.5c0,3.1,0,5.8,0,8.8"/>
		<circle class="st7" cx="342.7" cy="444.4" r="7.3"/>
	</g>
	<g>
		<path class="st7" d="M996.8,480.1v36.3h-7c-2.9,0-5.2-2.5-5.2-5.6v-25.1c0-1.8,0.8-3.4,2-4.4v-56.1c0.8,0.5,1.8,0.8,2.8,0.8
			c1,0,2-0.3,2.8-0.8v55H996.8z"/>
		<path class="st7" d="M995.1,420.4c0,2.2-1.2,4.2-2.9,5.2c-0.8,0.5-1.8,0.8-2.8,0.8s-2-0.3-2.8-0.8c-1.7-1-2.9-3-2.9-5.2
			c0-3.3,2.5-6,5.7-6C992.6,414.4,995.1,417.1,995.1,420.4z"/>
	</g>
	<g>
		<path class="st7" d="M1015.2,480.1v36.3h7c2.9,0,5.2-2.5,5.2-5.6v-25.1c0-1.8-0.8-3.4-2-4.4v-56.1c-0.8,0.5-1.8,0.8-2.8,0.8
			c-1,0-2-0.3-2.8-0.8v55H1015.2z"/>
		<path class="st7" d="M1016.8,420.4c0,2.2,1.2,4.2,2.9,5.2c0.8,0.5,1.8,0.8,2.8,0.8s2-0.3,2.8-0.8c1.7-1,2.9-3,2.9-5.2
			c0-3.3-2.5-6-5.7-6C1019.4,414.4,1016.8,417.1,1016.8,420.4z"/>
	</g>
	<path class="st7" d="M1115.4,491.2h-37.6c-2.1,0-3.8,1.7-3.8,3.8v3.7c0,2.1,1.7,3.8,3.8,3.8h37.6c2.1,0,3.8-1.7,3.8-3.8v-3.7
		C1119.3,492.9,1117.5,491.2,1115.4,491.2z"/>
	<path class="st6" d="M275.1,473.7c0.1-3.4,0-7.4,0.1-11.4c0.1-2.9,0.2-5.9,0-8.8c-0.2-2.5,1.5-3.8,3.3-2.6c3.5,2.3,6.3,5.3,7.4,10
		c0.2,0.9,0.2,1.8,0.2,2.7c0,3.5-0.2,7,0,10.4c0.3,5.1-1.9,8.7-5,11.7c-0.8,0.8-1.7,1.6-2.7,2.1c-1.6,0.8-2.6,0.3-3.1-1.6
		c-0.2-0.8-0.3-1.7-0.3-2.5C275.1,480.6,275.1,477.4,275.1,473.7z"/>
	<path class="st6" d="M242.2,483.7c0,0.9-0.1,1.7-0.3,2.5c-0.5,1.9-1.5,2.4-3.1,1.6c-1-0.5-1.9-1.3-2.7-2.1c-3.2-3.1-5.3-6.6-5-11.7
		c0.2-3.5,0-6.9,0-10.4c0-0.9,0-1.8,0.2-2.7c1.1-4.7,4-7.7,7.4-10c1.9-1.2,3.5,0.1,3.3,2.6c-0.2,2.9-0.1,5.9,0,8.8
		c0.1,4,0,8,0.1,11.4C242.2,477.4,242.2,480.6,242.2,483.7z"/>
	<rect x="1095.7" y="441.8" class="st8" width="4.2" height="53.9"/>
	<circle class="st9" cx="1097.7" cy="441.8" r="4"/>
	<g>
		<line class="st10" x1="1087.9" y1="496" x2="1107" y2="496"/>
		<line class="st10" x1="1088.4" y1="495.8" x2="1088.4" y2="491.3"/>
		<line class="st10" x1="1106.5" y1="495.8" x2="1106.5" y2="491.3"/>
	</g>
	<path class="st5" d="M755.3,463.8h-6.5v-38.1c0-1.5-1.2-2.7-2.7-2.7h-0.5c-1.5,0-2.7,1.2-2.7,2.7v39.7c-0.6,0.7-0.9,1.7-0.9,2.7
		v34.4c0,2.4,1.9,4.3,4.3,4.3h9c0.2,0,0.4,0,0.6,0v-42.9C755.7,463.8,755.5,463.8,755.3,463.8z"/>
	<path class="st12" d="M644.2,472c0.1-3.4,0-7.4,0.1-11.4c0.1-2.9-0.3-7.1-0.2-10.7c0.7-1.7,2.1-1.8,3.7-1.1c4,1.9,6.1,2.6,7.3,7.3
		c0.2,0.9,0.2,4.8,0.2,5.7c0,3.5-0.1,10.5,0.1,14c-0.2,5.2-1.7,5.2-5,8.2c0,0,0,0,0,0c-1.1,0.8-1.4,1-2.2,1.3
		c-0.7,0.2-1.5,0.3-2.2-0.1c-0.9-0.4-1.4-1.2-1.7-2.6c-0.1-1,0-1.3,0.1-3C644.2,476.5,644.2,475.7,644.2,472z"/>
	<line class="st13" x1="655.4" y1="467.2" x2="684.4" y2="466.5"/>
	<circle class="st12" cx="689.4" cy="466.5" r="5.8"/>
	<path class="st12" d="M617.7,481.4c0.1,1.6,0.1,2,0.1,3c-0.3,1.4-0.8,2.1-1.7,2.6c-0.7,0.3-1.5,0.3-2.2,0.1
		c-0.9-0.3-1.2-0.5-2.2-1.3c0,0,0,0,0,0c-3.3-3-4.8-3-5-8.2c0.2-3.5,0.1-10.5,0.1-14c0-0.9,0-4.9,0.2-5.7c1.1-4.7,3.2-5.3,7.3-7.3
		c1.6-0.8,3-0.6,3.7,1.1c0.1,3.6-0.2,7.8-0.2,10.7c0.1,4,0,8,0.1,11.4C617.7,477.4,617.7,478.3,617.7,481.4z"/>
	<line class="st13" x1="606.5" y1="469" x2="577.6" y2="468.3"/>
	<circle class="st12" cx="572.6" cy="468.3" r="5.8"/>
	<path class="st6" d="M911.5,493.6c0.1-2.9,0-6.3,0.1-9.6c0.1-2.5,0.2-5,0-7.5c-0.2-2.1,1.4-3.2,3.1-2.2c3.3,1.9,6,4.5,7.1,8.4
		c0.2,0.7,0.2,1.5,0.2,2.2c0,2.9-0.2,5.9,0,8.8c0.3,4.3-1.8,7.3-4.8,9.9c-0.8,0.7-1.6,1.3-2.6,1.8c-1.5,0.7-2.5,0.3-2.9-1.4
		c-0.2-0.7-0.3-1.4-0.3-2.1C911.5,499.3,911.5,496.7,911.5,493.6z"/>
	<path class="st7" d="M912.8,469.2v39.6c0.2,0,0.3,0,0.5,0h7.2c1.9,0,3.4-1.8,3.4-3.9v-31.8c0-0.9-0.3-1.8-0.7-2.5v-36.6
		c0-1.4-1-2.5-2.2-2.5h-0.4c-1.2,0-2.2,1.1-2.2,2.5v35.1h-5.2C913.2,469.2,913,469.2,912.8,469.2z"/>
	<line class="st10" x1="916.8" y1="472.6" x2="916.8" y2="505.8"/>
	<path class="st6" d="M879.8,502c0,0.7-0.1,1.4-0.3,2.1c-0.4,1.6-1.4,2.1-2.9,1.4c-1-0.5-1.8-1.1-2.6-1.8c-3-2.6-5.1-5.6-4.8-9.9
		c0.2-2.9,0-5.9,0-8.8c0-0.8,0-1.5,0.2-2.2c1.1-3.9,3.8-6.5,7.1-8.4c1.8-1,3.3,0.1,3.1,2.2c-0.2,2.5-0.1,5,0,7.5
		c0.1,3.4,0,6.7,0.1,9.6C879.8,496.7,879.8,499.3,879.8,502z"/>
	<path class="st7" d="M877.9,469.2h-5.2v-35.1c0-1.4-1-2.5-2.2-2.5h-0.4c-1.2,0-2.2,1.1-2.2,2.5v36.6c-0.5,0.7-0.7,1.5-0.7,2.5v31.8
		c0,2.2,1.5,3.9,3.4,3.9h7.2c0.2,0,0.3,0,0.5,0v-39.6C878.3,469.2,878.1,469.2,877.9,469.2z"/>
	<line class="st10" x1="874.5" y1="472.6" x2="874.5" y2="505.8"/>
	<path class="st6" d="M442.5,492.1c0.1-2.9,0-6.3,0.1-9.6c0.1-2.5,0.2-5,0-7.5c-0.2-2.1,1.4-3.2,3.1-2.2c3.3,1.9,6,4.5,7.1,8.4
		c0.2,0.7,0.2,1.5,0.2,2.2c0,2.9-0.2,5.9,0,8.8c0.3,4.3-1.8,7.3-4.8,9.9c-0.8,0.7-1.6,1.3-2.6,1.8c-1.5,0.7-2.5,0.3-2.9-1.4
		c-0.2-0.7-0.3-1.4-0.3-2.1C442.5,497.8,442.5,495.2,442.5,492.1z"/>
	<path class="st7" d="M443.9,467.8v39.6c0.2,0,0.3,0,0.5,0h7.2c1.9,0,3.4-1.8,3.4-3.9v-31.8c0-0.9-0.3-1.8-0.7-2.5v-36.6
		c0-1.4-1-2.5-2.2-2.5h-0.4c-1.2,0-2.2,1.1-2.2,2.5v35.1h-5.2C444.2,467.7,444,467.7,443.9,467.8z"/>
	<line class="st10" x1="447.8" y1="471.1" x2="447.8" y2="504.3"/>
	<path class="st6" d="M410.8,500.5c0,0.7-0.1,1.4-0.3,2.1c-0.4,1.6-1.4,2.1-2.9,1.4c-1-0.5-1.8-1.1-2.6-1.8c-3-2.6-5.1-5.6-4.8-9.9
		c0.2-2.9,0-5.9,0-8.8c0-0.8,0-1.5,0.2-2.2c1.1-3.9,3.8-6.5,7.1-8.4c1.8-1,3.3,0.1,3.1,2.2c-0.2,2.5-0.1,5,0,7.5
		c0.1,3.4,0,6.7,0.1,9.6C410.8,495.2,410.8,497.8,410.8,500.5z"/>
	<path class="st7" d="M409,467.7h-5.2v-35.1c0-1.4-1-2.5-2.2-2.5h-0.4c-1.2,0-2.2,1.1-2.2,2.5v36.6c-0.5,0.7-0.7,1.5-0.7,2.5v31.8
		c0,2.2,1.5,3.9,3.4,3.9h7.2c0.2,0,0.3,0,0.5,0v-39.6C409.3,467.7,409.1,467.7,409,467.7z"/>
	<line class="st10" x1="405.5" y1="471.1" x2="405.5" y2="504.3"/>
</g>
<g id="chest_03">
	<path class="st6" d="M1096.6,553.1v36.7c0,3.8-38.3,17.4-52.6,23.4l-64.9-0.6c-30.2-14-45.3-18.5-45.3-22.3v-37.1
		c0-1.1,0.2-2.1,0.7-3c1.1-2.3,3.5-3.9,6.2-3.9h149c2.8,0,5.2,1.7,6.3,4.1C1096.4,551.1,1096.6,552.1,1096.6,553.1z"/>
	<path class="st6" d="M933.8,551.3c-0.4,0.9,0,1.8,0,2.8v34.6h-4c-1.6,0-3-1.2-3-2.8v-31.9c0-1.5,1.3-2.8,3-2.8H933.8z"/>
	<path class="st6" d="M922.3,557.1h4.5v27.7h-4.5c-3,0-5.4-2.3-5.4-5.1v-17.5C917,559.4,919.3,557.1,922.3,557.1z"/>
	<path class="st6" d="M1106.2,553.9v28.9c0,1.4-1.3,2.5-3,2.5h-6.6v-31.5c0-0.9,0.4-1.7,0-2.5h6.6
		C1104.9,551.4,1106.2,552.5,1106.2,553.9z"/>
	<path class="st6" d="M1116,561.3v13.8c0,2.2-2.4,4-5.4,4h-4.5v-21.9h4.5C1113.7,557.2,1116,559,1116,561.3z"/>
	<path class="st6" d="M1074,600.2c-11.1,4.5-23.5,9.1-30.5,12l-64.9-0.6c-8.8-4.1-16.3-7.3-22.5-10c2.3-9.8,7.4-18.6,15.2-26
		c7.8-7.3,16.8-12.6,27.8-15.2c3.3-0.8,6.7-0.9,9.9-2.1h0.3c4.7,0.3,9.3-0.2,14.1,0.5c8.1,1.1,15.6,3.5,22.7,7.2
		C1059.9,573.3,1070.1,585.7,1074,600.2z"/>
</g>
<g id="chest_02">
	<path class="st6" d="M752.6,549.4v36.7c0,3.8-38.3,17.4-52.6,23.4l-64.9-0.6c-30.2-14-45.3-18.5-45.3-22.3v-37.1
		c0-1.1,0.2-2.1,0.7-3c1.1-2.3,3.5-3.9,6.2-3.9h149c2.8,0,5.2,1.7,6.3,4.1C752.4,547.4,752.6,548.4,752.6,549.4z"/>
	<path class="st6" d="M589.8,547.6c-0.4,0.9,0,1.8,0,2.8V585h-4c-1.6,0-3-1.2-3-2.8v-31.9c0-1.5,1.3-2.8,3-2.8H589.8z"/>
	<path class="st6" d="M578.3,553.4h4.5v27.7h-4.5c-3,0-5.4-2.3-5.4-5.1v-17.5C572.9,555.7,575.3,553.4,578.3,553.4z"/>
	<path class="st6" d="M762.2,550.2v28.9c0,1.4-1.3,2.5-3,2.5h-6.6v-31.5c0-0.9,0.4-1.7,0-2.5h6.6
		C760.8,547.7,762.2,548.8,762.2,550.2z"/>
	<path class="st6" d="M772,557.6v13.8c0,2.2-2.4,4-5.4,4h-4.5v-21.9h4.5C769.6,553.5,772,555.3,772,557.6z"/>
	<circle class="st10" cx="688.1" cy="560.2" r="2"/>
	<circle class="st10" cx="695.8" cy="560.2" r="2"/>
	<path class="st10" d="M738.5,562.2h-34.7c-0.6,0-1.1-0.5-1.1-1.1v-1.9c0-0.6,0.5-1.1,1.1-1.1h34.7c0.6,0,1.1,0.5,1.1,1.1v1.9
		C739.6,561.7,739.1,562.2,738.5,562.2z"/>
</g>
<g id="chest_01">
	<path class="st6" d="M424,549.4v36.7c0,3.8-38.3,17.4-52.6,23.4l-64.9-0.6c-30.2-14-45.3-18.5-45.3-22.3v-37.1c0-1.1,0.2-2.1,0.7-3
		c1.1-2.3,3.5-3.9,6.2-3.9h149c2.8,0,5.2,1.7,6.3,4.1C423.8,547.4,424,548.4,424,549.4z"/>
	<path class="st6" d="M261.2,547.6c-0.4,0.9,0,1.8,0,2.8V585h-4c-1.6,0-3-1.2-3-2.8v-31.9c0-1.5,1.3-2.8,3-2.8H261.2z"/>
	<path class="st6" d="M249.7,553.4h4.5v27.7h-4.5c-3,0-5.4-2.3-5.4-5.1v-17.5C244.3,555.7,246.7,553.4,249.7,553.4z"/>
	<path class="st6" d="M433.6,550.2v28.9c0,1.4-1.3,2.5-3,2.5H424v-31.5c0-0.9,0.4-1.7,0-2.5h6.6
		C432.2,547.7,433.6,548.8,433.6,550.2z"/>
	<path class="st6" d="M443.4,557.6v13.8c0,2.2-2.4,4-5.4,4h-4.5v-21.9h4.5C441,553.5,443.4,555.3,443.4,557.6z"/>
</g>
<g id="mouth_04">
	<path class="st6" d="M999.8,372.5v-14.1c0-1.8,1.6-3.2,3.5-3.2h134.8c1.9,0,3.5,1.5,3.5,3.2v14.1"/>
</g>
<g id="mouth_03">
	<path class="st8" d="M860.9,344.9V381c0,1,1.3,1.9,2.9,1.9h109.5c1.6,0,2.9-0.8,2.9-1.9v-36.1"/>
</g>
<g id="mouth_02">
	<path class="st2" d="M351.4,392.5c-2.2,0.9-4.3,0.8-6.5-0.2c-3.2-1.5-6.3-2.8-9.5-4.3c-1.2-0.5-2.3-0.6-3.6-0.1
		c-3.8,1.6-7.6,3-11.3,4.6c-1.7,0.7-3.4,0.7-5-0.1c-3.5-1.6-7-3.1-10.4-4.7c-1.6-0.8-2.9-0.8-4.5,0c-3.3,1.6-6.5,3.2-9.8,4.7
		c-1.1,0.5-2.3,1-3.6,1c-1,0-1.9-0.4-2.8-0.9c-3-1.7-6-3.3-8.9-5.1c-1-0.6-2.5-1.4-1.8-2.9c0.7-1.4,2.2-0.8,3.4-0.4
		c2.8,1,5.4,2.6,8,4c1.5,0.9,2.9,0.9,4.5,0.1c3.3-1.6,6.6-3,9.9-4.6c2.2-1.1,4.1-1.3,6.3-0.2c3.5,1.7,7.2,3.1,10.7,4.7
		c1,0.5,2,0.5,3,0.1c3.4-1.4,6.9-2.6,10.3-4.1c2.7-1.2,5.3-1.2,8,0.1c2.9,1.4,6,2.6,8.9,4c1.6,0.7,3.1,0.3,4.6-0.3
		c4-1.5,7.9-3,11.8-4.6c2.4-1,4.6-0.8,6.8,0.4c2.7,1.5,5.5,3,8.3,4.6c1,0.6,2.3,1.1,1.7,2.7c-0.5,1.1-2.2,1.6-3.6,1
		c-1.5-0.6-3-1.2-4.2-2.1c-3.9-3-7.7-3.5-12.1-1"/>
</g>
<g id="mouth_01">
	<path class="st6" d="M252.8,344.7v-14.1c0-1.8,1.6-3.2,3.5-3.2h134.8c1.9,0,3.5,1.5,3.5,3.2v14.1"/>
</g>
<g id="eyes_04">
	<path class="st14" d="M1052.4,290.1H916.9c-9.8,0-17.8-8-17.8-17.8v0c0-9.8,8-17.8,17.8-17.8h135.5c9.8,0,17.8,8,17.8,17.8v0
		C1070.2,282.1,1062.2,290.1,1052.4,290.1z"/>
</g>
<g id="eyes_03">
	<path class="st6" d="M1055.9,231.6h-64.9c-0.9,0-1.6-0.7-1.6-1.6v-6.6c0-0.9,0.7-1.6,1.6-1.6h64.9c0.9,0,1.6,0.7,1.6,1.6v6.6
		C1057.5,230.9,1056.8,231.6,1055.9,231.6z"/>
	<path class="st6" d="M978,231.6h-64.8c-0.9,0-1.6-0.7-1.6-1.6v-6.5c0-0.9,0.7-1.6,1.6-1.6H978c0.9,0,1.6,0.7,1.6,1.6v6.5
		C979.6,230.9,978.9,231.6,978,231.6z"/>
</g>
<g id="eyes_02">
	<path class="st6" d="M397.5,273.5H275.1c-2.5,0-4.5-2-4.5-4.5v-9.8c0-2.5,2-4.5,4.5-4.5h122.3c2.5,0,4.5,2,4.5,4.5v9.8
		C402,271.4,400,273.5,397.5,273.5z"/>
</g>
<g id="eyes_01">
	<path class="st6" d="M407.6,233.2H265c-2.8,0-5-2.2-5-5v-9.8c0-2.8,2.2-5,5-5h142.7c2.8,0,5,2.2,5,5v9.8
		C412.6,231,410.4,233.2,407.6,233.2z"/>
	<circle class="st10" cx="294" cy="223.7" r="3"/>
	<circle class="st10" cx="323.8" cy="223.7" r="3"/>
	<circle class="st10" cx="352.6" cy="223.7" r="3"/>
	<circle class="st10" cx="379.6" cy="223.7" r="3"/>
</g>
<g id="head_1">
	<path class="st6" d="M432.1,116.1v45.1c0,4.6-3.7,8.3-8.3,8.3H248.8c-4.6,0-8.3-3.7-8.3-8.3v-45.1c0-4.6,3.7-8.3,8.3-8.3h175.1
		C428.4,107.9,432.1,111.6,432.1,116.1z"/>
</g>
<g id="head_2">
	<path class="st15" d="M708.2,143.4c0.6,18.5-15,34.8-34.6,34.5c-19.3-0.3-34.2-15.1-34.3-34.5c-0.1-19.2,15.2-34.7,35.1-34.6
		C692.7,109,708.9,124.6,708.2,143.4z M673.9,175.9c18.4,0.3,32.8-14.6,32.8-32.6c0-17.2-13.8-33.8-35.5-32.5
		c-15,0.9-30.8,13.9-30,34.1C641.7,161.1,655.1,176.3,673.9,175.9z"/>
	<path class="st5" d="M716.7,143.4c0,10.9-4.1,20.8-10.8,28.4c0,0,0,0-0.1,0.1c-7.9,8.9-19.3,14.4-32.1,14.4s-24.2-5.6-32.1-14.4
		c-6.7-7.6-10.8-17.6-10.8-28.5c0-8.7,2.6-16.9,7.1-23.6c7.7-11.6,20.9-19.3,35.8-19.3c14.9,0,28.1,7.6,35.8,19.2c0,0,0,0,0.1,0.1
		C714.1,126.6,716.7,134.7,716.7,143.4z"/>
	<path class="st14" d="M716.8,143.4c0,10.9-4.1,20.9-10.8,28.5c-7.9,8.9-19.3,14.4-32.1,14.4s-24.2-5.6-32.1-14.4
		c-6.7-7.6-10.8-17.6-10.8-28.5c0-8.7,2.6-16.9,7.1-23.6c7.7-11.6,20.9-19.3,35.8-19.3s28.1,7.7,35.8,19.3
		C714.2,126.5,716.8,134.6,716.8,143.4z"/>
	<circle class="st16" cx="673.9" cy="143.4" r="34.4"/>
	<path class="st14" d="M641.8,171.8h-80.6c-2.3,0-4.2-1.9-4.2-4.2v-43.7c0-2.3,1.9-4.2,4.2-4.2h76.9c-4.5,6.8-7.1,14.9-7.1,23.6
		C631,154.3,635.1,164.3,641.8,171.8z"/>
	<path class="st14" d="M779.6,123.9v43.7c0,2.3-1.9,4.2-4.2,4.2h-69.5c6.7-7.6,10.8-17.5,10.8-28.4c0-8.7-2.6-16.9-7.1-23.6
		c0,0,0,0-0.1-0.1h65.9C777.7,119.7,779.6,121.6,779.6,123.9z"/>
</g>
<g id="head_3">
	<path class="st6" d="M1078,118.6v44.5c0,2.1-1.9,3.7-4.2,3.7H899.9c-2.3,0-4.2-1.7-4.2-3.7v-44.5c0-2.1,1.9-3.8,4.2-3.8h173.9
		C1076.1,114.9,1078,116.6,1078,118.6z"/>
</g>
<g id="_x5B_dvd_x5D_">
</g>
<g id="bot_01">
</g>
<g id="bot_02">
</g>
<g id="bot_03">
</g>
<g id="bot_04">
</g>
<g id="bot_05">
</g>
<g id="bot_06">
</g>
<g id="bot_07">
</g>
<g id="bot_08">
</g>
<g id="bot_09">
</g>
</svg>
