<?xml version="1.0" encoding="utf-8"?>
<!-- Generator: Adobe Illustrator 23.1.0, SVG Export Plug-In . SVG Version: 6.00 Build 0)  -->
<svg version="1.1" xmlns="http://www.w3.org/2000/svg" xmlns:xlink="http://www.w3.org/1999/xlink" x="0px" y="0px"
	 viewBox="0 0 360.8 360.8" style="enable-background:new 0 0 360.8 360.8;" xml:space="preserve">
<style type="text/css">
	.st0{fill:none;}
	.st1{fill:none;stroke:#AF8437;stroke-miterlimit:10;}
	.st2{display:none;fill:#040404;}
	.st3{fill:#040404;}
	.st4{fill:#245684;}
	.st5{fill:#D8D8D8;}
	.st6{fill:#FFFFFF;}
	.st7{fill:none;stroke:#3E58A7;stroke-width:4;stroke-miterlimit:10;}
	.st8{fill:#FFFFFF;stroke:#3E58A7;stroke-width:3;stroke-miterlimit:10;}
	.st9{fill:#FFFFFF;stroke:#3E58A7;stroke-width:2;stroke-miterlimit:10;}
	.st10{fill:#FFFFFF;stroke:#3E58A7;stroke-miterlimit:10;}
	.st11{fill:#FFFFFF;stroke:#3E58A7;stroke-width:1.2;stroke-miterlimit:10;}
	.st12{fill:none;stroke:#3E58A7;stroke-miterlimit:10;}
	.st13{fill:none;stroke:#767AA5;stroke-width:4;stroke-linecap:round;stroke-linejoin:round;stroke-miterlimit:10;}
	.st14{fill:none;stroke:#3E58A7;stroke-width:3;stroke-miterlimit:10;}
	.st15{fill:none;stroke:#3E58A7;stroke-width:7;stroke-miterlimit:10;}
	.st16{fill:#3E58A7;}
	.st17{fill:#FFFFFF;stroke:#3E58A7;stroke-width:4;stroke-miterlimit:10;}
	.st18{fill:none;stroke:#3E58A7;stroke-width:2;stroke-miterlimit:10;}
	.st19{fill:#131423;stroke:#2D2F47;stroke-miterlimit:10;}
	.st20{fill:#131423;}
	.st21{fill:#FFFFFF;stroke:#2D2F47;stroke-miterlimit:10;}
	.st22{fill:none;stroke:#131423;stroke-width:10;stroke-miterlimit:10;}
	.st23{fill:#D6AB4F;stroke:url(#New_Pattern_Swatch_5);stroke-miterlimit:10;}
	.st24{fill:#FFFFFF;stroke:#2B4CA1;stroke-width:2;stroke-miterlimit:10;}
	.st25{fill:#FFFFFF;stroke:#2B4CA1;stroke-width:0;stroke-miterlimit:10;}
	.st26{fill:#FFFFFF;stroke:#2B4CA1;stroke-width:3;stroke-miterlimit:10;}
	.st27{fill:#DEECC4;stroke:#2B4CA1;stroke-width:2;stroke-miterlimit:10;}
	.st28{fill:none;stroke:#FFFFFF;stroke-width:8;stroke-miterlimit:10;}
	.st29{fill:#DEECC4;stroke:#2B4CA1;stroke-width:3;stroke-miterlimit:10;}
	.st30{fill:#2B4CA1;}
	.st31{fill:none;stroke:#2B4CA1;stroke-miterlimit:10;}
	.st32{fill:none;stroke:#3E58A7;stroke-width:0.4;stroke-miterlimit:10;}
	.st33{fill:#DEECC4;stroke:#2B4CA1;stroke-miterlimit:10;}
	.st34{fill:#C44549;}
	.st35{fill:#FFFFFF;stroke:#827E9D;stroke-width:3;stroke-miterlimit:10;}
	.st36{fill:#FFFFFF;stroke:#827E9D;stroke-width:2;stroke-miterlimit:10;}
	.st37{fill:#FFFFFF;stroke:#827E9D;stroke-miterlimit:10;}
	.st38{fill:#227EB3;stroke:#FFFFFF;stroke-miterlimit:10;}
	.st39{fill:#E1DFBC;stroke:#21262E;stroke-width:3;stroke-miterlimit:10;}
	.st40{fill:#FFFFFF;stroke:#21262E;stroke-width:3;stroke-miterlimit:10;}
	.st41{fill:#C44549;stroke:#21262E;stroke-width:3;stroke-miterlimit:10;}
	.st42{fill:#E1DFBC;stroke:#21262E;stroke-width:2;stroke-miterlimit:10;}
	.st43{fill:#C44549;stroke:#21262E;stroke-width:2;stroke-miterlimit:10;}
	.st44{fill:#504F75;}
	.st45{fill:#FFFFFF;stroke:#2E323B;stroke-width:0;stroke-miterlimit:10;}
	.st46{fill:#DFDEDF;stroke:#2E323B;stroke-width:3;stroke-miterlimit:10;}
	.st47{fill:#FFFFFF;stroke:#2E323B;stroke-width:3;stroke-miterlimit:10;}
	.st48{fill:#E4BD4F;stroke:#2E323B;stroke-width:2;stroke-miterlimit:10;}
	.st49{fill:#DFDEDF;stroke:#2E323B;stroke-width:2;stroke-miterlimit:10;}
	.st50{fill:#E4BD4F;stroke:#2E323B;stroke-width:3;stroke-miterlimit:10;}
	.st51{fill:#B7D374;stroke:#2E323B;stroke-width:3;stroke-miterlimit:10;}
	.st52{fill:#72C59D;}
	.st53{fill:#65B78F;}
	.st54{fill:#252735;stroke:#4D5176;stroke-width:0;stroke-miterlimit:10;}
	.st55{fill:#252735;stroke:#4D5176;stroke-width:2;stroke-miterlimit:10;}
	.st56{fill:#252735;stroke:#4D5176;stroke-width:3;stroke-miterlimit:10;}
	.st57{fill:#252735;stroke:#252735;stroke-width:5;stroke-miterlimit:10;}
	.st58{fill:#252735;stroke:#4D5176;stroke-miterlimit:10;}
	.st59{fill:#B5D077;stroke:#4D5176;stroke-width:3;stroke-miterlimit:10;}
	.st60{fill:#252735;stroke:#4D5176;stroke-width:1.8;stroke-miterlimit:10;}
	.st61{fill:#3B6FAD;stroke:url(#New_Pattern_Swatch_6);stroke-miterlimit:10;}
	.st62{fill:url(#New_Pattern_Swatch_8);stroke:url(#New_Pattern_Swatch_6);stroke-miterlimit:10;}
	.st63{fill:#A9373A;stroke:#212121;stroke-width:3;stroke-miterlimit:10;}
	.st64{fill:#A9373A;stroke:#212121;stroke-width:0;stroke-miterlimit:10;}
	.st65{fill:#A9373A;stroke:#212121;stroke-width:2;stroke-miterlimit:10;}
	.st66{fill:#E3DEB9;stroke:#212121;stroke-width:2;stroke-miterlimit:10;}
	.st67{fill:#A9373A;stroke:#212121;stroke-miterlimit:10;}
	.st68{fill:#E3DEB9;stroke:#212121;stroke-miterlimit:10;}
	.st69{fill:#A9373A;stroke:#212121;stroke-width:1.4;stroke-miterlimit:10;}
	.st70{fill:#8793BE;}
	.st71{fill:#EAE7D0;stroke:#3E58A7;stroke-width:2;stroke-miterlimit:10;}
	.st72{fill:#CEB646;stroke:#3E58A7;stroke-width:2;stroke-miterlimit:10;}
	.st73{fill:#EAE7D0;stroke:#3E58A7;stroke-miterlimit:10;}
	.st74{fill:#CEB646;stroke:#3E58A7;stroke-width:3;stroke-miterlimit:10;}
	.st75{fill:#CEB646;stroke:#3E58A7;stroke-miterlimit:10;}
	.st76{fill:#EAE7D0;stroke:#3E58A7;stroke-width:1.8;stroke-miterlimit:10;}
	.st77{fill:none;stroke:#3E58A7;stroke-width:0.8;stroke-miterlimit:10;}
</style>
<pattern  x="-405.3" y="-1388.5" width="220.3" height="71" patternUnits="userSpaceOnUse" id="New_Pattern_Swatch_5" viewBox="0 -71 220.3 71" style="overflow:visible;">
	<g>
		<rect y="-71" class="st0" width="220.3" height="71"/>
		<path class="st1" d="M220.3-62.8c-16.8-0.3-33.3-7.8-50.1-7.7c-16.8,0.1-43.2,10-60,10s-43.2-9.9-60-10
			C33.4-70.6,16.8-63.1,0-62.8"/>
		<path class="st1" d="M220.3-42.8c-16.8-0.3-33.3-7.8-50.1-7.7c-16.8,0.1-43.2,10-60,10s-43.2-9.9-60-10
			C33.4-50.6,16.8-43.1,0-42.8"/>
		<path class="st1" d="M220.3-22.8c-16.8-0.3-33.3-7.8-50.1-7.7c-16.8,0.1-43.2,10-60,10s-43.2-9.9-60-10
			C33.4-30.6,16.8-23.1,0-22.8"/>
		<path class="st1" d="M220.3-2.8c-16.8-0.3-33.3-7.8-50.1-7.7c-16.8,0.1-43.2,10-60,10s-43.2-9.9-60-10C33.4-10.6,16.8-3.1,0-2.8"
			/>
	</g>
</pattern>
<pattern  x="-405.3" y="-1388.5" width="20" height="20" patternUnits="userSpaceOnUse" id="New_Pattern_Swatch_6" viewBox="0 -20 20 20" style="overflow:visible;">
	<g>
		<rect y="-20" class="st0" width="20" height="20"/>
		<rect y="-20" class="st2" width="20" height="20"/>
		<path class="st3" d="M16.8-10H3.3 M10-3.3v-13.5"/>
	</g>
</pattern>
<pattern  x="-405.3" y="-1388.5" width="31" height="31" patternUnits="userSpaceOnUse" id="New_Pattern_Swatch_8" viewBox="0 -32 31 31" style="overflow:visible;">
	<g>
		<rect y="-32" class="st0" width="31" height="31"/>
		<path class="st4" d="M3-29"/>
		<path class="st4" d="M0-29c0,4,6,4,6,0S0-33,0-29z M25-29c0,4,6,4,6,0S25-33,25-29z M0-4c0,4,6,4,6,0S0-8,0-4z M25-4c0,4,6,4,6,0
			S25-8,25-4z"/>
		<path class="st4" d="M11.5-16.5l4,4l4-4l-4-4L11.5-16.5z"/>
	</g>
</pattern>
<g id="bg">
	<rect x="101.6" y="-1388.5" class="st5" width="324" height="530.5"/>
	<rect x="-229.5" y="-1386.7" class="st5" width="324" height="530.5"/>
	<rect x="431.8" y="-1388.5" class="st5" width="324" height="530.5"/>
	<rect x="-397.5" y="-1286.6" class="st6" width="1153.3" height="6.8"/>
	<rect x="-396.8" y="-1178" class="st6" width="1152.5" height="6.8"/>
	<rect x="-397.5" y="-1066.2" class="st6" width="1153.3" height="6.8"/>
	<rect x="-397.5" y="-958.9" class="st6" width="1153.3" height="6.8"/>
	<text transform="matrix(1 0 0 1 -368.9571 -1321.5464)" class="st16" style="font-family:'ArcadeNormal'; font-size:24px;">head</text>
	<text transform="matrix(1 0 0 1 -113.6078 -1430.1346)" class="st16" style="font-family:'ArcadeNormal'; font-size:24px;">BOT 1</text>
	<text transform="matrix(1 0 0 1 218.8671 -1430.1346)" class="st16" style="font-family:'ArcadeNormal'; font-size:24px;">BOT 2</text>
	<text transform="matrix(1 0 0 1 544.3669 -1430.1346)" class="st16" style="font-family:'ArcadeNormal'; font-size:24px;">BOT 3</text>
	<text transform="matrix(1 0 0 1 -368.9571 -1215.5934)" class="st16" style="font-family:'ArcadeNormal'; font-size:24px;">eyes</text>
	<text transform="matrix(1 0 0 1 218.867 -1212.6588)" class="st6" style="font-family:'ArcadeNormal'; font-size:24px;">nofit</text>
	<text transform="matrix(1 0 0 1 218.867 -1106.8711)" class="st6" style="font-family:'ArcadeNormal'; font-size:24px;">nofit</text>
	<text transform="matrix(1 0 0 1 -368.9571 -1110.491)" class="st16" style="font-family:'ArcadeNormal'; font-size:24px;">mouth</text>
	<text transform="matrix(1 0 0 1 -368.9571 -996.6875)" class="st16" style="font-family:'ArcadeNormal'; font-size:24px;">part1</text>
	<text transform="matrix(1 0 0 1 -368.9571 -895.4287)" class="st16" style="font-family:'ArcadeNormal'; font-size:24px;">chest</text>
</g>
<g id="part1__x28_line_all_fits_all_x29_">
	<path class="st7" d="M371.2-1017.8v42.9c0.2,0,0.4,0,0.6,0h9c2.4,0,4.3-1.9,4.3-4.3v-34.4c0-1-0.3-1.9-0.9-2.7v-39.7
		c0-1.5-1.2-2.7-2.7-2.7h-0.5c-1.5,0-2.7,1.2-2.7,2.7v38.1h-6.5C371.7-1017.8,371.4-1017.8,371.2-1017.8z"/>
	<g>
		<path class="st8" d="M-77.1-976c0.2-3.9,0-7.8,0.1-11.8c0.1-2.1,0.9-2.7,1.9-2.7c1.4,0,3.4,0,4.9-0.1c2.4-0.1,2.4-0.1,4.3-0.2
			c0.3,0,1.6,0,1.8,0c0.3,0,0.2-3,0.2-3.7c0-3.1,0-6.1,0-9.1c0-7.1,0.3-14.1,0.2-21.2c0-1.2-0.1-2.3-0.7-3.3
			c-1.9-3.1-2.2-6.6-0.9-10.5c1-3.2,3.6-4.7,5.7-3.3c1.6,1,2.8,3,3.1,6.1c0.3,3.3-0.2,6.3-1.9,8.2c-0.5,0.6-0.7,1.3-0.7,2.3
			c0.1,10.4,0,20.8,0.2,31.1c0,0.6,0,2.5,0.4,2.9c0.3,0.4,1.1,0.3,1.5,0.3c0.9,0,2.2,0,2.9,0c2-0.1,2.3,0,3.3,0c1,0,2.1-0.1,3.3-0.1
			c1.7,0,1.3,1,1.3,4.5c0,3.1,0,5.8,0,8.8"/>
		<circle class="st9" cx="-61.1" cy="-1035" r="7.3"/>
	</g>
	<g>
		<path class="st9" d="M593-999.3v36.3h-7c-2.9,0-5.2-2.5-5.2-5.6v-25.1c0-1.8,0.8-3.4,2-4.4v-56.1c0.8,0.5,1.8,0.8,2.8,0.8
			c1,0,2-0.3,2.8-0.8v55H593z"/>
		<path class="st9" d="M591.3-1059c0,2.2-1.2,4.2-2.9,5.2c-0.8,0.5-1.8,0.8-2.8,0.8c-1,0-2-0.3-2.8-0.8c-1.7-1-2.9-3-2.9-5.2
			c0-3.3,2.5-6,5.7-6C588.7-1065,591.3-1062.3,591.3-1059z"/>
	</g>
	<g>
		<path class="st9" d="M611.3-999.3v36.3h7c2.9,0,5.2-2.5,5.2-5.6v-25.1c0-1.8-0.8-3.4-2-4.4v-56.1c-0.8,0.5-1.8,0.8-2.8,0.8
			c-1,0-2-0.3-2.8-0.8v55H611.3z"/>
		<path class="st9" d="M613-1059c0,2.2,1.2,4.2,2.9,5.2c0.8,0.5,1.8,0.8,2.8,0.8s2-0.3,2.8-0.8c1.7-1,2.9-3,2.9-5.2
			c0-3.3-2.5-6-5.7-6S613-1062.3,613-1059z"/>
	</g>
	<path class="st9" d="M711.6-988.2H674c-2.1,0-3.8,1.7-3.8,3.8v3.7c0,2.1,1.7,3.8,3.8,3.8h37.6c2.1,0,3.8-1.7,3.8-3.8v-3.7
		C715.4-986.4,713.7-988.2,711.6-988.2z"/>
	<path class="st8" d="M-128.8-1005.7c0.1-3.4,0-7.4,0.1-11.4c0.1-2.9,0.2-5.9,0-8.8c-0.2-2.5,1.5-3.8,3.3-2.6
		c3.5,2.3,6.3,5.3,7.4,10c0.2,0.9,0.2,1.8,0.2,2.7c0,3.5-0.2,7,0,10.4c0.3,5.1-1.9,8.7-5,11.7c-0.8,0.8-1.7,1.6-2.7,2.1
		c-1.6,0.8-2.6,0.3-3.1-1.6c-0.2-0.8-0.3-1.7-0.3-2.5C-128.7-998.8-128.8-1002-128.8-1005.7z"/>
	<path class="st8" d="M-161.6-995.7c0,0.9-0.1,1.7-0.3,2.5c-0.5,1.9-1.5,2.4-3.1,1.6c-1-0.5-1.9-1.3-2.7-2.1
		c-3.2-3.1-5.3-6.6-5-11.7c0.2-3.5,0-7,0-10.4c0-0.9,0-1.8,0.2-2.7c1.1-4.7,4-7.7,7.4-10c1.9-1.2,3.5,0.1,3.3,2.6
		c-0.2,2.9-0.1,5.9,0,8.8c0.1,4,0,8,0.1,11.4C-161.6-1002-161.6-998.8-161.6-995.7z"/>
	<path class="st6" d="M-137.7-2226.6"/>
	<path class="st6" d="M-149.1-2077.4"/>
	<rect x="691.8" y="-1037.6" class="st10" width="4.2" height="53.9"/>
	<circle class="st11" cx="693.9" cy="-1037.6" r="4"/>
	<g>
		<line class="st12" x1="684.1" y1="-983.4" x2="703.1" y2="-983.4"/>
		<line class="st12" x1="684.6" y1="-983.5" x2="684.6" y2="-988.1"/>
		<line class="st12" x1="702.6" y1="-983.6" x2="702.6" y2="-988.1"/>
	</g>
	<path class="st13" d="M190.5-2311.8"/>
	<path class="st7" d="M351.5-1015.6H345v-38.1c0-1.5-1.2-2.7-2.7-2.7h-0.5c-1.5,0-2.7,1.2-2.7,2.7v39.7c-0.6,0.7-0.9,1.7-0.9,2.7
		v34.4c0,2.4,1.9,4.3,4.3,4.3h9c0.2,0,0.4,0,0.6,0v-42.9C351.9-1015.6,351.7-1015.6,351.5-1015.6z"/>
	<path class="st14" d="M240.4-1007.4c0.1-3.4,0-7.4,0.1-11.4c0.1-2.9-0.3-7.1-0.2-10.7c0.7-1.7,2.1-1.8,3.7-1.1
		c4,1.9,6.1,2.6,7.3,7.3c0.2,0.9,0.2,4.8,0.2,5.7c0,3.5-0.1,10.5,0.1,14c-0.2,5.2-1.7,5.2-5,8.2c0,0,0,0,0,0c-1.1,0.8-1.4,1-2.2,1.3
		c-0.7,0.2-1.5,0.3-2.2-0.1c-0.9-0.4-1.4-1.2-1.7-2.6c-0.1-1,0-1.3,0.1-3C240.4-1002.9,240.4-1003.7,240.4-1007.4z"/>
	<line class="st15" x1="251.6" y1="-1012.2" x2="280.5" y2="-1012.9"/>
	<circle class="st14" cx="285.5" cy="-1012.9" r="5.8"/>
	<path class="st14" d="M213.9-998c0.1,1.6,0.1,2,0.1,3c-0.3,1.4-0.8,2.1-1.7,2.6c-0.7,0.3-1.5,0.3-2.2,0.1c-0.9-0.3-1.2-0.5-2.2-1.3
		c0,0,0,0,0,0c-3.3-3-4.8-3-5-8.2c0.2-3.5,0.1-10.5,0.1-14c0-0.9,0-4.9,0.2-5.7c1.1-4.7,3.2-5.3,7.3-7.3c1.6-0.8,3-0.6,3.7,1.1
		c0.1,3.6-0.2,7.8-0.2,10.7c0.1,4,0,8,0.1,11.4C213.9-1001.9,213.9-1001.1,213.9-998z"/>
	<line class="st15" x1="202.7" y1="-1010.4" x2="173.7" y2="-1011.1"/>
	<circle class="st14" cx="168.7" cy="-1011.1" r="5.8"/>
	<path class="st8" d="M507.7-985.8c0.1-2.9,0-6.3,0.1-9.6c0.1-2.5,0.2-5,0-7.5c-0.2-2.1,1.4-3.2,3.1-2.2c3.3,1.9,6,4.5,7.1,8.4
		c0.2,0.7,0.2,1.5,0.2,2.2c0,2.9-0.2,5.9,0,8.8c0.3,4.3-1.8,7.3-4.8,9.9c-0.8,0.7-1.6,1.3-2.6,1.8c-1.5,0.7-2.5,0.3-2.9-1.4
		c-0.2-0.7-0.3-1.4-0.3-2.1C507.7-980.1,507.7-982.7,507.7-985.8z"/>
	<path class="st6" d="M519.7-1025.5"/>
	<path class="st6" d="M629.2-2061.4"/>
	<path class="st9" d="M509-1010.1v39.6c0.2,0,0.3,0,0.5,0h7.2c1.9,0,3.4-1.8,3.4-3.9v-31.8c0-0.9-0.3-1.8-0.7-2.5v-36.6
		c0-1.4-1-2.5-2.2-2.5h-0.4c-1.2,0-2.2,1.1-2.2,2.5v35.1h-5.2C509.3-1010.2,509.1-1010.2,509-1010.1z"/>
	<line class="st12" x1="512.9" y1="-1006.8" x2="512.9" y2="-973.6"/>
	<path class="st8" d="M475.9-977.4c0,0.7-0.1,1.4-0.3,2.1c-0.4,1.6-1.4,2.1-2.9,1.4c-1-0.5-1.8-1.1-2.6-1.8c-3-2.6-5.1-5.6-4.8-9.9
		c0.2-2.9,0-5.9,0-8.8c0-0.8,0-1.5,0.2-2.2c1.1-3.9,3.8-6.5,7.1-8.4c1.8-1,3.3,0.1,3.1,2.2c-0.2,2.5-0.1,5,0,7.5
		c0.1,3.4,0,6.7,0.1,9.6C475.9-982.7,475.9-980.1,475.9-977.4z"/>
	<path class="st6" d="M463.8-1025.5"/>
	<path class="st6" d="M578-2061.4"/>
	<path class="st9" d="M474.1-1010.2h-5.2v-35.1c0-1.4-1-2.5-2.2-2.5h-0.4c-1.2,0-2.2,1.1-2.2,2.5v36.6c-0.5,0.7-0.7,1.5-0.7,2.5
		v31.8c0,2.2,1.5,3.9,3.4,3.9h7.2c0.2,0,0.3,0,0.5,0v-39.6C474.4-1010.2,474.3-1010.2,474.1-1010.2z"/>
	<line class="st12" x1="470.6" y1="-1006.8" x2="470.6" y2="-973.6"/>
	<path class="st8" d="M38.7-987.3c0.1-2.9,0-6.3,0.1-9.6c0.1-2.5,0.2-5,0-7.5c-0.2-2.1,1.4-3.2,3.1-2.2c3.3,1.9,6,4.5,7.1,8.4
		c0.2,0.7,0.2,1.5,0.2,2.2c0,2.9-0.2,5.9,0,8.8c0.3,4.3-1.8,7.3-4.8,9.9c-0.8,0.7-1.6,1.3-2.6,1.8c-1.5,0.7-2.5,0.3-2.9-1.4
		c-0.2-0.7-0.3-1.4-0.3-2.1C38.7-981.5,38.7-984.2,38.7-987.3z"/>
	<path class="st6" d="M50.8-1027"/>
	<path class="st9" d="M40-1011.6v39.6c0.2,0,0.3,0,0.5,0h7.2c1.9,0,3.4-1.8,3.4-3.9v-31.8c0-0.9-0.3-1.8-0.7-2.5v-36.6
		c0-1.4-1-2.5-2.2-2.5h-0.4c-1.2,0-2.2,1.1-2.2,2.5v35.1h-5.2C40.4-1011.7,40.2-1011.6,40-1011.6z"/>
	<line class="st12" x1="44" y1="-1008.3" x2="44" y2="-975.1"/>
	<path class="st8" d="M7-978.9c0,0.7-0.1,1.4-0.3,2.1c-0.4,1.6-1.4,2.1-2.9,1.4c-1-0.5-1.8-1.1-2.6-1.8c-3-2.6-5.1-5.6-4.8-9.9
		c0.2-2.9,0-5.9,0-8.8c0-0.8,0-1.5,0.2-2.2c1.1-3.9,3.8-6.5,7.1-8.4c1.8-1,3.3,0.1,3.1,2.2c-0.2,2.5-0.1,5,0,7.5
		c0.1,3.4,0,6.7,0.1,9.6C7-984.2,7-981.5,7-978.9z"/>
	<path class="st6" d="M-5.1-1027"/>
	<path class="st9" d="M5.1-1011.7h-5.2v-35.1c0-1.4-1-2.5-2.2-2.5h-0.4c-1.2,0-2.2,1.1-2.2,2.5v36.6c-0.5,0.7-0.7,1.5-0.7,2.5v31.8
		c0,2.2,1.5,3.9,3.4,3.9h7.2c0.2,0,0.3,0,0.5,0v-39.6C5.5-1011.6,5.3-1011.7,5.1-1011.7z"/>
	<line class="st12" x1="1.7" y1="-1008.3" x2="1.7" y2="-975.1"/>
</g>
<g id="chest_03">
	<path class="st8" d="M692.8-926.3v36.7c0,3.8-38.3,17.4-52.6,23.4l-64.9-0.6c-30.2-14-45.3-18.5-45.3-22.3v-37.1
		c0-1.1,0.2-2.1,0.7-3c1.1-2.3,3.5-3.9,6.2-3.9h149c2.8,0,5.2,1.7,6.3,4.1C692.5-928.3,692.8-927.3,692.8-926.3z"/>
	<path class="st8" d="M529.9-928.1c-0.4,0.9,0,1.8,0,2.8v34.6h-4c-1.6,0-3-1.2-3-2.8v-31.9c0-1.5,1.3-2.8,3-2.8H529.9z"/>
	<path class="st8" d="M518.5-922.3h4.5v27.7h-4.5c-3,0-5.4-2.3-5.4-5.1v-17.5C513.1-920,515.5-922.3,518.5-922.3z"/>
	<path class="st8" d="M702.4-925.5v28.9c0,1.4-1.3,2.5-3,2.5h-6.6v-31.5c0-0.9,0.4-1.7,0-2.5h6.6C701-928,702.4-926.9,702.4-925.5z"
		/>
	<path class="st8" d="M712.2-918.1v13.8c0,2.2-2.4,4-5.4,4h-4.5v-21.9h4.5C709.8-922.2,712.2-920.4,712.2-918.1z"/>
	<path class="st8" d="M670.2-879.2c-11.1,4.5-23.5,9.1-30.5,12l-64.9-0.6c-8.8-4.1-16.3-7.3-22.5-10c2.3-9.8,7.4-18.6,15.2-26
		c7.8-7.3,16.8-12.6,27.8-15.2c3.3-0.8,6.7-0.9,9.9-2.1h0.3c4.7,0.3,9.3-0.2,14.1,0.5c8.1,1.1,15.6,3.5,22.7,7.2
		C656.1-906.1,666.2-893.6,670.2-879.2z"/>
</g>
<g id="chest_02">
	<path class="st8" d="M348.7-930v36.7c0,3.8-38.3,17.4-52.6,23.4l-64.9-0.6c-30.2-14-45.3-18.5-45.3-22.3V-930c0-1.1,0.2-2.1,0.7-3
		c1.1-2.3,3.5-3.9,6.2-3.9h149c2.8,0,5.2,1.7,6.3,4.1C348.5-932,348.7-931,348.7-930z"/>
	<path class="st8" d="M185.9-931.8c-0.4,0.9,0,1.8,0,2.8v34.6h-4c-1.6,0-3-1.2-3-2.8V-929c0-1.5,1.3-2.8,3-2.8H185.9z"/>
	<path class="st8" d="M174.4-926h4.5v27.7h-4.5c-3,0-5.4-2.3-5.4-5.1v-17.5C169.1-923.7,171.5-926,174.4-926z"/>
	<path class="st8" d="M358.3-929.2v28.9c0,1.4-1.3,2.5-3,2.5h-6.6v-31.5c0-0.9,0.4-1.7,0-2.5h6.6C357-931.7,358.3-930.6,358.3-929.2
		z"/>
	<path class="st8" d="M368.2-921.8v13.8c0,2.2-2.4,4-5.4,4h-4.5v-21.9h4.5C365.8-925.9,368.2-924.1,368.2-921.8z"/>
	<circle class="st12" cx="284.3" cy="-919.2" r="2"/>
	<circle class="st12" cx="292" cy="-919.2" r="2"/>
	<path class="st12" d="M334.7-917.2H300c-0.6,0-1.1-0.5-1.1-1.1v-1.9c0-0.6,0.5-1.1,1.1-1.1h34.7c0.6,0,1.1,0.5,1.1,1.1v1.9
		C335.8-917.7,335.3-917.2,334.7-917.2z"/>
</g>
<g id="chest_01">
	<path class="st8" d="M20.2-930v36.7c0,3.8-38.3,17.4-52.6,23.4l-64.9-0.6c-30.2-14-45.3-18.5-45.3-22.3V-930c0-1.1,0.2-2.1,0.7-3
		c1.1-2.3,3.5-3.9,6.2-3.9h149c2.8,0,5.2,1.7,6.3,4.1C19.9-932,20.2-931,20.2-930z"/>
	<path class="st8" d="M-142.7-931.8c-0.4,0.9,0,1.8,0,2.8v34.6h-4c-1.6,0-3-1.2-3-2.8V-929c0-1.5,1.3-2.8,3-2.8H-142.7z"/>
	<path class="st8" d="M-154.2-926h4.5v27.7h-4.5c-3,0-5.4-2.3-5.4-5.1v-17.5C-159.5-923.7-157.1-926-154.2-926z"/>
	<path class="st8" d="M29.7-929.2v28.9c0,1.4-1.3,2.5-3,2.5h-6.6v-31.5c0-0.9,0.4-1.7,0-2.5h6.6C28.4-931.7,29.7-930.6,29.7-929.2z"
		/>
	<path class="st8" d="M39.6-921.8v13.8c0,2.2-2.4,4-5.4,4h-4.5v-21.9h4.5C37.2-925.9,39.6-924.1,39.6-921.8z"/>
</g>
<g id="mouth_04">
	<path class="st8" d="M595.9-1106.9v-14.1c0-1.8,1.6-3.2,3.5-3.2h134.8c1.9,0,3.5,1.5,3.5,3.2v14.1"/>
</g>
<g id="mouth_03">
	<path class="st10" d="M457.1-1134.5v36.1c0,1,1.3,1.9,2.9,1.9h109.5c1.6,0,2.9-0.8,2.9-1.9v-36.1"/>
</g>
<g id="mouth_02">
	<path class="st16" d="M-52.4-1086.9c-2.2,0.9-4.3,0.8-6.5-0.2c-3.2-1.5-6.3-2.8-9.5-4.3c-1.2-0.5-2.3-0.6-3.6-0.1
		c-3.8,1.6-7.6,3-11.3,4.6c-1.7,0.7-3.4,0.7-5-0.1c-3.5-1.6-7-3.1-10.4-4.7c-1.6-0.8-2.9-0.8-4.5,0c-3.3,1.6-6.5,3.2-9.8,4.7
		c-1.1,0.5-2.3,1-3.6,1c-1,0-1.9-0.4-2.8-0.9c-3-1.7-6-3.3-8.9-5.1c-1-0.6-2.5-1.4-1.8-2.9c0.7-1.4,2.2-0.8,3.4-0.4
		c2.8,1,5.4,2.6,8,4c1.5,0.9,2.9,0.9,4.5,0.1c3.3-1.6,6.6-3,9.9-4.6c2.2-1.1,4.1-1.3,6.3-0.2c3.5,1.7,7.2,3.1,10.7,4.7
		c1,0.5,2,0.5,3,0.1c3.4-1.4,6.9-2.6,10.3-4.1c2.7-1.2,5.3-1.2,8,0.1c2.9,1.4,6,2.6,8.9,4c1.6,0.7,3.1,0.3,4.6-0.3
		c4-1.5,7.9-3,11.8-4.6c2.4-1,4.6-0.8,6.8,0.4c2.7,1.5,5.5,3,8.3,4.6c1,0.6,2.3,1.1,1.7,2.7c-0.5,1.1-2.2,1.6-3.6,1
		c-1.5-0.6-3-1.2-4.2-2.1c-3.9-3-7.7-3.5-12.1-1"/>
</g>
<g id="mouth_01">
	<path class="st8" d="M-151-1134.7v-14.1c0-1.8,1.6-3.2,3.5-3.2h134.8c1.9,0,3.5,1.5,3.5,3.2v14.1"/>
</g>
<g id="eyes_04">
	<path class="st17" d="M648.6-1189.3H513c-9.8,0-17.8-8-17.8-17.8v0c0-9.8,8-17.8,17.8-17.8h135.5c9.8,0,17.8,8,17.8,17.8v0
		C666.4-1197.3,658.4-1189.3,648.6-1189.3z"/>
</g>
<g id="eyes_03">
	<path class="st8" d="M652.1-1247.8h-64.9c-0.9,0-1.6-0.7-1.6-1.6v-6.6c0-0.9,0.7-1.6,1.6-1.6h64.9c0.9,0,1.6,0.7,1.6,1.6v6.6
		C653.7-1248.5,653-1247.8,652.1-1247.8z"/>
	<path class="st8" d="M574.1-1247.8h-64.8c-0.9,0-1.6-0.7-1.6-1.6v-6.5c0-0.9,0.7-1.6,1.6-1.6h64.8c0.9,0,1.6,0.7,1.6,1.6v6.5
		C575.8-1248.5,575-1247.8,574.1-1247.8z"/>
</g>
<g id="eyes_02">
	<path class="st8" d="M-6.4-1205.9h-122.3c-2.5,0-4.5-2-4.5-4.5v-9.8c0-2.5,2-4.5,4.5-4.5H-6.4c2.5,0,4.5,2,4.5,4.5v9.8
		C-1.8-1208-3.9-1205.9-6.4-1205.9z"/>
</g>
<g id="eyes_01">
	<path class="st8" d="M3.8-1246.2h-142.7c-2.8,0-5-2.2-5-5v-9.8c0-2.8,2.2-5,5-5H3.8c2.8,0,5,2.2,5,5v9.8
		C8.8-1248.4,6.6-1246.2,3.8-1246.2z"/>
	<circle class="st12" cx="-109.8" cy="-1255.7" r="3"/>
	<circle class="st12" cx="-80.1" cy="-1255.7" r="3"/>
	<circle class="st12" cx="-51.2" cy="-1255.7" r="3"/>
	<circle class="st12" cx="-24.2" cy="-1255.7" r="3"/>
</g>
<g id="head_1">
	<path class="st8" d="M28.3-1363.3v45.1c0,4.6-3.7,8.3-8.3,8.3h-175.1c-4.6,0-8.3-3.7-8.3-8.3v-45.1c0-4.6,3.7-8.3,8.3-8.3H20
		C24.6-1371.5,28.3-1367.8,28.3-1363.3z"/>
</g>
<g id="head_2">
	<path class="st0" d="M304.3-1335.9c0.6,18.5-15,34.8-34.6,34.5c-19.3-0.3-34.2-15.1-34.3-34.5c-0.1-19.2,15.2-34.7,35.1-34.6
		C288.8-1370.4,305-1354.8,304.3-1335.9z M270-1303.4c18.4,0.3,32.8-14.6,32.8-32.6c0-17.2-13.8-33.8-35.5-32.5
		c-15,0.9-30.8,13.9-30,34.1C237.9-1318.3,251.3-1303.1,270-1303.4z"/>
	<path class="st13" d="M297.9-1304.8"/>
	<path class="st7" d="M312.8-1336c0,10.9-4.1,20.8-10.8,28.4c0,0,0,0-0.1,0.1c-7.9,8.9-19.3,14.4-32.1,14.4s-24.2-5.6-32.1-14.4
		c-6.7-7.6-10.8-17.6-10.8-28.5c0-8.7,2.6-16.9,7.1-23.6c7.7-11.6,20.9-19.3,35.8-19.3c14.9,0,28.1,7.6,35.8,19.2c0,0,0,0,0.1,0.1
		C310.2-1352.8,312.8-1344.7,312.8-1336z"/>
	<path class="st17" d="M313-1336c0,10.9-4.1,20.9-10.8,28.5c-7.9,8.9-19.3,14.4-32.1,14.4c-12.8,0-24.2-5.6-32.1-14.4
		c-6.7-7.6-10.8-17.6-10.8-28.5c0-8.7,2.6-16.9,7.1-23.6c7.7-11.6,20.9-19.3,35.8-19.3c15,0,28.1,7.7,35.8,19.3
		C310.4-1352.9,313-1344.8,313-1336z"/>
	<circle class="st18" cx="270.1" cy="-1336" r="34.4"/>
	<path class="st17" d="M238-1307.5h-80.6c-2.3,0-4.2-1.9-4.2-4.2v-43.7c0-2.3,1.9-4.2,4.2-4.2h76.9c-4.5,6.8-7.1,14.9-7.1,23.6
		C227.1-1325.1,231.2-1315.1,238-1307.5z"/>
	<path class="st17" d="M375.8-1355.4v43.7c0,2.3-1.9,4.2-4.2,4.2h-69.5c6.7-7.6,10.8-17.5,10.8-28.4c0-8.7-2.6-16.9-7.1-23.6
		c0,0,0,0-0.1-0.1h65.9C373.9-1359.7,375.8-1357.8,375.8-1355.4z"/>
</g>
<g id="head_3">
	<path class="st8" d="M674.1-1360.8v44.5c0,2.1-1.9,3.7-4.2,3.7H496c-2.3,0-4.2-1.7-4.2-3.7v-44.5c0-2.1,1.9-3.8,4.2-3.8h173.9
		C672.2-1364.5,674.1-1362.8,674.1-1360.8z"/>
</g>
<g id="_x5B_dvd_x5D_">
	<text transform="matrix(1 0 0 1 -396.7816 -1487.859)" class="st6" style="font-family:'ArcadeNormal'; font-size:10px;">PARTS /</text>
	<text transform="matrix(1 0 0 1 -396.7816 -820.8705)" class="st6" style="font-family:'ArcadeNormal'; font-size:10px;">VARIATIONS /</text>
</g>
<g id="bot_01">
	<path class="st19" d="M-116.1-625.1v25.3c0,4.2-2.4,7.7-5.3,7.7h-4.9c-0.6,0-1.1-0.7-1.1-1.6v-35.9c0-0.9,0.5-1.6,1.1-1.6h2.9
		c0.6,0,1.1-0.7,1.1-1.6v-17.9c0-2,1.1-3.6,2.5-3.6h0c1.4,0,2.5,1.6,2.5,3.6v20.4c0,0.4,0.1,0.8,0.3,1.1
		C-116.5-628.1-116.1-626.7-116.1-625.1z"/>
	<path class="st19" d="M-310.9-633.1v43.2h-7c-2.9,0-5.2-3-5.2-6.7v-29.9c0-2.1,0.8-4,2-5.3v-66.8c0.8,0.6,1.8,0.9,2.8,0.9
		c1,0,2-0.3,2.8-0.9v65.4H-310.9z"/>
	<path class="st20" d="M-116.1-651.9"/>
	<path class="st20" d="M-118.5-598.8"/>
	<rect x="-233.5" y="-582" class="st20" width="25" height="44.1"/>
	<path class="st19" d="M-138.2-532v36.9c0,3.9-38.5,17.5-52.9,23.5l-65.3-0.6c-30.4-14.1-45.6-18.6-45.6-22.5V-532
		c0-1.1,0.2-2.1,0.7-3c1.1-2.3,3.5-4,6.3-4h149.9c2.8,0,5.2,1.7,6.3,4.1C-138.4-534-138.2-533-138.2-532z"/>
	<path class="st21" d="M-164.4-485.1c-11.1,4.5-23.5,9.1-30.5,12l-64.9-0.6c-8.8-4.1-16.3-7.3-22.5-10c2.3-9.8,7.4-18.6,15.2-26
		c7.8-7.3,16.8-12.6,27.8-15.2c3.3-0.8,5.3-1.5,9.9-2.1h0.3c5.4-0.4,9.3-0.2,14.1,0.5c8.1,1.1,15.6,3.5,22.7,7.2
		C-178.5-512-168.4-499.5-164.4-485.1z"/>
	<path class="st20" d="M-313.1-530h4.9v29.9h-4.9c-3.2,0-5.8-2.5-5.8-5.5v-18.9C-318.9-527.6-316.3-530-313.1-530z"/>
	<path class="st19" d="M-127.4-636.7v50.5c0,2.3-1.9,4.2-4.2,4.2h-175c-2.3,0-4.2-1.9-4.2-4.2v-50.5c0-2.3,1.9-4.3,4.2-4.3h175
		C-129.3-641-127.4-639.1-127.4-636.7z"/>
	<path class="st19" d="M-131.5-531.2v29.1c0,1.4-0.9,2.6-2.1,2.6h-4.6v-31.7c0-0.9,0.3-1.7,0-2.5h4.6
		C-132.5-533.8-131.5-532.6-131.5-531.2z"/>
	<path class="st20" d="M-122.6-523.8v13.9c0,2.2-2.2,4.1-4.8,4.1h-4.1v-22h4.1C-124.8-527.9-122.6-526.1-122.6-523.8z"/>
	<path class="st21" d="M-156.4-612h-130.1c-2.3,0-4.2-1.9-4.2-4.2v-6.9c0-2.3,1.9-4.2,4.2-4.2h130.1c2.3,0,4.2,1.9,4.2,4.2v6.9
		C-152.2-613.9-154.1-612-156.4-612z"/>
	<path class="st21" d="M-269-582.4v-13.5c0-1.6,1.3-2.8,2.8-3.7h98.8c1.6,0.9,2.8,2.1,2.8,3.7v13.5"/>
	<path class="st20" d="M-312.6-702.6c0,2.2-1.2,4.2-2.9,5.2c-0.8,0.5-1.8,0.8-2.8,0.8s-2-0.3-2.8-0.8c-1.7-1-2.9-3-2.9-5.2
		c0-3.3,2.5-6,5.7-6C-315.1-708.6-312.6-705.9-312.6-702.6z"/>
	<path class="st19" d="M-302-533.9c-0.5,0.9,0,1.8,0,2.8v34.8h-4c-1.7,0-3-1.3-3-2.8v-32c0-1.6,1.3-2.8,3-2.8H-302z"/>
	<circle class="st22" cx="-223.4" cy="-622.7" r="152.4"/>
</g>
<g id="bot_02">
	<circle class="st23" cx="180.9" cy="-622.7" r="151.5"/>
	<circle class="st23" cx="180.9" cy="-622.7" r="151.5"/>
	<path class="st24" d="M275.5-607c0.1-3.3,0-7.1,0.1-10.9c0.1-2.8,0.2-5.6,0-8.4c-0.2-2.4,1.4-3.7,3.1-2.5c3.3,2.2,6,5.1,7.1,9.5
		c0.2,0.8,0.2,1.7,0.2,2.5c0,3.3-0.2,6.6,0,9.9c0.3,4.9-1.8,8.3-4.8,11.2c-0.8,0.8-1.6,1.5-2.6,2c-1.5,0.8-2.5,0.3-2.9-1.5
		c-0.2-0.8-0.3-1.6-0.3-2.4C275.5-600.5,275.5-603.5,275.5-607z"/>
	<path class="st24" d="M94.8-598.4c0,0.8-0.1,1.6-0.3,2.4c-0.4,1.8-1.4,2.3-2.9,1.5c-1-0.5-1.8-1.3-2.6-2c-3-2.9-5.1-6.3-4.8-11.2
		c0.2-3.3,0-6.6,0-9.9c0-0.8,0-1.7,0.2-2.5c1.1-4.4,3.8-7.3,7.1-9.5c1.8-1.2,3.3,0.1,3.1,2.5c-0.2,2.8-0.1,5.6,0,8.4
		c0.1,3.8,0,7.6,0.1,10.9C94.8-604.4,94.8-601.4,94.8-598.4z"/>
	<path class="st24" d="M168.4-634.6c0.2-3.9,0-7.8,0.1-11.8c0.1-2.1,0.9-2.7,1.9-2.7c1.4,0,3.4,0,4.9-0.1c2.4-0.1,2.4-0.1,4.3-0.2
		c0.3,0,1.6,0,1.8,0c0.3,0,0.2-3,0.2-3.7c0-3.1,0-6.1,0-9.1c0-7.1,0.3-14.1,0.2-21.2c0-1.2-0.1-2.3-0.7-3.3
		c-1.9-3.1-2.2-6.6-0.9-10.5c1-3.2,3.6-4.7,5.7-3.3c1.6,1,2.8,3,3.1,6.1c0.3,3.3-0.2,6.3-1.9,8.2c-0.5,0.6-0.7,1.3-0.7,2.3
		c0.1,10.4,0,20.8,0.2,31.1c0,0.6,0,2.5,0.4,2.9c0.3,0.4,1.1,0.3,1.5,0.3c0.9,0,2.2,0,2.9,0c2-0.1,2.3,0,3.3,0c1,0,2.1-0.1,3.3-0.1
		c1.7,0,1.3,1,1.3,4.5c0,3.1,0,5.8,0,8.8"/>
	<path class="st25" d="M287.6-651.8"/>
	<path class="st25" d="M285.2-599"/>
	<rect x="168.4" y="-580.8" class="st24" width="31" height="43.9"/>
	<path class="st26" d="M265.7-532.6v36.7c0,3.8-38.3,17.4-52.6,23.4l-64.9-0.6c-30.2-14-45.3-18.5-45.3-22.3v-37.1
		c0-1.1,0.2-2.1,0.7-3c1.1-2.3,3.5-3.9,6.2-3.9h149c2.8,0,5.2,1.7,6.3,4.1C265.4-534.6,265.7-533.6,265.7-532.6z"/>
	<path class="st27" d="M102.8-534.4c-0.4,0.9,0,1.8,0,2.8v34.6h-4c-1.6,0-3-1.2-3-2.8v-31.9c0-1.5,1.3-2.8,3-2.8H102.8z"/>
	<path class="st24" d="M91.4-528.6h4.5v27.7h-4.5c-3,0-5.4-2.3-5.4-5.1v-17.5C86-526.3,88.4-528.6,91.4-528.6z"/>
	<path class="st24" d="M276.3-636.7v50.2c0,2.3-1.9,4.2-4.2,4.2H98.2c-2.3,0-4.2-1.9-4.2-4.2v-50.2c0-2.3,1.9-4.2,4.2-4.2h173.9
		C274.4-640.9,276.3-639,276.3-636.7z"/>
	<path class="st27" d="M275.2-531.8v28.9c0,1.4-1.3,2.5-3,2.5h-6.6v-31.5c0-0.9,0.4-1.7,0-2.5h6.6
		C273.9-534.3,275.2-533.2,275.2-531.8z"/>
	<path class="st24" d="M285.1-524.4v13.8c0,2.2-2.4,4-5.4,4h-4.5v-21.9h4.5C282.7-528.5,285.1-526.7,285.1-524.4z"/>
	<circle class="st28" cx="180.9" cy="-622.7" r="151.5"/>
	<path class="st29" d="M246.6-610.4H124.3c-2.5,0-4.5-2-4.5-4.5v-9.8c0-2.5,2-4.5,4.5-4.5h122.3c2.5,0,4.5,2,4.5,4.5v9.8
		C251.2-612.4,249.1-610.4,246.6-610.4z"/>
	<path class="st30" d="M147.5-590.6c-1,0-1.8-0.4-2.6-0.8c-2.9-1.6-5.7-3.2-8.5-4.8c-1-0.6-2.4-1.3-1.7-2.7c0.7-1.3,2.1-0.7,3.2-0.3
		c2.7,1,5.1,2.5,7.6,3.8c1.5,0.8,2.8,0.9,4.2,0.1c3.1-1.5,6.3-2.8,9.4-4.4c2.1-1,3.9-1.2,6-0.2c3.4,1.6,6.8,3,10.2,4.5
		c1,0.4,1.9,0.5,2.8,0.1c3.3-1.3,6.6-2.5,9.8-3.9c2.6-1.2,5-1.2,7.6,0.1c2.8,1.4,5.7,2.5,8.5,3.8c1.5,0.7,2.9,0.3,4.3-0.3
		c3.8-1.5,7.6-2.8,11.3-4.4c2.3-1,4.4-0.8,6.5,0.4c2.6,1.5,5.3,2.9,7.9,4.3c1,0.6,2.2,1.1,1.6,2.6c-0.4,1.1-2.1,1.5-3.4,1
		c-1.4-0.6-2.8-1.1-4-2c-3.7-2.8-7.4-3.3-11.5-1c-2.5,1.4-5.4,2.1-8.1,3.2c-2.1,0.9-4.1,0.7-6.2-0.2c-3-1.4-6-2.7-9-4.1
		c-1.1-0.5-2.2-0.6-3.4-0.1c-3.6,1.5-7.2,2.9-10.8,4.4c-1.7,0.7-3.2,0.7-4.8-0.1c-3.3-1.5-6.6-2.9-9.9-4.5c-1.5-0.7-2.8-0.7-4.3,0
		c-3.1,1.6-6.2,3-9.4,4.5C149.8-591,148.7-590.6,147.5-590.6z"/>
	<circle class="st24" cx="184.3" cy="-693.6" r="7.3"/>
	<circle class="st31" cx="201.2" cy="-521.8" r="2"/>
	<circle class="st31" cx="208.9" cy="-521.8" r="2"/>
	<circle class="st32" cx="141.1" cy="-619.8" r="3"/>
	<circle class="st32" cx="170.8" cy="-619.8" r="3"/>
	<circle class="st32" cx="199.7" cy="-619.8" r="3"/>
	<circle class="st32" cx="226.7" cy="-619.8" r="3"/>
	<path class="st33" d="M251.6-519.8h-34.7c-0.6,0-1.1-0.5-1.1-1.1v-1.9c0-0.6,0.5-1.1,1.1-1.1h34.7c0.6,0,1.1,0.5,1.1,1.1v1.9
		C252.7-520.3,252.2-519.8,251.6-519.8z"/>
</g>
<g id="bot_03">
	<circle class="st34" cx="586.3" cy="-622.7" r="151.5"/>
	<rect x="573.7" y="-582.2" class="st35" width="31" height="43.9"/>
	<path class="st35" d="M671-532.6v36.7c0,3.8-38.3,17.4-52.6,23.4l-64.9-0.6c-30.2-14-45.3-18.5-45.3-22.3v-37.1
		c0-1.1,0.2-2.1,0.7-3c1.1-2.3,3.5-3.9,6.2-3.9h149c2.8,0,5.2,1.7,6.3,4.1C670.8-534.6,671-533.6,671-532.6z"/>
	<path class="st35" d="M508.2-534.4c-0.4,0.9,0,1.8,0,2.8v34.6h-4c-1.6,0-3-1.2-3-2.8v-31.9c0-1.5,1.3-2.8,3-2.8H508.2z"/>
	<path class="st35" d="M496.7-528.6h4.5v27.7h-4.5c-3,0-5.4-2.3-5.4-5.1v-17.5C491.3-526.3,493.7-528.6,496.7-528.6z"/>
	<path class="st35" d="M680.6-531.8v28.9c0,1.4-1.3,2.5-3,2.5H671v-31.5c0-0.9,0.4-1.7,0-2.5h6.6
		C679.3-534.3,680.6-533.2,680.6-531.8z"/>
	<path class="st35" d="M690.4-524.4v13.8c0,2.2-2.4,4-5.4,4h-4.5v-21.9h4.5C688-528.5,690.4-526.7,690.4-524.4z"/>
	<circle class="st28" cx="586.3" cy="-622.7" r="151.5"/>
	<path class="st35" d="M617.1-615.8c0.5,15.1-12.2,28.3-28.2,28.1c-15.7-0.2-27.8-12.3-27.9-28.1c-0.1-15.6,12.3-28.2,28.6-28.2
		C604.5-643.8,617.7-631.1,617.1-615.8z M589.2-589.3c15,0.3,26.7-11.9,26.7-26.5c0-14-11.2-27.5-28.9-26.5
		c-12.2,0.7-25,11.3-24.4,27.7C563-601.4,573.9-589.1,589.2-589.3z"/>
	<path class="st35" d="M611.9-590.5"/>
	<path class="st36" d="M684.5-629.6v32.5c0.2,0,0.3,0,0.5,0h7.2c1.9,0,3.4-1.4,3.4-3.2v-26.1c0-0.8-0.3-1.5-0.7-2v-30.1
		c0-1.1-1-2-2.2-2h-0.4c-1.2,0-2.2,0.9-2.2,2v28.8H685C684.8-629.6,684.7-629.6,684.5-629.6z"/>
	<path class="st36" d="M493.5-629.6h-5.2v-28.8c0-1.1-1-2-2.2-2h-0.4c-1.2,0-2.2,0.9-2.2,2v30.1c-0.5,0.6-0.7,1.3-0.7,2v26.1
		c0,1.8,1.5,3.2,3.4,3.2h7.2c0.2,0,0.3,0,0.5,0v-32.5C493.9-629.6,493.7-629.6,493.5-629.6z"/>
	<path class="st35" d="M684.5-631.6v35.6c0,1.9-1.8,3.4-4,3.4h-66.2c6.4-6.2,10.3-14.3,10.3-23.1c0-7.1-2.5-13.7-6.8-19.3
		c0,0,0,0-0.1-0.1h62.8C682.7-635.1,684.5-633.6,684.5-631.6z"/>
	<path class="st35" d="M624-615.8c0,8.9-3.3,17-8.8,23.1c0,0,0,0-0.1,0.1c-6.4,7.2-15.7,11.8-26.1,11.8c-10.4,0-19.7-4.5-26.1-11.8
		c-5.5-6.2-8.8-14.3-8.8-23.2c0-7.1,2.1-13.7,5.8-19.3c6.3-9.5,17-15.7,29.2-15.7c12.2,0,22.9,6.2,29.1,15.6c0,0,0,0,0,0.1
		C621.9-629.5,624-622.9,624-615.8z"/>
	<path class="st35" d="M624.2-615.8c0,8.9-3.3,17-8.8,23.2c-6.4,7.2-15.7,11.8-26.1,11.8s-19.7-4.5-26.1-11.8
		c-5.5-6.2-8.8-14.3-8.8-23.2c0-7.1,2.1-13.7,5.8-19.3c6.3-9.5,17-15.7,29.2-15.7s22.9,6.2,29.2,15.7
		C622-629.6,624.2-623,624.2-615.8z"/>
	<circle class="st36" cx="589.2" cy="-615.8" r="28"/>
	<path class="st35" d="M563.1-592.7h-65.6c-1.9,0-3.4-1.5-3.4-3.4v-35.6c0-1.9,1.5-3.4,3.4-3.4h62.6c-3.7,5.5-5.8,12.1-5.8,19.3
		C554.3-606.9,557.6-598.8,563.1-592.7z"/>
	<circle class="st36" cx="606.4" cy="-521.7" r="2"/>
	<circle class="st36" cx="614.1" cy="-521.7" r="2"/>
	<path class="st36" d="M656.8-519.6h-34.7c-0.6,0-1.1-0.5-1.1-1.1v-1.9c0-0.6,0.5-1.1,1.1-1.1h34.7c0.6,0,1.1,0.5,1.1,1.1v1.9
		C657.9-520.1,657.4-519.6,656.8-519.6z"/>
	<line class="st36" x1="520.3" y1="-525.5" x2="520.3" y2="-490.5"/>
	<path class="st35" d="M692.9-603.8"/>
	<line class="st37" x1="489.1" y1="-626.9" x2="489.1" y2="-599.6"/>
	<line class="st37" x1="689.5" y1="-626.9" x2="689.5" y2="-599.6"/>
	<path class="st35" d="M485.7-603.8"/>
</g>
<g id="bot_04">
	<circle class="st38" cx="180.4" cy="184.7" r="151.5"/>
	<rect x="167.9" y="225.2" class="st39" width="31" height="43.9"/>
	<path class="st40" d="M265.2,274.8v36.7c0,3.8-38.3,17.4-52.6,23.4l-64.9-0.6c-30.2-14-45.3-18.5-45.3-22.3v-37.1
		c0-1.1,0.2-2.1,0.7-3c1.1-2.3,3.5-3.9,6.2-3.9h149c2.8,0,5.2,1.7,6.3,4.1C264.9,272.8,265.2,273.8,265.2,274.8z"/>
	<path class="st41" d="M102.3,273c-0.4,0.9,0,1.8,0,2.8v34.6h-4c-1.6,0-3-1.2-3-2.8v-31.9c0-1.5,1.3-2.8,3-2.8H102.3z"/>
	<path class="st39" d="M90.9,278.8h4.5v27.7h-4.5c-3,0-5.4-2.3-5.4-5.1v-17.5C85.5,281.1,87.9,278.8,90.9,278.8z"/>
	<path class="st41" d="M271.5,275.6v28.9c0,1.4-0.9,2.5-2,2.5h-4.4v-31.5c0-0.9,0.3-1.7,0-2.5h4.4
		C270.6,273.1,271.5,274.2,271.5,275.6z"/>
	<path class="st42" d="M239.2,321.5c-11.1,4.5-23.5,9.1-30.5,12l-64.9-0.6c-8.8-4.1-16.2-7.3-22.5-10c2.3-9.8,7.4-18.6,15.2-26
		c7.8-7.3,16.8-12.6,27.8-15.2c3.3-0.8,5.3-1.5,9.9-2.1h0.3c5.4-0.4,9.3-0.2,14.1,0.5c8.1,1.1,15.6,3.5,22.7,7.2
		C225.1,294.6,235.2,307.1,239.2,321.5z"/>
	<path class="st39" d="M278.7,283.3v13.5c0,2.2-1.7,3.9-3.7,3.9h-3.1v-21.3h3.1C277,279.4,278.7,281.1,278.7,283.3z"/>
	<circle class="st28" cx="180.4" cy="184.7" r="151.5"/>
	<path class="st40" d="M211.3,191.6c0.5,15.1-12.2,28.3-28.2,28.1c-15.7-0.2-27.8-12.3-27.9-28.1c-0.1-15.6,12.3-28.2,28.6-28.2
		C198.7,163.6,211.9,176.3,211.3,191.6z M183.4,218c15,0.3,26.7-11.9,26.7-26.5c0-14-11.2-27.5-28.9-26.5
		c-12.2,0.7-25,11.3-24.4,27.7C157.2,206,168.1,218.3,183.4,218z"/>
	<path class="st40" d="M206,216.9"/>
	<path class="st40" d="M218.2,191.6c0,8.9-3.3,17-8.8,23.1c0,0,0,0-0.1,0.1c-6.4,7.2-15.7,11.8-26.1,11.8
		c-10.4,0-19.7-4.5-26.1-11.8c-5.5-6.2-8.8-14.3-8.8-23.2c0-7.1,2.1-13.7,5.8-19.3c6.3-9.5,17-15.7,29.2-15.7
		c12.2,0,22.9,6.2,29.1,15.6c0,0,0,0,0,0.1C216.1,177.8,218.2,184.5,218.2,191.6z"/>
	<path class="st40" d="M218.3,191.5c0,8.9-3.3,17-8.8,23.2c-6.4,7.2-15.7,11.8-26.1,11.8c-10.4,0-19.7-4.5-26.1-11.8
		c-5.5-6.2-8.8-14.3-8.8-23.2c0-7.1,2.1-13.7,5.8-19.3c6.3-9.5,17-15.7,29.2-15.7c12.2,0,22.9,6.2,29.2,15.7
		C216.2,177.8,218.3,184.4,218.3,191.5z"/>
	<circle class="st43" cx="183.4" cy="191.6" r="28"/>
	<path class="st40" d="M157.2,214.7H91.7c-1.9,0-3.4-1.5-3.4-3.4v-35.6c0-1.9,1.5-3.4,3.4-3.4h62.6c-3.7,5.5-5.8,12.1-5.8,19.3
		C148.4,200.4,151.8,208.5,157.2,214.7z"/>
	<path class="st40" d="M269.4,175.7v35.6c0,1.9-1.5,3.4-3.4,3.4h-56.5c5.5-6.2,8.8-14.3,8.8-23.1c0-7.1-2.1-13.7-5.8-19.3
		c0,0,0,0,0-0.1H266C267.9,172.3,269.4,173.8,269.4,175.7z"/>
	<path class="st43" d="M87.7,177.9H83v-27.9c0-1.1-0.9-2-2-2h-0.3c-1.1,0-2,0.9-2,2v29.1c-0.4,0.5-0.7,1.2-0.7,2v25.3
		c0,1.7,1.4,3.1,3.1,3.1h6.6c0.2,0,0.3,0,0.5,0v-31.5C88.1,177.9,87.9,177.9,87.7,177.9z"/>
	<path class="st43" d="M269.5,177.4v31.5c0.1,0,0.3,0,0.5,0h6.6c1.7,0,3.1-1.4,3.1-3.1v-25.3c0-0.7-0.3-1.4-0.7-2v-29.1
		c0-1.1-0.9-2-2-2h-0.3c-1.1,0-2,0.9-2,2v27.9h-4.8C269.8,177.4,269.6,177.4,269.5,177.4z"/>
</g>
<g id="bot_05">
	<circle class="st44" cx="595.1" cy="179.6" r="151.5"/>
	<path class="st45" d="M700.9,150.5"/>
	<path class="st45" d="M698.5,203.3"/>
	<rect x="581.7" y="220.1" class="st46" width="31" height="43.9"/>
	<path class="st47" d="M679,269.7v36.7c0,3.8-38.3,17.4-52.6,23.4l-64.9-0.6c-30.2-14-45.3-18.5-45.3-22.3v-37.1
		c0-1.1,0.2-2.1,0.7-3c1.1-2.3,3.5-3.9,6.2-3.9h149c2.8,0,5.2,1.7,6.3,4.1C678.8,267.7,679,268.7,679,269.7z"/>
	<path class="st48" d="M515.3,267.9c-0.5,0.9,0,1.8,0,2.8v34.6h-4.7c-1.9,0-3.5-1.2-3.5-2.8v-31.9c0-1.5,1.6-2.8,3.5-2.8H515.3z"/>
	<path class="st49" d="M502.7,273.7h4.5v27.7h-4.5c-3,0-5.4-2.3-5.4-5.1v-17.5C497.3,276,499.7,273.7,502.7,273.7z"/>
	<path class="st50" d="M704,177.2v26.7c0,3.3-2.7,6.1-6.1,6.1h-10.3v-38.8h10.3c1.6,0,3,0.6,4.1,1.6
		C703.3,173.8,704,175.4,704,177.2z"/>
	<path class="st50" d="M509.3,169.2v43h-8.9c-3.6,0-6.6-3-6.6-6.6v-29.7c0-2.1,1-4,2.6-5.2c1.1-0.9,2.5-1.4,4.1-1.4H509.3z"/>
	<path class="st49" d="M655.1,316.9c-11.1,4.5-23.5,9.1-30.5,12l-64.9-0.6c-8.8-4.1-16.3-7.3-22.5-10c2.3-9.8,7.4-18.6,15.2-26
		c7.8-7.3,16.8-12.6,27.8-15.2c3.3-0.8,5.3-1.5,9.9-2.1h0.3c5.4-0.4,9.3-0.2,14.1,0.5c8.1,1.1,15.6,3.5,22.7,7.2
		C641,290,651.2,302.5,655.1,316.9z"/>
	<path class="st47" d="M689.6,165.6v50.2c0,2.3-1.9,4.2-4.2,4.2H511.5c-2.3,0-4.2-1.9-4.2-4.2v-50.2c0-2.3,1.9-4.2,4.2-4.2h173.9
		C687.7,161.4,689.6,163.3,689.6,165.6z"/>
	<path class="st49" d="M539.6,163.8v42c0,1.2,1.3,2.2,2.9,2.2h109.5c1.6,0,2.9-1,2.9-2.2v-42"/>
	<path class="st48" d="M687.6,270.5v28.9c0,1.4-1.2,2.5-2.7,2.5H679v-31.5c0-0.9,0.4-1.7,0-2.5h5.9
		C686.4,268,687.6,269.1,687.6,270.5z"/>
	<path class="st49" d="M698.4,277.5v12.7c0,2.1-2.4,3.7-5.4,3.7h-4.5v-20.2h4.5C696,273.8,698.4,275.5,698.4,277.5z"/>
	<circle class="st28" cx="594.2" cy="179.6" r="151.5"/>
	<path class="st51" d="M660.8,190.2H531.6c-2.3,0-4.2-1.9-4.2-4.2v-6.9c0-2.3,1.9-4.2,4.2-4.2h129.3c2.3,0,4.2,1.9,4.2,4.2v6.9
		C665,188.3,663.1,190.2,660.8,190.2z"/>
</g>
<g id="bot_06">
	<circle class="st52" cx="-223.9" cy="180.4" r="151.5"/>
	<circle class="st53" cx="-224.6" cy="181.4" r="111.7"/>
	<path class="st54" d="M-117.3,137.4"/>
	<path class="st54" d="M-119.7,190.2"/>
	<rect x="-236.5" y="206.9" class="st55" width="31" height="57.9"/>
	<path class="st56" d="M-139.2,270.6v36.7c0,3.8-38.3,17.4-52.6,23.4l-64.9-0.6c-30.2-14-45.3-18.5-45.3-22.3v-37.1
		c0-1.1,0.2-2.1,0.7-3c1.1-2.3,3.5-3.9,6.2-3.9h149c2.8,0,5.2,1.7,6.3,4.1C-139.4,268.6-139.2,269.5-139.2,270.6z"/>
	<path class="st55" d="M-302,268.7c-0.4,0.9,0,1.8,0,2.8v34.6h-4c-1.6,0-3-1.2-3-2.8v-31.9c0-1.5,1.3-2.8,3-2.8H-302z"/>
	<path class="st55" d="M-313.5,274.6h4.5v27.7h-4.5c-3,0-5.4-2.3-5.4-5.1v-17.5C-318.8,276.8-316.4,274.6-313.5,274.6z"/>
	<line class="st57" x1="-121.2" y1="177.8" x2="-102.5" y2="177.3"/>
	<line class="st57" x1="-318.2" y1="177.8" x2="-336.9" y2="177.3"/>
	<path class="st55" d="M-128.5,152.5v50.2c0,2.3-1.9,4.2-4.2,4.2h-173.9c-2.3,0-4.2-1.9-4.2-4.2v-50.2c0-2.3,1.9-4.2,4.2-4.2h173.9
		C-130.4,148.2-128.5,150.1-128.5,152.5z"/>
	<path class="st55" d="M-129.6,271.4v28.9c0,1.4-1.3,2.5-3,2.5h-6.6v-31.5c0-0.9,0.4-1.7,0-2.5h6.6
		C-130.9,268.8-129.6,270-129.6,271.4z"/>
	<path class="st55" d="M-119.7,278.7v13.8c0,2.2-2.4,4-5.4,4h-4.5v-21.9h4.5C-122.1,274.7-119.7,276.5-119.7,278.7z"/>
	<path class="st58" d="M-161.8,317.6c-11.1,4.5-23.5,9.1-30.5,12l-64.9-0.6c-8.8-4.1-16.3-7.3-22.5-10c2.3-9.8,7.4-18.6,15.2-26
		c7.8-7.3,16.8-12.6,27.8-15.2c3.3-0.8,6.7-0.9,9.9-2.1h0.3c4.7,0.3,9.3-0.2,14.1,0.5c8.1,1.1,15.6,3.5,22.7,7.2
		C-175.9,290.7-165.7,303.2-161.8,317.6z"/>
	<circle class="st28" cx="-223.9" cy="180.4" r="151.5"/>
	<path class="st59" d="M-152.2,192.4h-135.5c-9.8,0-17.8-8-17.8-17.8v0c0-9.8,8-17.8,17.8-17.8h135.5c9.8,0,17.8,8,17.8,17.8v0
		C-134.4,184.5-142.4,192.4-152.2,192.4z"/>
	<path class="st55" d="M-201.6,200H-238c-0.3,0-0.5-0.1-0.5-0.1l0,0c0-0.1,0.2-0.1,0.5-0.1h36.4c0.3,0,0.5,0.1,0.5,0.1l0,0
		C-201.1,199.9-201.3,200-201.6,200z"/>
	<path class="st60" d="M-128.5,181.2c0.1-2.4,0-5.2,0.1-8c0-2.1-0.2-5-0.1-7.5c0.5-1.2,1.3-1.3,2.4-0.7c2.6,1.4,4,1.8,4.7,5.1
		c0.1,0.6,0.1,3.4,0.1,4c0,2.4-0.1,7.4,0,9.8c-0.1,3.6-1.1,3.7-3.3,5.7c0,0,0,0,0,0c-0.7,0.6-0.9,0.7-1.5,0.9
		c-0.5,0.2-1,0.2-1.4-0.1c-0.6-0.3-0.9-0.8-1.1-1.8c0-0.7,0-0.9,0-2.1C-128.5,184.3-128.5,183.7-128.5,181.2z"/>
	<ellipse class="st60" cx="-102.5" cy="177.3" rx="3.8" ry="4.1"/>
	<path class="st60" d="M-310.9,186.5c0.1,1.2,0.1,1.4,0,2.1c-0.2,1-0.5,1.5-1.1,1.8c-0.4,0.2-1,0.2-1.4,0.1
		c-0.6-0.2-0.8-0.3-1.5-0.9c0,0,0,0,0,0c-2.2-2.1-3.1-2.1-3.3-5.7c0.1-2.4,0-7.4,0-9.8c0-0.6,0-3.4,0.1-4c0.7-3.3,2.1-3.7,4.7-5.1
		c1-0.6,1.9-0.4,2.4,0.7c0.1,2.5-0.2,5.5-0.1,7.5c0.1,2.8,0,5.6,0.1,8C-310.9,183.7-310.9,184.3-310.9,186.5z"/>
	<ellipse class="st60" cx="-336.9" cy="177.3" rx="3.8" ry="4.1"/>
</g>
<g id="bot_07">
	<circle class="st61" cx="-223.4" cy="-222" r="151.5"/>
	<circle class="st62" cx="-223.4" cy="-222" r="151.5"/>
	<path class="st63" d="M-128.9-203.5c0.1-2.9,0-6.3,0.1-9.6c0.1-2.5,0.2-5,0-7.5c-0.2-2.1,1.4-3.2,3.1-2.2c3.3,1.9,6,4.5,7.1,8.4
		c0.2,0.7,0.2,1.5,0.2,2.2c0,2.9-0.2,5.9,0,8.8c0.3,4.3-1.8,7.3-4.8,9.9c-0.8,0.7-1.6,1.3-2.6,1.8c-1.5,0.7-2.5,0.3-2.9-1.4
		c-0.2-0.7-0.3-1.4-0.3-2.1C-128.9-197.7-128.9-200.4-128.9-203.5z"/>
	<path class="st64" d="M-116.8-243.2"/>
	<path class="st64" d="M-119.2-196.4"/>
	<rect x="-232.1" y="-180.1" class="st63" width="23.3" height="43.9"/>
	<path class="st65" d="M-310.9-227.9h-5.2V-263c0-1.4-1-2.5-2.2-2.5h-0.4c-1.2,0-2.2,1.1-2.2,2.5v36.6c-0.5,0.7-0.7,1.5-0.7,2.5
		v31.8c0,2.2,1.5,3.9,3.4,3.9h7.2c0.2,0,0.3,0,0.5,0v-39.6C-310.5-227.8-310.7-227.9-310.9-227.9z"/>
	<path class="st63" d="M-138.7-131.8v36.7c0,3.8-38.3,17.4-52.6,23.4l-64.9-0.6c-30.2-14-45.3-18.5-45.3-22.3v-37.1
		c0-1.1,0.2-2.1,0.7-3c1.1-2.3,3.5-3.9,6.2-3.9h149c2.8,0,5.2,1.7,6.3,4.1C-138.9-133.8-138.7-132.9-138.7-131.8z"/>
	<path class="st63" d="M-301.5-133.7c-0.4,0.9,0,1.8,0,2.8v34.6h-4c-1.6,0-3-1.2-3-2.8v-31.9c0-1.5,1.3-2.8,3-2.8H-301.5z"/>
	<path class="st63" d="M-313-127.9h4.5v27.7h-4.5c-3,0-5.4-2.3-5.4-5.1v-17.5C-318.3-125.6-315.9-127.9-313-127.9z"/>
	<path class="st63" d="M-128-229.8v44.5c0,2.1-1.9,3.7-4.2,3.7h-173.9c-2.3,0-4.2-1.7-4.2-3.7v-44.5c0-2.1,1.9-3.8,4.2-3.8h173.9
		C-129.9-233.5-128-231.8-128-229.8z"/>
	<path class="st63" d="M-129.1-131v28.9c0,1.4-1.3,2.5-3,2.5h-6.6v-31.5c0-0.9,0.4-1.7,0-2.5h6.6
		C-130.4-133.6-129.1-132.4-129.1-131z"/>
	<path class="st63" d="M-119.2-123.7v13.8c0,2.2-2.4,4-5.4,4h-4.5v-21.9h4.5C-121.6-127.7-119.2-125.9-119.2-123.7z"/>
	<circle class="st28" cx="-223.4" cy="-222" r="151.5"/>
	<path class="st66" d="M-148.3-211.4h-64.9c-0.9,0-1.6-0.7-1.6-1.6v-6.6c0-0.9,0.7-1.6,1.6-1.6h64.9c0.9,0,1.6,0.7,1.6,1.6v6.6
		C-146.7-212.1-147.4-211.4-148.3-211.4z"/>
	<path class="st66" d="M-226.2-211.4H-291c-0.9,0-1.6-0.7-1.6-1.6v-6.5c0-0.9,0.7-1.6,1.6-1.6h64.8c0.9,0,1.6,0.7,1.6,1.6v6.5
		C-224.6-212.1-225.3-211.4-226.2-211.4z"/>
	<line class="st67" x1="-314.3" y1="-224.5" x2="-314.3" y2="-191.3"/>
	<circle class="st67" cx="-203.1" cy="-121.1" r="2"/>
	<circle class="st67" cx="-195.4" cy="-121.1" r="2"/>
	<path class="st68" d="M-152.7-119.1h-34.7c-0.6,0-1.1-0.5-1.1-1.1v-1.9c0-0.6,0.5-1.1,1.1-1.1h34.7c0.6,0,1.1,0.5,1.1,1.1v1.9
		C-151.7-119.6-152.1-119.1-152.7-119.1z"/>
	<path class="st69" d="M-290.5-182.9V-197c0-1.8,1.6-3.2,3.5-3.2h134.8c1.9,0,3.5,1.5,3.5,3.2v14.1"/>
	<path class="st65" d="M-127.5-227.8v39.6c0.2,0,0.3,0,0.5,0h7.2c1.9,0,3.4-1.8,3.4-3.9v-31.8c0-0.9-0.3-1.8-0.7-2.5V-263
		c0-1.4-1-2.5-2.2-2.5h-0.4c-1.2,0-2.2,1.1-2.2,2.5v35.1h-5.2C-127.2-227.9-127.4-227.8-127.5-227.8z"/>
	<line class="st67" x1="-227.7" y1="-176.3" x2="-227.7" y2="-140.2"/>
	<line class="st67" x1="-123.6" y1="-224.5" x2="-123.6" y2="-191.3"/>
</g>
<g id="bot_08">
	<circle class="st70" cx="180.9" cy="-222" r="152.4"/>
	<path class="st8" d="M275.5-203.5c0.1-2.9,0-6.3,0.1-9.6c0.1-2.5,0.2-5,0-7.5c-0.2-2.1,1.4-3.2,3.1-2.2c3.3,1.9,6,4.5,7.1,8.4
		c0.2,0.7,0.2,1.5,0.2,2.2c0,2.9-0.2,5.9,0,8.8c0.3,4.3-1.8,7.3-4.8,9.9c-0.8,0.7-1.6,1.3-2.6,1.8c-1.5,0.7-2.5,0.3-2.9-1.4
		c-0.2-0.7-0.3-1.4-0.3-2.1C275.5-197.7,275.5-200.4,275.5-203.5z"/>
	<path class="st6" d="M287.6-243.2"/>
	<path class="st6" d="M285.2-196.4"/>
	<rect x="172.3" y="-180.1" class="st9" width="23.3" height="43.9"/>
	<path class="st8" d="M265.7-131.8v36.7c0,3.8-38.3,17.4-52.6,23.4l-64.9-0.6c-30.2-14-45.3-18.5-45.3-22.3v-37.1
		c0-1.1,0.2-2.1,0.7-3c1.1-2.3,3.5-3.9,6.2-3.9h149c2.8,0,5.2,1.7,6.3,4.1C265.4-133.8,265.7-132.9,265.7-131.8z"/>
	<path class="st71" d="M102.8-133.7c-0.4,0.9,0,1.8,0,2.8v34.6h-4c-1.6,0-3-1.2-3-2.8v-31.9c0-1.5,1.3-2.8,3-2.8H102.8z"/>
	<path class="st72" d="M91.4-127.9h4.5v27.7h-4.5c-3,0-5.4-2.3-5.4-5.1v-17.5C86-125.6,88.4-127.9,91.4-127.9z"/>
	<path class="st8" d="M276.3-229.8v44.5c0,2.1-1.9,3.7-4.2,3.7H98.2c-2.3,0-4.2-1.7-4.2-3.7v-44.5c0-2.1,1.9-3.8,4.2-3.8h173.9
		C274.4-233.5,276.3-231.8,276.3-229.8z"/>
	<path class="st73" d="M128.8-232v36.1c0,1,1.3,1.9,2.9,1.9h109.5c1.6,0,2.9-0.8,2.9-1.9V-232"/>
	<path class="st71" d="M275.2-131v28.9c0,1.4-1.3,2.5-3,2.5h-6.6v-31.5c0-0.9,0.4-1.7,0-2.5h6.6C273.9-133.6,275.2-132.4,275.2-131z
		"/>
	<path class="st72" d="M285.1-123.7v13.8c0,2.2-2.4,4-5.4,4h-4.5v-21.9h4.5C282.7-127.7,285.1-125.9,285.1-123.7z"/>
	<circle class="st28" cx="180.9" cy="-222" r="151.5"/>
	<path class="st74" d="M256.1-211.4h-64.9c-0.9,0-1.6-0.7-1.6-1.6v-6.6c0-0.9,0.7-1.6,1.6-1.6h64.9c0.9,0,1.6,0.7,1.6,1.6v6.6
		C257.7-212.1,257-211.4,256.1-211.4z"/>
	<path class="st74" d="M178.1-211.4h-64.8c-0.9,0-1.6-0.7-1.6-1.6v-6.5c0-0.9,0.7-1.6,1.6-1.6h64.8c0.9,0,1.6,0.7,1.6,1.6v6.5
		C179.7-212.1,179-211.4,178.1-211.4z"/>
	<circle class="st12" cx="201.2" cy="-121.1" r="2"/>
	<circle class="st12" cx="208.9" cy="-121.1" r="2"/>
	<path class="st75" d="M251.6-119.1h-34.7c-0.6,0-1.1-0.5-1.1-1.1v-1.9c0-0.6,0.5-1.1,1.1-1.1h34.7c0.6,0,1.1,0.5,1.1,1.1v1.9
		C252.7-119.6,252.2-119.1,251.6-119.1z"/>
	<path class="st76" d="M276.8-227.8v39.6c0.2,0,0.3,0,0.5,0h7.2c1.9,0,3.4-1.8,3.4-3.9v-31.8c0-0.9-0.3-1.8-0.7-2.5V-263
		c0-1.4-1-2.5-2.2-2.5h-0.4c-1.2,0-2.2,1.1-2.2,2.5v35.1h-5.2C277.1-227.9,277-227.8,276.8-227.8z"/>
	<line class="st12" x1="176.6" y1="-176.3" x2="176.6" y2="-140.2"/>
	<line class="st77" x1="280.8" y1="-224.5" x2="280.8" y2="-191.3"/>
	<path class="st76" d="M93.7-227.9h-5.2V-263c0-1.4-1-2.5-2.2-2.5h-0.4c-1.2,0-2.2,1.1-2.2,2.5v36.6c-0.5,0.7-0.7,1.5-0.7,2.5v31.8
		c0,2.2,1.5,3.9,3.4,3.9h7.2c0.2,0,0.3,0,0.5,0v-39.6C94-227.8,93.8-227.9,93.7-227.9z"/>
	<line class="st77" x1="90.2" y1="-224.5" x2="90.2" y2="-191.3"/>
	<line class="st12" x1="115.1" y1="-124.9" x2="115.1" y2="-89.9"/>
</g>
<g id="bot_09">
	<circle class="st20" cx="587.2" cy="-222" r="151.5"/>
	<path class="st6" d="M692.9-251.1"/>
	<path class="st6" d="M690.5-198.3"/>
	<rect x="573.7" y="-181.5" class="st17" width="31" height="43.9"/>
	<path class="st17" d="M671-131.8v36.7c0,3.8-38.3,17.4-52.6,23.4l-64.9-0.6c-30.2-14-45.3-18.5-45.3-22.3v-37.1
		c0-1.1,0.2-2.1,0.7-3c1.1-2.3,3.5-3.9,6.2-3.9h149c2.8,0,5.2,1.7,6.3,4.1C670.8-133.8,671-132.9,671-131.8z"/>
	<path class="st17" d="M508.2-133.7c-0.4,0.9,0,1.8,0,2.8v34.6h-4c-1.6,0-3-1.2-3-2.8v-31.9c0-1.5,1.3-2.8,3-2.8H508.2z"/>
	<path class="st17" d="M496.7-127.8h4.5v27.7h-4.5c-3,0-5.4-2.3-5.4-5.1v-17.5C491.3-125.6,493.7-127.8,496.7-127.8z"/>
	<path class="st8" d="M681.7-235.9v50.2c0,2.3-1.9,4.2-4.2,4.2H503.5c-2.3,0-4.2-1.9-4.2-4.2v-50.2c0-2.3,1.9-4.2,4.2-4.2h173.9
		C679.8-240.2,681.7-238.3,681.7-235.9z"/>
	<path class="st17" d="M680.6-131v28.9c0,1.4-1.3,2.5-3,2.5H671v-31.5c0-0.9,0.4-1.7,0-2.5h6.6C679.3-133.6,680.6-132.4,680.6-131z"
		/>
	<path class="st17" d="M690.5-124v12.7c0,2.1-2.4,3.7-5.4,3.7h-4.5v-20.2h4.5C688.1-127.7,690.5-126.1,690.5-124z"/>
	<circle class="st28" cx="586.3" cy="-222" r="151.5"/>
	<path class="st8" d="M658.2-195.2H522.7c-9.8,0-17.8-8-17.8-17.8v0c0-9.8,8-17.8,17.8-17.8h135.5c9.8,0,17.8,8,17.8,17.8v0
		C676-203.2,668.1-195.2,658.2-195.2z"/>
	<circle class="st12" cx="603.4" cy="-122.8" r="2"/>
	<circle class="st12" cx="611.1" cy="-122.8" r="2"/>
	<path class="st12" d="M653.8-120.8h-34.7c-0.6,0-1.1-0.5-1.1-1.1v-1.9c0-0.6,0.5-1.1,1.1-1.1h34.7c0.6,0,1.1,0.5,1.1,1.1v1.9
		C654.9-121.3,654.4-120.8,653.8-120.8z"/>
	<line class="st12" x1="517.3" y1="-126.6" x2="517.3" y2="-91.6"/>
	<g>
		<path class="st9" d="M498.3-232.4v36.3h-7c-2.9,0-5.2-2.5-5.2-5.6v-25.1c0-1.8,0.8-3.4,2-4.4v-56.1c0.8,0.5,1.8,0.8,2.8,0.8
			c1,0,2-0.3,2.8-0.8v55H498.3z"/>
		<path class="st9" d="M496.6-292.1c0,2.2-1.2,4.2-2.9,5.2c-0.8,0.5-1.8,0.8-2.8,0.8s-2-0.3-2.8-0.8c-1.7-1-2.9-3-2.9-5.2
			c0-3.3,2.5-6,5.7-6C494.1-298.1,496.6-295.4,496.6-292.1z"/>
	</g>
	<path class="st9" d="M681.7-232.4v36.3h7c2.9,0,5.2-2.5,5.2-5.6v-25.1c0-1.8-0.8-3.4-2-4.4v-56.1c-0.8,0.5-1.8,0.8-2.8,0.8
		c-1,0-2-0.3-2.8-0.8v55H681.7z"/>
	<path class="st9" d="M683.3-292.1c0,2.2,1.2,4.2,2.9,5.2c0.8,0.5,1.8,0.8,2.8,0.8s2-0.3,2.8-0.8c1.7-1,2.9-3,2.9-5.2
		c0-3.3-2.5-6-5.7-6S683.3-295.4,683.3-292.1z"/>
</g>
</svg>
