<?xml version="1.0" encoding="utf-8"?>
<!-- Generator: Adobe Illustrator 23.1.0, SVG Export Plug-In . SVG Version: 6.00 Build 0)  -->
<svg version="1.1" xmlns="http://www.w3.org/2000/svg" xmlns:xlink="http://www.w3.org/1999/xlink" x="0px" y="0px"
	 viewBox="0 0 360.8 360.8" style="enable-background:new 0 0 360.8 360.8;" xml:space="preserve">
<style type="text/css">
	.st0{fill:#D8D8D8;}
	.st1{fill:#FFFFFF;}
	.st2{fill:none;stroke:#3E58A7;stroke-width:4;stroke-miterlimit:10;}
	.st3{fill:#FFFFFF;stroke:#3E58A7;stroke-width:3;stroke-miterlimit:10;}
	.st4{fill:#FFFFFF;stroke:#3E58A7;stroke-width:2;stroke-miterlimit:10;}
	.st5{fill:#FFFFFF;stroke:#3E58A7;stroke-miterlimit:10;}
	.st6{fill:#FFFFFF;stroke:#3E58A7;stroke-width:1.2;stroke-miterlimit:10;}
	.st7{fill:none;stroke:#3E58A7;stroke-miterlimit:10;}
	.st8{fill:none;stroke:#767AA5;stroke-width:4;stroke-linecap:round;stroke-linejoin:round;stroke-miterlimit:10;}
	.st9{fill:none;stroke:#3E58A7;stroke-width:3;stroke-miterlimit:10;}
	.st10{fill:none;stroke:#3E58A7;stroke-width:7;stroke-miterlimit:10;}
	.st11{fill:#3E58A7;}
	.st12{fill:#FFFFFF;stroke:#3E58A7;stroke-width:4;stroke-miterlimit:10;}
	.st13{fill:none;}
	.st14{fill:none;stroke:#3E58A7;stroke-width:2;stroke-miterlimit:10;}
	.st15{fill:#131423;}
	.st16{fill:none;stroke:#FFFFFF;stroke-width:10;stroke-miterlimit:10;}
	.st17{fill:none;stroke:#FFFFFF;stroke-width:8;stroke-miterlimit:10;}
	.st18{fill:#3E58A7;stroke:#3E58A7;stroke-miterlimit:10;}
	.st19{fill:#150F31;}
	.st20{fill:none;stroke:#3E58A7;stroke-width:6;stroke-miterlimit:10;}
	.st21{fill:#FFFFFF;stroke:#3E58A7;stroke-width:1.8;stroke-miterlimit:10;}
	.st22{fill:none;stroke:#3E58A7;stroke-width:0.8;stroke-miterlimit:10;}
</style>
<g id="bg">
</g>
<g id="part1__x28_line_all_fits_all_x29_">
</g>
<g id="chest_03">
</g>
<g id="chest_02">
</g>
<g id="chest_01">
</g>
<g id="mouth_04">
</g>
<g id="mouth_03">
</g>
<g id="mouth_02">
</g>
<g id="mouth_01">
</g>
<g id="eyes_04">
</g>
<g id="eyes_03">
</g>
<g id="eyes_02">
</g>
<g id="eyes_01">
</g>
<g id="head_1">
</g>
<g id="head_2">
</g>
<g id="head_3">
</g>
<g id="_x5B_dvd_x5D_">
</g>
<g id="bot_01">
	<circle class="st15" cx="180.4" cy="180.4" r="152.4"/>
	<rect x="170.3" y="221.2" class="st3" width="25" height="44.1"/>
	<path class="st3" d="M265.7,271.1V308c0,3.9-38.5,17.5-52.9,23.5l-65.3-0.6c-30.4-14.1-45.6-18.6-45.6-22.5v-37.3
		c0-1.1,0.2-2.1,0.7-3c1.1-2.3,3.5-4,6.3-4h149.9c2.8,0,5.2,1.7,6.3,4.1C265.5,269.1,265.7,270.1,265.7,271.1z"/>
	<path class="st3" d="M239.4,318c-11.1,4.5-23.5,9.1-30.5,12l-64.9-0.6c-8.8-4.1-16.3-7.3-22.5-10c2.3-9.8,7.4-18.6,15.2-26
		c7.8-7.3,16.8-12.6,27.8-15.2c3.3-0.8,5.3-1.5,9.9-2.1h0.3c5.4-0.4,9.3-0.2,14.1,0.5c8.1,1.1,15.6,3.5,22.7,7.2
		C225.3,291.1,235.5,303.6,239.4,318z"/>
	<path class="st3" d="M90.7,273.1h4.9V303h-4.9c-3.2,0-5.8-2.5-5.8-5.5v-18.9C84.9,275.6,87.5,273.1,90.7,273.1z"/>
	<path class="st3" d="M276.4,166.4v50.5c0,2.3-1.9,4.2-4.2,4.2h-175c-2.3,0-4.2-1.9-4.2-4.2v-50.5c0-2.3,1.9-4.3,4.2-4.3h175
		C274.5,162.1,276.4,164,276.4,166.4z"/>
	<path class="st3" d="M287.7,178v25.3c0,4.2-2.4,7.7-5.3,7.7h-4.9c-0.6,0-1.1-0.7-1.1-1.6v-35.9c0-0.9,0.5-1.6,1.1-1.6h2.9
		c0.6,0,1.1-0.7,1.1-1.6v-17.9c0-2,1.1-3.6,2.5-3.6l0,0c1.4,0,2.5,1.6,2.5,3.6v20.4c0,0.4,0.1,0.8,0.3,1.1
		C287.3,175,287.7,176.4,287.7,178z"/>
	<path class="st3" d="M92.9,170v43.2h-7c-2.9,0-5.2-3-5.2-6.7v-29.9c0-2.1,0.8-4,2-5.3v-66.8c0.8,0.6,1.8,0.9,2.8,0.9
		c1,0,2-0.3,2.8-0.9V170H92.9z"/>
	<path class="st3" d="M275.3,271.9V301c0,1.4-1.3,2.6-3,2.6h-6.6v-31.7c0-0.9,0.4-1.7,0-2.5h6.6C274,269.4,275.3,270.5,275.3,271.9z
		"/>
	<path class="st3" d="M285.2,279.3v13.9c0,2.2-2.4,4.1-5.4,4.1h-4.5v-22h4.5C282.8,275.2,285.2,277.1,285.2,279.3z"/>
	<path class="st3" d="M247.4,191.1H117.4c-2.3,0-4.2-1.9-4.2-4.2V180c0-2.3,1.9-4.2,4.2-4.2h130.1c2.3,0,4.2,1.9,4.2,4.2v6.9
		C251.6,189.2,249.7,191.1,247.4,191.1z"/>
	<path class="st3" d="M134.8,219.7v-13.5c0-1.6,1.3-2.8,2.8-3.7h98.8c1.6,0.9,2.8,2.1,2.8,3.7v13.5"/>
	<path class="st3" d="M91.3,100.5c0,2.2-1.2,4.2-2.9,5.2c-0.8,0.5-1.8,0.8-2.8,0.8s-2-0.3-2.8-0.8c-1.7-1-2.9-3-2.9-5.2
		c0-3.3,2.5-6,5.7-6C88.7,94.5,91.3,97.2,91.3,100.5z"/>
	<path class="st3" d="M101.9,269.3c-0.5,0.9,0,1.8,0,2.8v34.8h-4c-1.7,0-3-1.3-3-2.8v-32c0-1.6,1.3-2.8,3-2.8H101.9z"/>
	<circle class="st16" cx="180.4" cy="180.4" r="152.4"/>
</g>
<g id="bot_02">
</g>
<g id="bot_03">
</g>
<g id="bot_04">
</g>
<g id="bot_05">
</g>
<g id="bot_06">
</g>
<g id="bot_07">
</g>
<g id="bot_08">
</g>
<g id="bot_09">
</g>
</svg>
