<?xml version="1.0" encoding="utf-8"?>
<!-- Generator: Adobe Illustrator 23.1.0, SVG Export Plug-In . SVG Version: 6.00 Build 0)  -->
<svg version="1.1" xmlns="http://www.w3.org/2000/svg" xmlns:xlink="http://www.w3.org/1999/xlink" x="0px" y="0px"
	 viewBox="0 0 360.8 360.8" style="enable-background:new 0 0 360.8 360.8;" xml:space="preserve">
<style type="text/css">
	.st0{fill:#D8D8D8;}
	.st1{fill:#FFFFFF;}
	.st2{fill:none;stroke:#3E58A7;stroke-width:4;stroke-miterlimit:10;}
	.st3{fill:#FFFFFF;stroke:#3E58A7;stroke-width:3;stroke-miterlimit:10;}
	.st4{fill:#FFFFFF;stroke:#3E58A7;stroke-width:2;stroke-miterlimit:10;}
	.st5{fill:#FFFFFF;stroke:#3E58A7;stroke-miterlimit:10;}
	.st6{fill:#FFFFFF;stroke:#3E58A7;stroke-width:1.2;stroke-miterlimit:10;}
	.st7{fill:none;stroke:#3E58A7;stroke-miterlimit:10;}
	.st8{fill:none;stroke:#767AA5;stroke-width:4;stroke-linecap:round;stroke-linejoin:round;stroke-miterlimit:10;}
	.st9{fill:none;stroke:#3E58A7;stroke-width:3;stroke-miterlimit:10;}
	.st10{fill:none;stroke:#3E58A7;stroke-width:7;stroke-miterlimit:10;}
	.st11{fill:#3E58A7;}
	.st12{fill:#FFFFFF;stroke:#3E58A7;stroke-width:4;stroke-miterlimit:10;}
	.st13{fill:none;}
	.st14{fill:none;stroke:#3E58A7;stroke-width:2;stroke-miterlimit:10;}
	.st15{fill:#131423;}
	.st16{fill:none;stroke:#FFFFFF;stroke-width:10;stroke-miterlimit:10;}
	.st17{fill:none;stroke:#FFFFFF;stroke-width:8;stroke-miterlimit:10;}
	.st18{fill:#3E58A7;stroke:#3E58A7;stroke-miterlimit:10;}
	.st19{fill:#150F31;}
	.st20{fill:none;stroke:#3E58A7;stroke-width:6;stroke-miterlimit:10;}
	.st21{fill:#FFFFFF;stroke:#3E58A7;stroke-width:1.8;stroke-miterlimit:10;}
	.st22{fill:none;stroke:#3E58A7;stroke-width:0.8;stroke-miterlimit:10;}
</style>
<g id="bg">
</g>
<g id="part1__x28_line_all_fits_all_x29_">
</g>
<g id="chest_03">
</g>
<g id="chest_02">
</g>
<g id="chest_01">
</g>
<g id="mouth_04">
</g>
<g id="mouth_03">
</g>
<g id="mouth_02">
</g>
<g id="mouth_01">
</g>
<g id="eyes_04">
</g>
<g id="eyes_03">
</g>
<g id="eyes_02">
</g>
<g id="eyes_01">
</g>
<g id="head_1">
</g>
<g id="head_2">
</g>
<g id="head_3">
</g>
<g id="_x5B_dvd_x5D_">
</g>
<g id="bot_01">
</g>
<g id="bot_02">
</g>
<g id="bot_03">
	<circle class="st19" cx="180.4" cy="180.4" r="151.5"/>
	<rect x="167.9" y="220.9" class="st3" width="31" height="43.9"/>
	<path class="st3" d="M265.2,270.6v36.7c0,3.8-38.3,17.4-52.6,23.4l-64.9-0.6c-30.2-14-45.3-18.5-45.3-22.3v-37.1
		c0-1.1,0.2-2.1,0.7-3c1.1-2.3,3.5-3.9,6.2-3.9h149c2.8,0,5.2,1.7,6.3,4.1C264.9,268.6,265.2,269.5,265.2,270.6z"/>
	<path class="st3" d="M102.3,268.7c-0.4,0.9,0,1.8,0,2.8v34.6h-4c-1.6,0-3-1.2-3-2.8v-31.9c0-1.5,1.3-2.8,3-2.8H102.3z"/>
	<path class="st3" d="M90.9,274.6h4.5v27.7h-4.5c-3,0-5.4-2.3-5.4-5.1v-17.5C85.5,276.8,87.9,274.6,90.9,274.6z"/>
	<path class="st3" d="M274.7,271.4v28.9c0,1.4-1.3,2.5-3,2.5h-6.6v-31.5c0-0.9,0.4-1.7,0-2.5h6.6C273.4,268.8,274.7,270,274.7,271.4
		z"/>
	<path class="st3" d="M284.6,278.7v13.8c0,2.2-2.4,4-5.4,4h-4.5v-21.9h4.5C282.2,274.7,284.6,276.5,284.6,278.7z"/>
	<circle class="st17" cx="180.4" cy="180.4" r="151.5"/>
	<path class="st3" d="M211.3,187.4c0.5,15.1-12.2,28.3-28.2,28.1c-15.7-0.2-27.8-12.3-27.9-28.1c-0.1-15.6,12.3-28.2,28.6-28.2
		C198.7,159.3,211.9,172,211.3,187.4z M183.4,213.8c15,0.3,26.7-11.9,26.7-26.5c0-14-11.2-27.5-28.9-26.5
		c-12.2,0.7-25,11.3-24.4,27.7C157.2,201.7,168.1,214.1,183.4,213.8z"/>
	<path class="st4" d="M278.7,173.5V206c0.2,0,0.3,0,0.5,0h7.2c1.9,0,3.4-1.4,3.4-3.2v-26.1c0-0.8-0.3-1.5-0.7-2v-30.1
		c0-1.1-1-2-2.2-2h-0.4c-1.2,0-2.2,0.9-2.2,2v28.8h-5.2C279,173.5,278.8,173.5,278.7,173.5z"/>
	<path class="st4" d="M87.7,173.5h-5.2v-28.8c0-1.1-1-2-2.2-2h-0.4c-1.2,0-2.2,0.9-2.2,2v30.1c-0.5,0.6-0.7,1.3-0.7,2v26.1
		c0,1.8,1.5,3.2,3.4,3.2h7.2c0.2,0,0.3,0,0.5,0v-32.5C88,173.5,87.9,173.5,87.7,173.5z"/>
	<path class="st3" d="M278.7,171.5V207c0,1.9-1.8,3.4-4,3.4h-66.2c6.4-6.2,10.3-14.3,10.3-23.1c0-7.1-2.5-13.7-6.8-19.3
		c0,0,0,0-0.1-0.1h62.8C276.9,168,278.7,169.6,278.7,171.5z"/>
	<path class="st3" d="M218.2,187.3c0,8.9-3.3,17-8.8,23.1c0,0,0,0-0.1,0.1c-6.4,7.2-15.7,11.8-26.1,11.8c-10.4,0-19.7-4.5-26.1-11.8
		c-5.5-6.2-8.8-14.3-8.8-23.2c0-7.1,2.1-13.7,5.8-19.3c6.3-9.5,17-15.7,29.2-15.7c12.2,0,22.9,6.2,29.1,15.6c0,0,0,0,0,0.1
		C216.1,173.6,218.2,180.2,218.2,187.3z"/>
	<path class="st3" d="M218.3,187.3c0,8.9-3.3,17-8.8,23.2c-6.4,7.2-15.7,11.8-26.1,11.8c-10.4,0-19.7-4.5-26.1-11.8
		c-5.5-6.2-8.8-14.3-8.8-23.2c0-7.1,2.1-13.7,5.8-19.3c6.3-9.5,17-15.7,29.2-15.7c12.2,0,22.9,6.2,29.2,15.7
		C216.2,173.5,218.3,180.2,218.3,187.3z"/>
	<circle class="st4" cx="183.4" cy="187.3" r="28"/>
	<path class="st3" d="M157.2,210.5H91.7c-1.9,0-3.4-1.5-3.4-3.4v-35.6c0-1.9,1.5-3.4,3.4-3.4h62.6c-3.7,5.5-5.8,12.1-5.8,19.3
		C148.4,196.2,151.8,204.3,157.2,210.5z"/>
	<circle class="st4" cx="200.6" cy="281.5" r="2"/>
	<circle class="st4" cx="208.3" cy="281.5" r="2"/>
	<path class="st4" d="M251,283.5h-34.7c-0.6,0-1.1-0.5-1.1-1.1v-1.9c0-0.6,0.5-1.1,1.1-1.1H251c0.6,0,1.1,0.5,1.1,1.1v1.9
		C252.1,283,251.6,283.5,251,283.5z"/>
	<line class="st4" x1="114.5" y1="277.6" x2="114.5" y2="312.7"/>
	<line class="st5" x1="83.2" y1="176.3" x2="83.2" y2="203.5"/>
	<line class="st5" x1="283.6" y1="176.3" x2="283.6" y2="203.5"/>
</g>
<g id="bot_04">
</g>
<g id="bot_05">
</g>
<g id="bot_06">
</g>
<g id="bot_07">
</g>
<g id="bot_08">
</g>
<g id="bot_09">
</g>
</svg>
