<?xml version="1.0" encoding="utf-8"?>
<!-- Generator: Adobe Illustrator 23.1.0, SVG Export Plug-In . SVG Version: 6.00 Build 0)  -->
<svg version="1.1" xmlns="http://www.w3.org/2000/svg" xmlns:xlink="http://www.w3.org/1999/xlink" x="0px" y="0px"
	 viewBox="0 0 360.8 360.8" style="enable-background:new 0 0 360.8 360.8;" xml:space="preserve">
<style type="text/css">
	.st0{fill:#D8D8D8;}
	.st1{fill:#FFFFFF;}
	.st2{fill:none;stroke:#3E58A7;stroke-width:4;stroke-miterlimit:10;}
	.st3{fill:#FFFFFF;stroke:#3E58A7;stroke-width:3;stroke-miterlimit:10;}
	.st4{fill:#FFFFFF;stroke:#3E58A7;stroke-width:2;stroke-miterlimit:10;}
	.st5{fill:#FFFFFF;stroke:#3E58A7;stroke-miterlimit:10;}
	.st6{fill:#FFFFFF;stroke:#3E58A7;stroke-width:1.2;stroke-miterlimit:10;}
	.st7{fill:none;stroke:#3E58A7;stroke-miterlimit:10;}
	.st8{fill:none;stroke:#767AA5;stroke-width:4;stroke-linecap:round;stroke-linejoin:round;stroke-miterlimit:10;}
	.st9{fill:none;stroke:#3E58A7;stroke-width:3;stroke-miterlimit:10;}
	.st10{fill:none;stroke:#3E58A7;stroke-width:7;stroke-miterlimit:10;}
	.st11{fill:#3E58A7;}
	.st12{fill:#FFFFFF;stroke:#3E58A7;stroke-width:4;stroke-miterlimit:10;}
	.st13{fill:none;}
	.st14{fill:none;stroke:#3E58A7;stroke-width:2;stroke-miterlimit:10;}
	.st15{fill:#131423;}
	.st16{fill:none;stroke:#FFFFFF;stroke-width:10;stroke-miterlimit:10;}
	.st17{fill:none;stroke:#FFFFFF;stroke-width:8;stroke-miterlimit:10;}
	.st18{fill:#3E58A7;stroke:#3E58A7;stroke-miterlimit:10;}
	.st19{fill:#150F31;}
	.st20{fill:none;stroke:#3E58A7;stroke-width:6;stroke-miterlimit:10;}
	.st21{fill:#FFFFFF;stroke:#3E58A7;stroke-width:1.8;stroke-miterlimit:10;}
	.st22{fill:none;stroke:#3E58A7;stroke-width:0.8;stroke-miterlimit:10;}
</style>
<g id="bg">
</g>
<g id="part1__x28_line_all_fits_all_x29_">
</g>
<g id="chest_03">
</g>
<g id="chest_02">
</g>
<g id="chest_01">
</g>
<g id="mouth_04">
</g>
<g id="mouth_03">
</g>
<g id="mouth_02">
</g>
<g id="mouth_01">
</g>
<g id="eyes_04">
</g>
<g id="eyes_03">
</g>
<g id="eyes_02">
</g>
<g id="eyes_01">
</g>
<g id="head_1">
</g>
<g id="head_2">
</g>
<g id="head_3">
</g>
<g id="_x5B_dvd_x5D_">
</g>
<g id="bot_01">
</g>
<g id="bot_02">
	<circle class="st15" cx="180.4" cy="180.4" r="151.5"/>
	<path class="st4" d="M275,196.1c0.1-3.3,0-7.1,0.1-10.9c0.1-2.8,0.2-5.6,0-8.4c-0.2-2.4,1.4-3.7,3.1-2.5c3.3,2.2,6,5.1,7.1,9.5
		c0.2,0.8,0.2,1.7,0.2,2.5c0,3.3-0.2,6.6,0,9.9c0.3,4.9-1.8,8.3-4.8,11.2c-0.8,0.8-1.6,1.5-2.6,2c-1.5,0.8-2.5,0.3-2.9-1.5
		c-0.2-0.8-0.3-1.6-0.3-2.4C275,202.6,275,199.6,275,196.1z"/>
	<path class="st4" d="M94.3,204.7c0,0.8-0.1,1.6-0.3,2.4c-0.4,1.8-1.4,2.3-2.9,1.5c-1-0.5-1.8-1.3-2.6-2c-3-2.9-5.1-6.3-4.8-11.2
		c0.2-3.3,0-6.6,0-9.9c0-0.8,0-1.7,0.2-2.5c1.1-4.4,3.8-7.3,7.1-9.5c1.8-1.2,3.3,0.1,3.1,2.5c-0.2,2.8-0.1,5.6,0,8.4
		c0.1,3.8,0,7.6,0.1,10.9C94.3,198.8,94.3,201.8,94.3,204.7z"/>
	<path class="st4" d="M167.9,168.5c0.2-3.9,0-7.8,0.1-11.8c0.1-2.1,0.9-2.7,1.9-2.7c1.4,0,3.4,0,4.9-0.1c2.4-0.1,2.4-0.1,4.3-0.2
		c0.3,0,1.6,0,1.8,0c0.3,0,0.2-3,0.2-3.7c0-3.1,0-6.1,0-9.1c0-7.1,0.3-14.1,0.2-21.2c0-1.2-0.1-2.3-0.7-3.3
		c-1.9-3.1-2.2-6.6-0.9-10.5c1-3.2,3.6-4.7,5.7-3.3c1.6,1,2.8,3,3.1,6.1c0.3,3.3-0.2,6.3-1.9,8.2c-0.5,0.6-0.7,1.3-0.7,2.3
		c0.1,10.4,0,20.8,0.2,31.1c0,0.6,0,2.5,0.4,2.9c0.3,0.4,1.1,0.3,1.5,0.3c0.9,0,2.2,0,2.9,0c2-0.1,2.3,0,3.3,0c1,0,2.1-0.1,3.3-0.1
		c1.7,0,1.3,1,1.3,4.5c0,3.1,0,5.8,0,8.8"/>
	<rect x="167.9" y="222.3" class="st4" width="31" height="43.9"/>
	<path class="st3" d="M265.2,270.6v36.7c0,3.8-38.3,17.4-52.6,23.4l-64.9-0.6c-30.2-14-45.3-18.5-45.3-22.3v-37.1
		c0-1.1,0.2-2.1,0.7-3c1.1-2.3,3.5-3.9,6.2-3.9h149c2.8,0,5.2,1.7,6.3,4.1C264.9,268.6,265.2,269.5,265.2,270.6z"/>
	<path class="st4" d="M102.3,268.7c-0.4,0.9,0,1.8,0,2.8v34.6h-4c-1.6,0-3-1.2-3-2.8v-31.9c0-1.5,1.3-2.8,3-2.8H102.3z"/>
	<path class="st4" d="M90.9,274.6h4.5v27.7h-4.5c-3,0-5.4-2.3-5.4-5.1v-17.5C85.5,276.8,87.9,274.6,90.9,274.6z"/>
	<path class="st3" d="M275.8,166.5v50.2c0,2.3-1.9,4.2-4.2,4.2H97.7c-2.3,0-4.2-1.9-4.2-4.2v-50.2c0-2.3,1.9-4.2,4.2-4.2h173.9
		C273.9,162.2,275.8,164.1,275.8,166.5z"/>
	<path class="st4" d="M274.7,271.4v28.9c0,1.4-1.3,2.5-3,2.5h-6.6v-31.5c0-0.9,0.4-1.7,0-2.5h6.6C273.4,268.8,274.7,270,274.7,271.4
		z"/>
	<path class="st4" d="M284.6,278.7v13.8c0,2.2-2.4,4-5.4,4h-4.5v-21.9h4.5C282.2,274.7,284.6,276.5,284.6,278.7z"/>
	<circle class="st17" cx="180.4" cy="180.4" r="151.5"/>
	<path class="st3" d="M246.1,192.7H123.8c-2.5,0-4.5-2-4.5-4.5v-9.8c0-2.5,2-4.5,4.5-4.5h122.3c2.5,0,4.5,2,4.5,4.5v9.8
		C250.7,190.7,248.6,192.7,246.1,192.7z"/>
	<path class="st18" d="M147,212.6c-1,0-1.8-0.4-2.6-0.8c-2.9-1.6-5.7-3.2-8.5-4.8c-1-0.6-2.4-1.3-1.7-2.7c0.7-1.3,2.1-0.7,3.2-0.3
		c2.7,1,5.1,2.5,7.6,3.8c1.5,0.8,2.8,0.9,4.2,0.1c3.1-1.5,6.3-2.8,9.4-4.4c2.1-1,3.9-1.2,6-0.2c3.4,1.6,6.8,3,10.2,4.5
		c1,0.4,1.9,0.5,2.8,0.1c3.3-1.3,6.6-2.5,9.8-3.9c2.6-1.2,5-1.2,7.6,0.1c2.8,1.4,5.7,2.5,8.5,3.8c1.5,0.7,2.9,0.3,4.3-0.3
		c3.8-1.5,7.6-2.8,11.3-4.4c2.3-1,4.4-0.8,6.5,0.4c2.6,1.5,5.3,2.9,7.9,4.3c1,0.6,2.2,1.1,1.6,2.6c-0.4,1.1-2.1,1.5-3.4,1
		c-1.4-0.6-2.8-1.1-4-2c-3.7-2.8-7.4-3.3-11.5-1c-2.5,1.4-5.4,2.1-8.1,3.2c-2.1,0.9-4.1,0.7-6.2-0.2c-3-1.4-6-2.7-9-4.1
		c-1.1-0.5-2.2-0.6-3.4-0.1c-3.6,1.5-7.2,2.9-10.8,4.4c-1.7,0.7-3.2,0.7-4.8-0.1c-3.3-1.5-6.6-2.9-9.9-4.5c-1.5-0.7-2.8-0.7-4.3,0
		c-3.1,1.6-6.2,3-9.4,4.5C149.3,212.1,148.2,212.5,147,212.6z"/>
	<circle class="st4" cx="183.8" cy="109.5" r="7.3"/>
	<circle class="st7" cx="200.7" cy="281.3" r="2"/>
	<circle class="st7" cx="208.4" cy="281.3" r="2"/>
	<path class="st7" d="M251.1,283.3h-34.7c-0.6,0-1.1-0.5-1.1-1.1v-1.9c0-0.6,0.5-1.1,1.1-1.1h34.7c0.6,0,1.1,0.5,1.1,1.1v1.9
		C252.2,282.8,251.7,283.3,251.1,283.3z"/>
</g>
<g id="bot_03">
</g>
<g id="bot_04">
</g>
<g id="bot_05">
</g>
<g id="bot_06">
</g>
<g id="bot_07">
</g>
<g id="bot_08">
</g>
<g id="bot_09">
</g>
</svg>
