<?xml version="1.0" encoding="utf-8"?>
<!-- Generator: Adobe Illustrator 23.1.0, SVG Export Plug-In . SVG Version: 6.00 Build 0)  -->
<svg version="1.1" xmlns="http://www.w3.org/2000/svg" xmlns:xlink="http://www.w3.org/1999/xlink" x="0px" y="0px"
	 viewBox="0 0 360.8 360.8" style="enable-background:new 0 0 360.8 360.8;" xml:space="preserve">
<style type="text/css">
	.st0{fill:#D8D8D8;}
	.st1{fill:#FFFFFF;}
	.st2{fill:none;stroke:#3E58A7;stroke-width:4;stroke-miterlimit:10;}
	.st3{fill:#FFFFFF;stroke:#3E58A7;stroke-width:3;stroke-miterlimit:10;}
	.st4{fill:#FFFFFF;stroke:#3E58A7;stroke-width:2;stroke-miterlimit:10;}
	.st5{fill:#FFFFFF;stroke:#3E58A7;stroke-miterlimit:10;}
	.st6{fill:#FFFFFF;stroke:#3E58A7;stroke-width:1.2;stroke-miterlimit:10;}
	.st7{fill:none;stroke:#3E58A7;stroke-miterlimit:10;}
	.st8{fill:none;stroke:#767AA5;stroke-width:4;stroke-linecap:round;stroke-linejoin:round;stroke-miterlimit:10;}
	.st9{fill:none;stroke:#3E58A7;stroke-width:3;stroke-miterlimit:10;}
	.st10{fill:none;stroke:#3E58A7;stroke-width:7;stroke-miterlimit:10;}
	.st11{fill:#3E58A7;}
	.st12{fill:#FFFFFF;stroke:#3E58A7;stroke-width:4;stroke-miterlimit:10;}
	.st13{fill:none;}
	.st14{fill:none;stroke:#3E58A7;stroke-width:2;stroke-miterlimit:10;}
	.st15{fill:#131423;}
	.st16{fill:none;stroke:#FFFFFF;stroke-width:10;stroke-miterlimit:10;}
	.st17{fill:none;stroke:#FFFFFF;stroke-width:8;stroke-miterlimit:10;}
	.st18{fill:#3E58A7;stroke:#3E58A7;stroke-miterlimit:10;}
	.st19{fill:#150F31;}
	.st20{fill:none;stroke:#3E58A7;stroke-width:6;stroke-miterlimit:10;}
	.st21{fill:#FFFFFF;stroke:#3E58A7;stroke-width:1.8;stroke-miterlimit:10;}
	.st22{fill:none;stroke:#3E58A7;stroke-width:0.8;stroke-miterlimit:10;}
</style>
<g id="bg">
</g>
<g id="part1__x28_line_all_fits_all_x29_">
</g>
<g id="chest_03">
</g>
<g id="chest_02">
</g>
<g id="chest_01">
</g>
<g id="mouth_04">
</g>
<g id="mouth_03">
</g>
<g id="mouth_02">
</g>
<g id="mouth_01">
</g>
<g id="eyes_04">
</g>
<g id="eyes_03">
</g>
<g id="eyes_02">
</g>
<g id="eyes_01">
</g>
<g id="head_1">
</g>
<g id="head_2">
</g>
<g id="head_3">
</g>
<g id="_x5B_dvd_x5D_">
</g>
<g id="bot_01">
</g>
<g id="bot_02">
</g>
<g id="bot_03">
</g>
<g id="bot_04">
</g>
<g id="bot_05">
</g>
<g id="bot_06">
	<circle class="st15" cx="180.4" cy="180.4" r="151.5"/>
	<rect x="167.9" y="206.9" class="st4" width="31" height="57.9"/>
	<path class="st3" d="M265.2,270.6v36.7c0,3.8-38.3,17.4-52.6,23.4l-64.9-0.6c-30.2-14-45.3-18.5-45.3-22.3v-37.1
		c0-1.1,0.2-2.1,0.7-3c1.1-2.3,3.5-3.9,6.2-3.9h149c2.8,0,5.2,1.7,6.3,4.1C264.9,268.6,265.2,269.5,265.2,270.6z"/>
	<path class="st3" d="M102.3,268.7c-0.4,0.9,0,1.8,0,2.8v34.6h-4c-1.6,0-3-1.2-3-2.8v-31.9c0-1.5,1.3-2.8,3-2.8H102.3z"/>
	<path class="st3" d="M90.9,274.6h4.5v27.7h-4.5c-3,0-5.4-2.3-5.4-5.1v-17.5C85.5,276.8,87.9,274.6,90.9,274.6z"/>
	<path class="st3" d="M275.8,152.5v50.2c0,2.3-1.9,4.2-4.2,4.2H97.7c-2.3,0-4.2-1.9-4.2-4.2v-50.2c0-2.3,1.9-4.2,4.2-4.2h173.9
		C273.9,148.2,275.8,150.1,275.8,152.5z"/>
	<path class="st3" d="M274.7,271.4v28.9c0,1.4-1.3,2.5-3,2.5h-6.6v-31.5c0-0.9,0.4-1.7,0-2.5h6.6C273.4,268.8,274.7,270,274.7,271.4
		z"/>
	<path class="st3" d="M284.6,278.7v13.8c0,2.2-2.4,4-5.4,4h-4.5v-21.9h4.5C282.2,274.7,284.6,276.5,284.6,278.7z"/>
	<path class="st5" d="M242.6,317.6c-11.1,4.5-23.5,9.1-30.5,12l-64.9-0.6c-8.8-4.1-16.3-7.3-22.5-10c2.3-9.8,7.4-18.6,15.2-26
		c7.8-7.3,16.8-12.6,27.8-15.2c3.3-0.8,6.7-0.9,9.9-2.1h0.3c4.7,0.3,9.3-0.2,14.1,0.5c8.1,1.1,15.6,3.5,22.7,7.2
		C228.5,290.7,238.6,303.2,242.6,317.6z"/>
	<circle class="st17" cx="180.4" cy="180.4" r="151.5"/>
	<path class="st3" d="M252.2,192.4H116.7c-9.8,0-17.8-8-17.8-17.8v0c0-9.8,8-17.8,17.8-17.8h135.5c9.8,0,17.8,8,17.8,17.8v0
		C270,184.5,262,192.4,252.2,192.4z"/>
	<path class="st12" d="M202.8,200h-36.4c-0.3,0-0.5-0.1-0.5-0.1l0,0c0-0.1,0.2-0.1,0.5-0.1h36.4c0.3,0,0.5,0.1,0.5,0.1l0,0
		C203.3,199.9,203,200,202.8,200z"/>
	<path class="st3" d="M275.9,181.2c0.1-2.4,0-5.2,0.1-8c0-2.1-0.2-5-0.1-7.5c0.5-1.2,1.3-1.3,2.4-0.7c2.6,1.4,4,1.8,4.7,5.1
		c0.1,0.6,0.1,3.4,0.1,4c0,2.4-0.1,7.4,0,9.8c-0.1,3.6-1.1,3.7-3.3,5.7c0,0,0,0,0,0c-0.7,0.6-0.9,0.7-1.5,0.9
		c-0.5,0.2-1,0.2-1.4-0.1c-0.6-0.3-0.9-0.8-1.1-1.8c0-0.7,0-0.9,0-2.1C275.9,184.3,275.9,183.7,275.9,181.2z"/>
	<line class="st20" x1="283.1" y1="177.8" x2="301.8" y2="177.3"/>
	<ellipse class="st4" cx="301.8" cy="177.3" rx="3.8" ry="4.1"/>
	<path class="st3" d="M93.4,186.5c0.1,1.2,0.1,1.4,0,2.1c-0.2,1-0.5,1.5-1.1,1.8c-0.4,0.2-1,0.2-1.4,0.1c-0.6-0.2-0.8-0.3-1.5-0.9
		c0,0,0,0,0,0c-2.2-2.1-3.1-2.1-3.3-5.7c0.1-2.4,0-7.4,0-9.8c0-0.6,0-3.4,0.1-4c0.7-3.3,2.1-3.7,4.7-5.1c1-0.6,1.9-0.4,2.4,0.7
		c0.1,2.5-0.2,5.5-0.1,7.5c0.1,2.8,0,5.6,0.1,8C93.4,183.7,93.4,184.3,93.4,186.5z"/>
	<line class="st20" x1="86.2" y1="177.8" x2="67.5" y2="177.3"/>
	<ellipse class="st4" cx="67.5" cy="177.3" rx="3.8" ry="4.1"/>
</g>
<g id="bot_07">
</g>
<g id="bot_08">
</g>
<g id="bot_09">
</g>
</svg>
