<?xml version="1.0" encoding="utf-8"?>
<!-- Generator: Adobe Illustrator 23.1.0, SVG Export Plug-In . SVG Version: 6.00 Build 0)  -->
<svg version="1.1" xmlns="http://www.w3.org/2000/svg" xmlns:xlink="http://www.w3.org/1999/xlink" x="0px" y="0px"
	 viewBox="0 0 360.8 360.8" style="enable-background:new 0 0 360.8 360.8;" xml:space="preserve">
<style type="text/css">
	.st0{fill:#D8D8D8;}
	.st1{fill:#FFFFFF;}
	.st2{fill:none;stroke:#3E58A7;stroke-width:4;stroke-miterlimit:10;}
	.st3{fill:#FFFFFF;stroke:#3E58A7;stroke-width:3;stroke-miterlimit:10;}
	.st4{fill:#FFFFFF;stroke:#3E58A7;stroke-width:2;stroke-miterlimit:10;}
	.st5{fill:#FFFFFF;stroke:#3E58A7;stroke-miterlimit:10;}
	.st6{fill:#FFFFFF;stroke:#3E58A7;stroke-width:1.2;stroke-miterlimit:10;}
	.st7{fill:none;stroke:#3E58A7;stroke-miterlimit:10;}
	.st8{fill:none;stroke:#767AA5;stroke-width:4;stroke-linecap:round;stroke-linejoin:round;stroke-miterlimit:10;}
	.st9{fill:none;stroke:#3E58A7;stroke-width:3;stroke-miterlimit:10;}
	.st10{fill:none;stroke:#3E58A7;stroke-width:7;stroke-miterlimit:10;}
	.st11{fill:#3E58A7;}
	.st12{fill:#FFFFFF;stroke:#3E58A7;stroke-width:4;stroke-miterlimit:10;}
	.st13{fill:none;}
	.st14{fill:none;stroke:#3E58A7;stroke-width:2;stroke-miterlimit:10;}
	.st15{fill:#131423;}
	.st16{fill:none;stroke:#FFFFFF;stroke-width:10;stroke-miterlimit:10;}
	.st17{fill:none;stroke:#FFFFFF;stroke-width:8;stroke-miterlimit:10;}
	.st18{fill:#3E58A7;stroke:#3E58A7;stroke-miterlimit:10;}
	.st19{fill:#150F31;}
	.st20{fill:none;stroke:#3E58A7;stroke-width:6;stroke-miterlimit:10;}
	.st21{fill:#FFFFFF;stroke:#3E58A7;stroke-width:1.8;stroke-miterlimit:10;}
	.st22{fill:none;stroke:#3E58A7;stroke-width:0.8;stroke-miterlimit:10;}
</style>
<g id="bg">
</g>
<g id="part1__x28_line_all_fits_all_x29_">
</g>
<g id="chest_03">
</g>
<g id="chest_02">
</g>
<g id="chest_01">
</g>
<g id="mouth_04">
</g>
<g id="mouth_03">
</g>
<g id="mouth_02">
</g>
<g id="mouth_01">
</g>
<g id="eyes_04">
</g>
<g id="eyes_03">
</g>
<g id="eyes_02">
</g>
<g id="eyes_01">
</g>
<g id="head_1">
</g>
<g id="head_2">
</g>
<g id="head_3">
</g>
<g id="_x5B_dvd_x5D_">
</g>
<g id="bot_01">
</g>
<g id="bot_02">
</g>
<g id="bot_03">
</g>
<g id="bot_04">
	<circle class="st15" cx="180.4" cy="184.7" r="151.5"/>
	<rect x="167.9" y="225.2" class="st3" width="31" height="43.9"/>
	<path class="st3" d="M265.2,274.8v36.7c0,3.8-38.3,17.4-52.6,23.4l-64.9-0.6c-30.2-14-45.3-18.5-45.3-22.3v-37.1
		c0-1.1,0.2-2.1,0.7-3c1.1-2.3,3.5-3.9,6.2-3.9h149c2.8,0,5.2,1.7,6.3,4.1C264.9,272.8,265.2,273.8,265.2,274.8z"/>
	<path class="st3" d="M102.3,273c-0.4,0.9,0,1.8,0,2.8v34.6h-4c-1.6,0-3-1.2-3-2.8v-31.9c0-1.5,1.3-2.8,3-2.8H102.3z"/>
	<path class="st3" d="M90.9,278.8h4.5v27.7h-4.5c-3,0-5.4-2.3-5.4-5.1v-17.5C85.5,281.1,87.9,278.8,90.9,278.8z"/>
	<path class="st3" d="M274.7,275.6v28.9c0,1.4-1.3,2.5-3,2.5h-6.6v-31.5c0-0.9,0.4-1.7,0-2.5h6.6
		C273.4,273.1,274.7,274.2,274.7,275.6z"/>
	<path class="st4" d="M239.2,321.5c-11.1,4.5-23.5,9.1-30.5,12l-64.9-0.6c-8.8-4.1-16.2-7.3-22.5-10c2.3-9.8,7.4-18.6,15.2-26
		c7.8-7.3,16.8-12.6,27.8-15.2c3.3-0.8,5.3-1.5,9.9-2.1h0.3c5.4-0.4,9.3-0.2,14.1,0.5c8.1,1.1,15.6,3.5,22.7,7.2
		C225.1,294.6,235.2,307.1,239.2,321.5z"/>
	<path class="st3" d="M284.6,282.9v13.8c0,2.2-2.4,4-5.4,4h-4.5v-21.9h4.5C282.2,278.9,284.6,280.7,284.6,282.9z"/>
	<circle class="st17" cx="180.4" cy="184.7" r="151.5"/>
	<path class="st3" d="M211.3,191.6c0.5,15.1-12.2,28.3-28.2,28.1c-15.7-0.2-27.8-12.3-27.9-28.1c-0.1-15.6,12.3-28.2,28.6-28.2
		C198.7,163.6,211.9,176.3,211.3,191.6z M183.4,218c15,0.3,26.7-11.9,26.7-26.5c0-14-11.2-27.5-28.9-26.5
		c-12.2,0.7-25,11.3-24.4,27.7C157.2,206,168.1,218.3,183.4,218z"/>
	<path class="st3" d="M218.2,191.6c0,8.9-3.3,17-8.8,23.1c0,0,0,0-0.1,0.1c-6.4,7.2-15.7,11.8-26.1,11.8c-10.4,0-19.7-4.5-26.1-11.8
		c-5.5-6.2-8.8-14.3-8.8-23.2c0-7.1,2.1-13.7,5.8-19.3c6.3-9.5,17-15.7,29.2-15.7c12.2,0,22.9,6.2,29.1,15.6c0,0,0,0,0,0.1
		C216.1,177.8,218.2,184.5,218.2,191.6z"/>
	<path class="st3" d="M218.3,191.5c0,8.9-3.3,17-8.8,23.2c-6.4,7.2-15.7,11.8-26.1,11.8c-10.4,0-19.7-4.5-26.1-11.8
		c-5.5-6.2-8.8-14.3-8.8-23.2c0-7.1,2.1-13.7,5.8-19.3c6.3-9.5,17-15.7,29.2-15.7c12.2,0,22.9,6.2,29.2,15.7
		C216.2,177.8,218.3,184.4,218.3,191.5z"/>
	<circle class="st4" cx="183.4" cy="191.6" r="28"/>
	<path class="st3" d="M157.2,214.7H91.7c-1.9,0-3.4-1.5-3.4-3.4v-35.6c0-1.9,1.5-3.4,3.4-3.4h62.6c-3.7,5.5-5.8,12.1-5.8,19.3
		C148.4,200.4,151.8,208.5,157.2,214.7z"/>
	<path class="st3" d="M269.4,175.7v35.6c0,1.9-1.5,3.4-3.4,3.4h-56.5c5.5-6.2,8.8-14.3,8.8-23.1c0-7.1-2.1-13.7-5.8-19.3
		c0,0,0,0,0-0.1H266C267.9,172.3,269.4,173.8,269.4,175.7z"/>
	<path class="st4" d="M87.7,177.9H83v-27.9c0-1.1-0.9-2-2-2h-0.3c-1.1,0-2,0.9-2,2v29.1c-0.4,0.5-0.7,1.2-0.7,2v25.3
		c0,1.7,1.4,3.1,3.1,3.1h6.6c0.2,0,0.3,0,0.5,0v-31.5C88.1,177.9,87.9,177.9,87.7,177.9z"/>
	<path class="st4" d="M269.5,177.4v31.5c0.1,0,0.3,0,0.5,0h6.6c1.7,0,3.1-1.4,3.1-3.1v-25.3c0-0.7-0.3-1.4-0.7-2v-29.1
		c0-1.1-0.9-2-2-2h-0.3c-1.1,0-2,0.9-2,2v27.9h-4.8C269.8,177.4,269.6,177.4,269.5,177.4z"/>
</g>
<g id="bot_05">
</g>
<g id="bot_06">
</g>
<g id="bot_07">
</g>
<g id="bot_08">
</g>
<g id="bot_09">
</g>
</svg>
