<?xml version="1.0" encoding="utf-8"?>
<!-- Generator: Adobe Illustrator 23.1.0, SVG Export Plug-In . SVG Version: 6.00 Build 0)  -->
<svg version="1.1" xmlns="http://www.w3.org/2000/svg" xmlns:xlink="http://www.w3.org/1999/xlink" x="0px" y="0px"
	 viewBox="0 0 360.8 360.8" style="enable-background:new 0 0 360.8 360.8;" xml:space="preserve">
<style type="text/css">
	.st0{fill:#D8D8D8;}
	.st1{fill:#FFFFFF;}
	.st2{fill:none;stroke:#3E58A7;stroke-width:4;stroke-miterlimit:10;}
	.st3{fill:#FFFFFF;stroke:#3E58A7;stroke-width:3;stroke-miterlimit:10;}
	.st4{fill:#FFFFFF;stroke:#3E58A7;stroke-width:2;stroke-miterlimit:10;}
	.st5{fill:#FFFFFF;stroke:#3E58A7;stroke-miterlimit:10;}
	.st6{fill:#FFFFFF;stroke:#3E58A7;stroke-width:1.2;stroke-miterlimit:10;}
	.st7{fill:none;stroke:#3E58A7;stroke-miterlimit:10;}
	.st8{fill:none;stroke:#767AA5;stroke-width:4;stroke-linecap:round;stroke-linejoin:round;stroke-miterlimit:10;}
	.st9{fill:none;stroke:#3E58A7;stroke-width:3;stroke-miterlimit:10;}
	.st10{fill:none;stroke:#3E58A7;stroke-width:7;stroke-miterlimit:10;}
	.st11{fill:#3E58A7;}
	.st12{fill:#FFFFFF;stroke:#3E58A7;stroke-width:4;stroke-miterlimit:10;}
	.st13{fill:none;}
	.st14{fill:none;stroke:#3E58A7;stroke-width:2;stroke-miterlimit:10;}
	.st15{fill:#131423;}
	.st16{fill:none;stroke:#FFFFFF;stroke-width:10;stroke-miterlimit:10;}
	.st17{fill:none;stroke:#FFFFFF;stroke-width:8;stroke-miterlimit:10;}
	.st18{fill:#3E58A7;stroke:#3E58A7;stroke-miterlimit:10;}
	.st19{fill:#150F31;}
	.st20{fill:none;stroke:#3E58A7;stroke-width:6;stroke-miterlimit:10;}
	.st21{fill:#FFFFFF;stroke:#3E58A7;stroke-width:1.8;stroke-miterlimit:10;}
	.st22{fill:none;stroke:#3E58A7;stroke-width:0.8;stroke-miterlimit:10;}
</style>
<g id="bg">
</g>
<g id="part1__x28_line_all_fits_all_x29_">
</g>
<g id="chest_03">
</g>
<g id="chest_02">
</g>
<g id="chest_01">
</g>
<g id="mouth_04">
</g>
<g id="mouth_03">
</g>
<g id="mouth_02">
</g>
<g id="mouth_01">
</g>
<g id="eyes_04">
</g>
<g id="eyes_03">
</g>
<g id="eyes_02">
</g>
<g id="eyes_01">
</g>
<g id="head_1">
</g>
<g id="head_2">
</g>
<g id="head_3">
</g>
<g id="_x5B_dvd_x5D_">
</g>
<g id="bot_01">
</g>
<g id="bot_02">
</g>
<g id="bot_03">
</g>
<g id="bot_04">
</g>
<g id="bot_05">
</g>
<g id="bot_06">
</g>
<g id="bot_07">
</g>
<g id="bot_08">
</g>
<g id="bot_09">
	<circle class="st15" cx="181.3" cy="180.4" r="151.5"/>
	<rect x="167.9" y="220.9" class="st12" width="31" height="43.9"/>
	<path class="st12" d="M265.2,270.6v36.7c0,3.8-38.3,17.4-52.6,23.4l-64.9-0.6c-30.2-14-45.3-18.5-45.3-22.3v-37.1
		c0-1.1,0.2-2.1,0.7-3c1.1-2.3,3.5-3.9,6.2-3.9h149c2.8,0,5.2,1.7,6.3,4.1C265,268.6,265.2,269.6,265.2,270.6z"/>
	<path class="st12" d="M102.3,268.7c-0.4,0.9,0,1.8,0,2.8v34.6h-4c-1.6,0-3-1.2-3-2.8v-31.9c0-1.5,1.3-2.8,3-2.8H102.3z"/>
	<path class="st12" d="M90.8,274.6h4.5v27.7h-4.5c-3,0-5.4-2.3-5.4-5.1v-17.5C85.5,276.9,87.9,274.6,90.8,274.6z"/>
	<path class="st3" d="M275.8,166.5v50.2c0,2.3-1.9,4.2-4.2,4.2H97.7c-2.3,0-4.2-1.9-4.2-4.2v-50.2c0-2.3,1.9-4.2,4.2-4.2h173.9
		C273.9,162.2,275.8,164.1,275.8,166.5z"/>
	<path class="st12" d="M274.8,271.4v28.9c0,1.4-1.3,2.5-3,2.5h-6.6v-31.5c0-0.9,0.4-1.7,0-2.5h6.6
		C273.4,268.8,274.8,270,274.8,271.4z"/>
	<path class="st12" d="M284.6,278.4v12.7c0,2.1-2.4,3.7-5.4,3.7h-4.5v-20.2h4.5C282.2,274.7,284.6,276.3,284.6,278.4z"/>
	<circle class="st17" cx="180.4" cy="180.4" r="151.5"/>
	<path class="st3" d="M252.4,207.2H116.9c-9.8,0-17.8-8-17.8-17.8v0c0-9.8,8-17.8,17.8-17.8h135.5c9.8,0,17.8,8,17.8,17.8v0
		C270.2,199.2,262.2,207.2,252.4,207.2z"/>
	<circle class="st7" cx="197.6" cy="279.6" r="2"/>
	<circle class="st7" cx="205.3" cy="279.6" r="2"/>
	<path class="st7" d="M248,281.6h-34.7c-0.6,0-1.1-0.5-1.1-1.1v-1.9c0-0.6,0.5-1.1,1.1-1.1H248c0.6,0,1.1,0.5,1.1,1.1v1.9
		C249.1,281.1,248.6,281.6,248,281.6z"/>
	<line class="st7" x1="111.5" y1="275.8" x2="111.5" y2="310.8"/>
	<g>
		<path class="st4" d="M92.5,170v36.3h-7c-2.9,0-5.2-2.5-5.2-5.6v-25.1c0-1.8,0.8-3.4,2-4.4v-56.1c0.8,0.5,1.8,0.8,2.8,0.8
			c1,0,2-0.3,2.8-0.8v55H92.5z"/>
		<path class="st4" d="M90.8,110.3c0,2.2-1.2,4.2-2.9,5.2c-0.8,0.5-1.8,0.8-2.8,0.8s-2-0.3-2.8-0.8c-1.7-1-2.9-3-2.9-5.2
			c0-3.3,2.5-6,5.7-6S90.8,107,90.8,110.3z"/>
	</g>
	<path class="st4" d="M275.8,170v36.3h7c2.9,0,5.2-2.5,5.2-5.6v-25.1c0-1.8-0.8-3.4-2-4.4v-56.1c-0.8,0.5-1.8,0.8-2.8,0.8
		c-1,0-2-0.3-2.8-0.8v55H275.8z"/>
	<path class="st4" d="M277.5,110.3c0,2.2,1.2,4.2,2.9,5.2c0.8,0.5,1.8,0.8,2.8,0.8s2-0.3,2.8-0.8c1.7-1,2.9-3,2.9-5.2
		c0-3.3-2.5-6-5.7-6C280,104.3,277.5,107,277.5,110.3z"/>
</g>
</svg>
