<?xml version="1.0" encoding="utf-8"?>
<!-- Generator: Adobe Illustrator 23.1.0, SVG Export Plug-In . SVG Version: 6.00 Build 0)  -->
<svg version="1.1" xmlns="http://www.w3.org/2000/svg" xmlns:xlink="http://www.w3.org/1999/xlink" x="0px" y="0px"
	 viewBox="0 0 360.8 360.8" style="enable-background:new 0 0 360.8 360.8;" xml:space="preserve">
<style type="text/css">
	.st0{fill:#D8D8D8;}
	.st1{fill:#FFFFFF;}
	.st2{fill:none;stroke:#3E58A7;stroke-width:4;stroke-miterlimit:10;}
	.st3{fill:#FFFFFF;stroke:#3E58A7;stroke-width:3;stroke-miterlimit:10;}
	.st4{fill:#FFFFFF;stroke:#3E58A7;stroke-width:2;stroke-miterlimit:10;}
	.st5{fill:#FFFFFF;stroke:#3E58A7;stroke-miterlimit:10;}
	.st6{fill:#FFFFFF;stroke:#3E58A7;stroke-width:1.2;stroke-miterlimit:10;}
	.st7{fill:none;stroke:#3E58A7;stroke-miterlimit:10;}
	.st8{fill:none;stroke:#767AA5;stroke-width:4;stroke-linecap:round;stroke-linejoin:round;stroke-miterlimit:10;}
	.st9{fill:none;stroke:#3E58A7;stroke-width:3;stroke-miterlimit:10;}
	.st10{fill:none;stroke:#3E58A7;stroke-width:7;stroke-miterlimit:10;}
	.st11{fill:#3E58A7;}
	.st12{fill:#FFFFFF;stroke:#3E58A7;stroke-width:4;stroke-miterlimit:10;}
	.st13{fill:none;}
	.st14{fill:none;stroke:#3E58A7;stroke-width:2;stroke-miterlimit:10;}
	.st15{fill:#131423;}
	.st16{fill:none;stroke:#FFFFFF;stroke-width:10;stroke-miterlimit:10;}
	.st17{fill:none;stroke:#FFFFFF;stroke-width:8;stroke-miterlimit:10;}
	.st18{fill:#3E58A7;stroke:#3E58A7;stroke-miterlimit:10;}
	.st19{fill:#150F31;}
	.st20{fill:none;stroke:#3E58A7;stroke-width:6;stroke-miterlimit:10;}
	.st21{fill:#FFFFFF;stroke:#3E58A7;stroke-width:1.8;stroke-miterlimit:10;}
	.st22{fill:none;stroke:#3E58A7;stroke-width:0.8;stroke-miterlimit:10;}
</style>
<g id="bg">
</g>
<g id="part1__x28_line_all_fits_all_x29_">
</g>
<g id="chest_03">
</g>
<g id="chest_02">
</g>
<g id="chest_01">
</g>
<g id="mouth_04">
</g>
<g id="mouth_03">
</g>
<g id="mouth_02">
</g>
<g id="mouth_01">
</g>
<g id="eyes_04">
</g>
<g id="eyes_03">
</g>
<g id="eyes_02">
</g>
<g id="eyes_01">
</g>
<g id="head_1">
</g>
<g id="head_2">
</g>
<g id="head_3">
</g>
<g id="_x5B_dvd_x5D_">
</g>
<g id="bot_01">
</g>
<g id="bot_02">
</g>
<g id="bot_03">
</g>
<g id="bot_04">
</g>
<g id="bot_05">
</g>
<g id="bot_06">
</g>
<g id="bot_07">
	<circle class="st15" cx="180.4" cy="180.4" r="151.5"/>
	<path class="st3" d="M275,198.9c0.1-2.9,0-6.3,0.1-9.6c0.1-2.5,0.2-5,0-7.5c-0.2-2.1,1.4-3.2,3.1-2.2c3.3,1.9,6,4.5,7.1,8.4
		c0.2,0.7,0.2,1.5,0.2,2.2c0,2.9-0.2,5.9,0,8.8c0.3,4.3-1.8,7.3-4.8,9.9c-0.8,0.7-1.6,1.3-2.6,1.8c-1.5,0.7-2.5,0.3-2.9-1.4
		c-0.2-0.7-0.3-1.4-0.3-2.1C275,204.7,275,202,275,198.9z"/>
	<rect x="171.8" y="222.3" class="st3" width="23.3" height="43.9"/>
	<path class="st4" d="M93,174.6h-5.2v-35.1c0-1.4-1-2.5-2.2-2.5h-0.4c-1.2,0-2.2,1.1-2.2,2.5V176c-0.5,0.7-0.7,1.5-0.7,2.5v31.8
		c0,2.2,1.5,3.9,3.4,3.9H93c0.2,0,0.3,0,0.5,0v-39.6C93.3,174.6,93.1,174.6,93,174.6z"/>
	<path class="st3" d="M265.2,270.6v36.7c0,3.8-38.3,17.4-52.6,23.4l-64.9-0.6c-30.2-14-45.3-18.5-45.3-22.3v-37.1
		c0-1.1,0.2-2.1,0.7-3c1.1-2.3,3.5-3.9,6.2-3.9h149c2.8,0,5.2,1.7,6.3,4.1C264.9,268.6,265.2,269.5,265.2,270.6z"/>
	<path class="st3" d="M102.3,268.7c-0.4,0.9,0,1.8,0,2.8v34.6h-4c-1.6,0-3-1.2-3-2.8v-31.9c0-1.5,1.3-2.8,3-2.8H102.3z"/>
	<path class="st3" d="M90.9,274.6h4.5v27.7h-4.5c-3,0-5.4-2.3-5.4-5.1v-17.5C85.5,276.8,87.9,274.6,90.9,274.6z"/>
	<path class="st3" d="M275.8,172.7v44.5c0,2.1-1.9,3.7-4.2,3.7H97.7c-2.3,0-4.2-1.7-4.2-3.7v-44.5c0-2.1,1.9-3.8,4.2-3.8h173.9
		C273.9,168.9,275.8,170.6,275.8,172.7z"/>
	<path class="st3" d="M274.7,271.4v28.9c0,1.4-1.3,2.5-3,2.5h-6.6v-31.5c0-0.9,0.4-1.7,0-2.5h6.6C273.4,268.8,274.7,270,274.7,271.4
		z"/>
	<path class="st3" d="M284.6,278.7v13.8c0,2.2-2.4,4-5.4,4h-4.5v-21.9h4.5C282.2,274.7,284.6,276.5,284.6,278.7z"/>
	<circle class="st17" cx="180.4" cy="180.4" r="151.5"/>
	<path class="st3" d="M255.6,191h-64.9c-0.9,0-1.6-0.7-1.6-1.6v-6.6c0-0.9,0.7-1.6,1.6-1.6h64.9c0.9,0,1.6,0.7,1.6,1.6v6.6
		C257.2,190.3,256.5,191,255.6,191z"/>
	<path class="st3" d="M177.6,191h-64.8c-0.9,0-1.6-0.7-1.6-1.6v-6.5c0-0.9,0.7-1.6,1.6-1.6h64.8c0.9,0,1.6,0.7,1.6,1.6v6.5
		C179.2,190.3,178.5,191,177.6,191z"/>
	<line class="st7" x1="89.5" y1="178" x2="89.5" y2="211.1"/>
	<circle class="st7" cx="200.7" cy="281.3" r="2"/>
	<circle class="st7" cx="208.4" cy="281.3" r="2"/>
	<path class="st7" d="M251.1,283.3h-34.7c-0.6,0-1.1-0.5-1.1-1.1v-1.9c0-0.6,0.5-1.1,1.1-1.1h34.7c0.6,0,1.1,0.5,1.1,1.1v1.9
		C252.2,282.8,251.7,283.3,251.1,283.3z"/>
	<path class="st3" d="M113.3,219.5v-14.1c0-1.8,1.6-3.2,3.5-3.2h134.8c1.9,0,3.5,1.5,3.5,3.2v14.1"/>
	<path class="st4" d="M276.3,174.6v39.6c0.2,0,0.3,0,0.5,0h7.2c1.9,0,3.4-1.8,3.4-3.9v-31.8c0-0.9-0.3-1.8-0.7-2.5v-36.6
		c0-1.4-1-2.5-2.2-2.5h-0.4c-1.2,0-2.2,1.1-2.2,2.5v35.1h-5.2C276.6,174.6,276.5,174.6,276.3,174.6z"/>
	<line class="st7" x1="176.1" y1="226.1" x2="176.1" y2="262.2"/>
	<line class="st7" x1="280.3" y1="178" x2="280.3" y2="211.1"/>
</g>
<g id="bot_08">
</g>
<g id="bot_09">
</g>
</svg>
