<?xml version="1.0" encoding="utf-8"?>
<!-- Generator: Adobe Illustrator 23.1.0, SVG Export Plug-In . SVG Version: 6.00 Build 0)  -->
<svg version="1.1" xmlns="http://www.w3.org/2000/svg" xmlns:xlink="http://www.w3.org/1999/xlink" x="0px" y="0px"
	 viewBox="0 0 360.8 360.8" style="enable-background:new 0 0 360.8 360.8;" xml:space="preserve">
<style type="text/css">
	.st0{fill:#D8D8D8;}
	.st1{fill:#FFFFFF;}
	.st2{fill:none;stroke:#3E58A7;stroke-width:4;stroke-miterlimit:10;}
	.st3{fill:#FFFFFF;stroke:#3E58A7;stroke-width:3;stroke-miterlimit:10;}
	.st4{fill:#FFFFFF;stroke:#3E58A7;stroke-width:2;stroke-miterlimit:10;}
	.st5{fill:#FFFFFF;stroke:#3E58A7;stroke-miterlimit:10;}
	.st6{fill:#FFFFFF;stroke:#3E58A7;stroke-width:1.2;stroke-miterlimit:10;}
	.st7{fill:none;stroke:#3E58A7;stroke-miterlimit:10;}
	.st8{fill:none;stroke:#767AA5;stroke-width:4;stroke-linecap:round;stroke-linejoin:round;stroke-miterlimit:10;}
	.st9{fill:none;stroke:#3E58A7;stroke-width:3;stroke-miterlimit:10;}
	.st10{fill:none;stroke:#3E58A7;stroke-width:7;stroke-miterlimit:10;}
	.st11{fill:#3E58A7;}
	.st12{fill:#FFFFFF;stroke:#3E58A7;stroke-width:4;stroke-miterlimit:10;}
	.st13{fill:none;}
	.st14{fill:none;stroke:#3E58A7;stroke-width:2;stroke-miterlimit:10;}
	.st15{fill:#131423;}
	.st16{fill:none;stroke:#FFFFFF;stroke-width:10;stroke-miterlimit:10;}
	.st17{fill:none;stroke:#FFFFFF;stroke-width:8;stroke-miterlimit:10;}
	.st18{fill:#3E58A7;stroke:#3E58A7;stroke-miterlimit:10;}
	.st19{fill:#150F31;}
	.st20{fill:none;stroke:#3E58A7;stroke-width:6;stroke-miterlimit:10;}
	.st21{fill:#FFFFFF;stroke:#3E58A7;stroke-width:1.8;stroke-miterlimit:10;}
	.st22{fill:none;stroke:#3E58A7;stroke-width:0.8;stroke-miterlimit:10;}
</style>
<g id="bg">
	<rect x="101.1" y="-585.3" class="st0" width="324" height="530.5"/>
	<rect x="-230" y="-583.6" class="st0" width="324" height="530.5"/>
	<rect x="431.3" y="-585.3" class="st0" width="324" height="530.5"/>
	<rect x="-398" y="-483.4" class="st1" width="1153.3" height="6.8"/>
	<rect x="-397.3" y="-374.9" class="st1" width="1152.5" height="6.8"/>
	<rect x="-398" y="-263.1" class="st1" width="1153.3" height="6.8"/>
	<rect x="-398" y="-155.8" class="st1" width="1153.3" height="6.8"/>
	<text transform="matrix(1 0 0 1 -369.4571 -518.417)" class="st11" style="font-family:'ArcadeNormal'; font-size:24px;">head</text>
	<text transform="matrix(1 0 0 1 -114.1078 -627.0052)" class="st11" style="font-family:'ArcadeNormal'; font-size:24px;">BOT 1</text>
	<text transform="matrix(1 0 0 1 218.3671 -627.0052)" class="st11" style="font-family:'ArcadeNormal'; font-size:24px;">BOT 2</text>
	<text transform="matrix(1 0 0 1 543.8669 -627.0052)" class="st11" style="font-family:'ArcadeNormal'; font-size:24px;">BOT 3</text>
	<text transform="matrix(1 0 0 1 -369.4571 -412.464)" class="st11" style="font-family:'ArcadeNormal'; font-size:24px;">eyes</text>
	<text transform="matrix(1 0 0 1 218.367 -409.5294)" class="st1" style="font-family:'ArcadeNormal'; font-size:24px;">nofit</text>
	<text transform="matrix(1 0 0 1 218.367 -303.7417)" class="st1" style="font-family:'ArcadeNormal'; font-size:24px;">nofit</text>
	<text transform="matrix(1 0 0 1 -369.4571 -307.3616)" class="st11" style="font-family:'ArcadeNormal'; font-size:24px;">mouth</text>
	<text transform="matrix(1 0 0 1 -369.4571 -193.5581)" class="st11" style="font-family:'ArcadeNormal'; font-size:24px;">part1</text>
	<text transform="matrix(1 0 0 1 -369.4571 -92.2993)" class="st11" style="font-family:'ArcadeNormal'; font-size:24px;">chest</text>
</g>
<g id="part1__x28_line_all_fits_all_x29_">
	<path class="st2" d="M370.7-214.7v42.9c0.2,0,0.4,0,0.6,0h9c2.4,0,4.3-1.9,4.3-4.3v-34.4c0-1-0.3-1.9-0.9-2.7v-39.7
		c0-1.5-1.2-2.7-2.7-2.7h-0.5c-1.5,0-2.7,1.2-2.7,2.7v38.1h-6.5C371.2-214.7,370.9-214.7,370.7-214.7z"/>
	<g>
		<path class="st3" d="M-77.6-172.9c0.2-3.9,0-7.8,0.1-11.8c0.1-2.1,0.9-2.7,1.9-2.7c1.4,0,3.4,0,4.9-0.1c2.4-0.1,2.4-0.1,4.3-0.2
			c0.3,0,1.6,0,1.8,0c0.3,0,0.2-3,0.2-3.7c0-3.1,0-6.1,0-9.1c0-7.1,0.3-14.1,0.2-21.2c0-1.2-0.1-2.3-0.7-3.3
			c-1.9-3.1-2.2-6.6-0.9-10.5c1-3.2,3.6-4.7,5.7-3.3c1.6,1,2.8,3,3.1,6.1c0.3,3.3-0.2,6.3-1.9,8.2c-0.5,0.6-0.7,1.3-0.7,2.3
			c0.1,10.4,0,20.8,0.2,31.1c0,0.6,0,2.5,0.4,2.9c0.3,0.4,1.1,0.3,1.5,0.3c0.9,0,2.2,0,2.9,0c2-0.1,2.3,0,3.3,0c1,0,2.1-0.1,3.3-0.1
			c1.7,0,1.3,1,1.3,4.5c0,3.1,0,5.8,0,8.8"/>
		<circle class="st4" cx="-61.6" cy="-231.8" r="7.3"/>
	</g>
	<g>
		<path class="st4" d="M592.5-196.2v36.3h-7c-2.9,0-5.2-2.5-5.2-5.6v-25.1c0-1.8,0.8-3.4,2-4.4v-56.1c0.8,0.5,1.8,0.8,2.8,0.8
			c1,0,2-0.3,2.8-0.8v55H592.5z"/>
		<path class="st4" d="M590.8-255.9c0,2.2-1.2,4.2-2.9,5.2c-0.8,0.5-1.8,0.8-2.8,0.8c-1,0-2-0.3-2.8-0.8c-1.7-1-2.9-3-2.9-5.2
			c0-3.3,2.5-6,5.7-6C588.2-261.9,590.8-259.2,590.8-255.9z"/>
	</g>
	<g>
		<path class="st4" d="M610.8-196.2v36.3h7c2.9,0,5.2-2.5,5.2-5.6v-25.1c0-1.8-0.8-3.4-2-4.4v-56.1c-0.8,0.5-1.8,0.8-2.8,0.8
			c-1,0-2-0.3-2.8-0.8v55H610.8z"/>
		<path class="st4" d="M612.5-255.9c0,2.2,1.2,4.2,2.9,5.2c0.8,0.5,1.8,0.8,2.8,0.8s2-0.3,2.8-0.8c1.7-1,2.9-3,2.9-5.2
			c0-3.3-2.5-6-5.7-6S612.5-259.2,612.5-255.9z"/>
	</g>
	<path class="st4" d="M711.1-185h-37.6c-2.1,0-3.8,1.7-3.8,3.8v3.7c0,2.1,1.7,3.8,3.8,3.8h37.6c2.1,0,3.8-1.7,3.8-3.8v-3.7
		C714.9-183.3,713.2-185,711.1-185z"/>
	<path class="st3" d="M-129.3-202.6c0.1-3.4,0-7.4,0.1-11.4c0.1-2.9,0.2-5.9,0-8.8c-0.2-2.5,1.5-3.8,3.3-2.6c3.5,2.3,6.3,5.3,7.4,10
		c0.2,0.9,0.2,1.8,0.2,2.7c0,3.5-0.2,7,0,10.4c0.3,5.1-1.9,8.7-5,11.7c-0.8,0.8-1.7,1.6-2.7,2.1c-1.6,0.8-2.6,0.3-3.1-1.6
		c-0.2-0.8-0.3-1.7-0.3-2.5C-129.2-195.7-129.3-198.9-129.3-202.6z"/>
	<path class="st3" d="M-162.1-192.6c0,0.9-0.1,1.7-0.3,2.5c-0.5,1.9-1.5,2.4-3.1,1.6c-1-0.5-1.9-1.3-2.7-2.1
		c-3.2-3.1-5.3-6.6-5-11.7c0.2-3.5,0-6.9,0-10.4c0-0.9,0-1.8,0.2-2.7c1.1-4.7,4-7.7,7.4-10c1.9-1.2,3.5,0.1,3.3,2.6
		c-0.2,2.9-0.1,5.9,0,8.8c0.1,4,0,8,0.1,11.4C-162.1-198.9-162.1-195.7-162.1-192.6z"/>
	<path class="st1" d="M-138.2-1423.5"/>
	<path class="st1" d="M-149.6-1274.3"/>
	<rect x="691.3" y="-234.5" class="st5" width="4.2" height="53.9"/>
	<circle class="st6" cx="693.4" cy="-234.5" r="4"/>
	<g>
		<line class="st7" x1="683.6" y1="-180.3" x2="702.6" y2="-180.3"/>
		<line class="st7" x1="684.1" y1="-180.4" x2="684.1" y2="-185"/>
		<line class="st7" x1="702.1" y1="-180.5" x2="702.1" y2="-185"/>
	</g>
	<path class="st8" d="M190-1508.7"/>
	<path class="st2" d="M351-212.5h-6.5v-38.1c0-1.5-1.2-2.7-2.7-2.7h-0.5c-1.5,0-2.7,1.2-2.7,2.7v39.7c-0.6,0.7-0.9,1.7-0.9,2.7v34.4
		c0,2.4,1.9,4.3,4.3,4.3h9c0.2,0,0.4,0,0.6,0v-42.9C351.4-212.5,351.2-212.5,351-212.5z"/>
	<path class="st9" d="M239.9-204.3c0.1-3.4,0-7.4,0.1-11.4c0.1-2.9-0.3-7.1-0.2-10.7c0.7-1.7,2.1-1.8,3.7-1.1c4,1.9,6.1,2.6,7.3,7.3
		c0.2,0.9,0.2,4.8,0.2,5.7c0,3.5-0.1,10.5,0.1,14c-0.2,5.2-1.7,5.2-5,8.2c0,0,0,0,0,0c-1.1,0.8-1.4,1-2.2,1.3
		c-0.7,0.2-1.5,0.3-2.2-0.1c-0.9-0.4-1.4-1.2-1.7-2.6c-0.1-1,0-1.3,0.1-3C239.9-199.8,239.9-200.6,239.9-204.3z"/>
	<line class="st10" x1="251.1" y1="-209.1" x2="280" y2="-209.7"/>
	<circle class="st9" cx="285" cy="-209.7" r="5.8"/>
	<path class="st9" d="M213.4-194.8c0.1,1.6,0.1,2,0.1,3c-0.3,1.4-0.8,2.1-1.7,2.6c-0.7,0.3-1.5,0.3-2.2,0.1
		c-0.9-0.3-1.2-0.5-2.2-1.3c0,0,0,0,0,0c-3.3-3-4.8-3-5-8.2c0.2-3.5,0.1-10.5,0.1-14c0-0.9,0-4.9,0.2-5.7c1.1-4.7,3.2-5.3,7.3-7.3
		c1.6-0.8,3-0.6,3.7,1.1c0.1,3.6-0.2,7.8-0.2,10.7c0.1,4,0,8,0.1,11.4C213.4-198.8,213.4-198,213.4-194.8z"/>
	<line class="st10" x1="202.2" y1="-207.3" x2="173.2" y2="-207.9"/>
	<circle class="st9" cx="168.2" cy="-207.9" r="5.8"/>
	<path class="st3" d="M507.2-182.7c0.1-2.9,0-6.3,0.1-9.6c0.1-2.5,0.2-5,0-7.5c-0.2-2.1,1.4-3.2,3.1-2.2c3.3,1.9,6,4.5,7.1,8.4
		c0.2,0.7,0.2,1.5,0.2,2.2c0,2.9-0.2,5.9,0,8.8c0.3,4.3-1.8,7.3-4.8,9.9c-0.8,0.7-1.6,1.3-2.6,1.8c-1.5,0.7-2.5,0.3-2.9-1.4
		c-0.2-0.7-0.3-1.4-0.3-2.1C507.2-176.9,507.2-179.6,507.2-182.7z"/>
	<path class="st1" d="M519.2-222.4"/>
	<path class="st1" d="M628.7-1258.3"/>
	<path class="st4" d="M508.5-207v39.6c0.2,0,0.3,0,0.5,0h7.2c1.9,0,3.4-1.8,3.4-3.9v-31.8c0-0.9-0.3-1.8-0.7-2.5v-36.6
		c0-1.4-1-2.5-2.2-2.5h-0.4c-1.2,0-2.2,1.1-2.2,2.5v35.1H509C508.8-207.1,508.6-207,508.5-207z"/>
	<line class="st7" x1="512.4" y1="-203.7" x2="512.4" y2="-170.5"/>
	<path class="st3" d="M475.4-174.3c0,0.7-0.1,1.4-0.3,2.1c-0.4,1.6-1.4,2.1-2.9,1.4c-1-0.5-1.8-1.1-2.6-1.8c-3-2.6-5.1-5.6-4.8-9.9
		c0.2-2.9,0-5.9,0-8.8c0-0.8,0-1.5,0.2-2.2c1.1-3.9,3.8-6.5,7.1-8.4c1.8-1,3.3,0.1,3.1,2.2c-0.2,2.5-0.1,5,0,7.5
		c0.1,3.4,0,6.7,0.1,9.6C475.4-179.6,475.4-176.9,475.4-174.3z"/>
	<path class="st1" d="M463.3-222.4"/>
	<path class="st1" d="M577.5-1258.3"/>
	<path class="st4" d="M473.6-207.1h-5.2v-35.1c0-1.4-1-2.5-2.2-2.5h-0.4c-1.2,0-2.2,1.1-2.2,2.5v36.6c-0.5,0.7-0.7,1.5-0.7,2.5v31.8
		c0,2.2,1.5,3.9,3.4,3.9h7.2c0.2,0,0.3,0,0.5,0V-207C473.9-207,473.8-207.1,473.6-207.1z"/>
	<line class="st7" x1="470.1" y1="-203.7" x2="470.1" y2="-170.5"/>
	<path class="st3" d="M38.2-184.2c0.1-2.9,0-6.3,0.1-9.6c0.1-2.5,0.2-5,0-7.5c-0.2-2.1,1.4-3.2,3.1-2.2c3.3,1.9,6,4.5,7.1,8.4
		c0.2,0.7,0.2,1.5,0.2,2.2c0,2.9-0.2,5.9,0,8.8c0.3,4.3-1.8,7.3-4.8,9.9c-0.8,0.7-1.6,1.3-2.6,1.8c-1.5,0.7-2.5,0.3-2.9-1.4
		c-0.2-0.7-0.3-1.4-0.3-2.1C38.2-178.4,38.2-181.1,38.2-184.2z"/>
	<path class="st1" d="M50.3-223.8"/>
	<path class="st4" d="M39.5-208.5v39.6c0.2,0,0.3,0,0.5,0h7.2c1.9,0,3.4-1.8,3.4-3.9v-31.8c0-0.9-0.3-1.8-0.7-2.5v-36.6
		c0-1.4-1-2.5-2.2-2.5h-0.4c-1.2,0-2.2,1.1-2.2,2.5v35.1H40C39.9-208.5,39.7-208.5,39.5-208.5z"/>
	<line class="st7" x1="43.5" y1="-205.1" x2="43.5" y2="-172"/>
	<path class="st3" d="M6.5-175.8c0,0.7-0.1,1.4-0.3,2.1c-0.4,1.6-1.4,2.1-2.9,1.4c-1-0.5-1.8-1.1-2.6-1.8c-3-2.6-5.1-5.6-4.8-9.9
		c0.2-2.9,0-5.9,0-8.8c0-0.8,0-1.5,0.2-2.2c1.1-3.9,3.8-6.5,7.1-8.4c1.8-1,3.3,0.1,3.1,2.2c-0.2,2.5-0.1,5,0,7.5
		c0.1,3.4,0,6.7,0.1,9.6C6.5-181.1,6.5-178.4,6.5-175.8z"/>
	<path class="st1" d="M-5.6-223.8"/>
	<path class="st4" d="M4.6-208.5h-5.2v-35.1c0-1.4-1-2.5-2.2-2.5h-0.4c-1.2,0-2.2,1.1-2.2,2.5v36.6c-0.5,0.7-0.7,1.5-0.7,2.5v31.8
		c0,2.2,1.5,3.9,3.4,3.9h7.2c0.2,0,0.3,0,0.5,0v-39.6C5-208.5,4.8-208.5,4.6-208.5z"/>
	<line class="st7" x1="1.2" y1="-205.1" x2="1.2" y2="-172"/>
</g>
<g id="chest_03">
	<path class="st3" d="M692.3-123.1v36.7c0,3.8-38.3,17.4-52.6,23.4l-64.9-0.6c-30.2-14-45.3-18.5-45.3-22.3v-37.1
		c0-1.1,0.2-2.1,0.7-3c1.1-2.3,3.5-3.9,6.2-3.9h149c2.8,0,5.2,1.7,6.3,4.1C692-125.1,692.3-124.2,692.3-123.1z"/>
	<path class="st3" d="M529.4-125c-0.4,0.9,0,1.8,0,2.8v34.6h-4c-1.6,0-3-1.2-3-2.8v-31.9c0-1.5,1.3-2.8,3-2.8H529.4z"/>
	<path class="st3" d="M518-119.1h4.5v27.7H518c-3,0-5.4-2.3-5.4-5.1V-114C512.6-116.9,515-119.1,518-119.1z"/>
	<path class="st3" d="M701.9-122.3v28.9c0,1.4-1.3,2.5-3,2.5h-6.6v-31.5c0-0.9,0.4-1.7,0-2.5h6.6
		C700.5-124.9,701.9-123.7,701.9-122.3z"/>
	<path class="st3" d="M711.7-115v13.8c0,2.2-2.4,4-5.4,4h-4.5V-119h4.5C709.3-119,711.7-117.2,711.7-115z"/>
	<path class="st3" d="M669.7-76.1c-11.1,4.5-23.5,9.1-30.5,12l-64.9-0.6c-8.8-4.1-16.3-7.3-22.5-10c2.3-9.8,7.4-18.6,15.2-26
		c7.8-7.3,16.8-12.6,27.8-15.2c3.3-0.8,6.7-0.9,9.9-2.1h0.3c4.7,0.3,9.3-0.2,14.1,0.5c8.1,1.1,15.6,3.5,22.7,7.2
		C655.6-103,665.7-90.5,669.7-76.1z"/>
</g>
<g id="chest_02">
	<path class="st3" d="M348.2-126.8v36.7c0,3.8-38.3,17.4-52.6,23.4l-64.9-0.6c-30.2-14-45.3-18.5-45.3-22.3v-37.1
		c0-1.1,0.2-2.1,0.7-3c1.1-2.3,3.5-3.9,6.2-3.9h149c2.8,0,5.2,1.7,6.3,4.1C348-128.8,348.2-127.9,348.2-126.8z"/>
	<path class="st3" d="M185.4-128.7c-0.4,0.9,0,1.8,0,2.8v34.6h-4c-1.6,0-3-1.2-3-2.8v-31.9c0-1.5,1.3-2.8,3-2.8H185.4z"/>
	<path class="st3" d="M173.9-122.9h4.5v27.7h-4.5c-3,0-5.4-2.3-5.4-5.1v-17.5C168.6-120.6,171-122.9,173.9-122.9z"/>
	<path class="st3" d="M357.8-126v28.9c0,1.4-1.3,2.5-3,2.5h-6.6v-31.5c0-0.9,0.4-1.7,0-2.5h6.6C356.5-128.6,357.8-127.4,357.8-126z"
		/>
	<path class="st3" d="M367.7-118.7v13.8c0,2.2-2.4,4-5.4,4h-4.5v-21.9h4.5C365.3-122.7,367.7-120.9,367.7-118.7z"/>
	<circle class="st7" cx="283.8" cy="-116.1" r="2"/>
	<circle class="st7" cx="291.5" cy="-116.1" r="2"/>
	<path class="st7" d="M334.2-114.1h-34.7c-0.6,0-1.1-0.5-1.1-1.1v-1.9c0-0.6,0.5-1.1,1.1-1.1h34.7c0.6,0,1.1,0.5,1.1,1.1v1.9
		C335.3-114.6,334.8-114.1,334.2-114.1z"/>
</g>
<g id="chest_01">
	<path class="st3" d="M19.7-126.8v36.7c0,3.8-38.3,17.4-52.6,23.4l-64.9-0.6c-30.2-14-45.3-18.5-45.3-22.3v-37.1
		c0-1.1,0.2-2.1,0.7-3c1.1-2.3,3.5-3.9,6.2-3.9h149c2.8,0,5.2,1.7,6.3,4.1C19.4-128.8,19.7-127.9,19.7-126.8z"/>
	<path class="st3" d="M-143.2-128.7c-0.4,0.9,0,1.8,0,2.8v34.6h-4c-1.6,0-3-1.2-3-2.8v-31.9c0-1.5,1.3-2.8,3-2.8H-143.2z"/>
	<path class="st3" d="M-154.7-122.9h4.5v27.7h-4.5c-3,0-5.4-2.3-5.4-5.1v-17.5C-160-120.6-157.6-122.9-154.7-122.9z"/>
	<path class="st3" d="M29.2-126v28.9c0,1.4-1.3,2.5-3,2.5h-6.6v-31.5c0-0.9,0.4-1.7,0-2.5h6.6C27.9-128.6,29.2-127.4,29.2-126z"/>
	<path class="st3" d="M39.1-118.7v13.8c0,2.2-2.4,4-5.4,4h-4.5v-21.9h4.5C36.7-122.7,39.1-120.9,39.1-118.7z"/>
</g>
<g id="mouth_04">
	<path class="st3" d="M595.4-303.7v-14.1c0-1.8,1.6-3.2,3.5-3.2h134.8c1.9,0,3.5,1.5,3.5,3.2v14.1"/>
</g>
<g id="mouth_03">
	<path class="st5" d="M456.6-331.4v36.1c0,1,1.3,1.9,2.9,1.9h109.5c1.6,0,2.9-0.8,2.9-1.9v-36.1"/>
</g>
<g id="mouth_02">
	<path class="st11" d="M-52.9-283.8c-2.2,0.9-4.3,0.8-6.5-0.2c-3.2-1.5-6.3-2.8-9.5-4.3c-1.2-0.5-2.3-0.6-3.6-0.1
		c-3.8,1.6-7.6,3-11.3,4.6c-1.7,0.7-3.4,0.7-5-0.1c-3.5-1.6-7-3.1-10.4-4.7c-1.6-0.8-2.9-0.8-4.5,0c-3.3,1.6-6.5,3.2-9.8,4.7
		c-1.1,0.5-2.3,1-3.6,1c-1,0-1.9-0.4-2.8-0.9c-3-1.7-6-3.3-8.9-5.1c-1-0.6-2.5-1.4-1.8-2.9c0.7-1.4,2.2-0.8,3.4-0.4
		c2.8,1,5.4,2.6,8,4c1.5,0.9,2.9,0.9,4.5,0.1c3.3-1.6,6.6-3,9.9-4.6c2.2-1.1,4.1-1.3,6.3-0.2c3.5,1.7,7.2,3.1,10.7,4.7
		c1,0.5,2,0.5,3,0.1c3.4-1.4,6.9-2.6,10.3-4.1c2.7-1.2,5.3-1.2,8,0.1c2.9,1.4,6,2.6,8.9,4c1.6,0.7,3.1,0.3,4.6-0.3
		c4-1.5,7.9-3,11.8-4.6c2.4-1,4.6-0.8,6.8,0.4c2.7,1.5,5.5,3,8.3,4.6c1,0.6,2.3,1.1,1.7,2.7c-0.5,1.1-2.2,1.6-3.6,1
		c-1.5-0.6-3-1.2-4.2-2.1c-3.9-3-7.7-3.5-12.1-1"/>
</g>
<g id="mouth_01">
	<path class="st3" d="M-151.5-331.6v-14.1c0-1.8,1.6-3.2,3.5-3.2h134.8c1.9,0,3.5,1.5,3.5,3.2v14.1"/>
</g>
<g id="eyes_04">
	<path class="st12" d="M648.1-386.2H512.5c-9.8,0-17.8-8-17.8-17.8v0c0-9.8,8-17.8,17.8-17.8h135.5c9.8,0,17.8,8,17.8,17.8v0
		C665.9-394.2,657.9-386.2,648.1-386.2z"/>
</g>
<g id="eyes_03">
	<path class="st3" d="M651.6-444.6h-64.9c-0.9,0-1.6-0.7-1.6-1.6v-6.6c0-0.9,0.7-1.6,1.6-1.6h64.9c0.9,0,1.6,0.7,1.6,1.6v6.6
		C653.2-445.4,652.5-444.6,651.6-444.6z"/>
	<path class="st3" d="M573.6-444.6h-64.8c-0.9,0-1.6-0.7-1.6-1.6v-6.5c0-0.9,0.7-1.6,1.6-1.6h64.8c0.9,0,1.6,0.7,1.6,1.6v6.5
		C575.3-445.4,574.5-444.6,573.6-444.6z"/>
</g>
<g id="eyes_02">
	<path class="st3" d="M-6.9-402.8h-122.3c-2.5,0-4.5-2-4.5-4.5v-9.8c0-2.5,2-4.5,4.5-4.5H-6.9c2.5,0,4.5,2,4.5,4.5v9.8
		C-2.3-404.8-4.4-402.8-6.9-402.8z"/>
</g>
<g id="eyes_01">
	<path class="st3" d="M3.3-443h-142.7c-2.8,0-5-2.2-5-5v-9.8c0-2.8,2.2-5,5-5H3.3c2.8,0,5,2.2,5,5v9.8C8.3-445.3,6.1-443,3.3-443z"
		/>
	<circle class="st7" cx="-110.3" cy="-452.5" r="3"/>
	<circle class="st7" cx="-80.6" cy="-452.5" r="3"/>
	<circle class="st7" cx="-51.7" cy="-452.5" r="3"/>
	<circle class="st7" cx="-24.7" cy="-452.5" r="3"/>
</g>
<g id="head_1">
	<path class="st3" d="M27.8-560.1v45.1c0,4.6-3.7,8.3-8.3,8.3h-175.1c-4.6,0-8.3-3.7-8.3-8.3v-45.1c0-4.6,3.7-8.3,8.3-8.3H19.5
		C24.1-568.4,27.8-564.7,27.8-560.1z"/>
</g>
<g id="head_2">
	<path class="st13" d="M303.8-532.8c0.6,18.5-15,34.8-34.6,34.5c-19.3-0.3-34.2-15.1-34.3-34.5c-0.1-19.2,15.2-34.7,35.1-34.6
		C288.3-567.3,304.5-551.7,303.8-532.8z M269.5-500.3c18.4,0.3,32.8-14.6,32.8-32.6c0-17.2-13.8-33.8-35.5-32.5
		c-15,0.9-30.8,13.9-30,34.1C237.4-515.2,250.8-500,269.5-500.3z"/>
	<path class="st8" d="M297.4-501.7"/>
	<path class="st2" d="M312.3-532.8c0,10.9-4.1,20.8-10.8,28.4c0,0,0,0-0.1,0.1c-7.9,8.9-19.3,14.4-32.1,14.4s-24.2-5.6-32.1-14.4
		c-6.7-7.6-10.8-17.6-10.8-28.5c0-8.7,2.6-16.9,7.1-23.6c7.7-11.6,20.9-19.3,35.8-19.3c14.9,0,28.1,7.6,35.8,19.2c0,0,0,0,0.1,0.1
		C309.7-549.7,312.3-541.6,312.3-532.8z"/>
	<path class="st12" d="M312.5-532.9c0,10.9-4.1,20.9-10.8,28.5c-7.9,8.9-19.3,14.4-32.1,14.4c-12.8,0-24.2-5.6-32.1-14.4
		c-6.7-7.6-10.8-17.6-10.8-28.5c0-8.7,2.6-16.9,7.1-23.6c7.7-11.6,20.9-19.3,35.8-19.3c15,0,28.1,7.7,35.8,19.3
		C309.9-549.8,312.5-541.6,312.5-532.9z"/>
	<circle class="st14" cx="269.6" cy="-532.8" r="34.4"/>
	<path class="st12" d="M237.5-504.4h-80.6c-2.3,0-4.2-1.9-4.2-4.2v-43.7c0-2.3,1.9-4.2,4.2-4.2h76.9c-4.5,6.8-7.1,14.9-7.1,23.6
		C226.6-522,230.7-512,237.5-504.4z"/>
	<path class="st12" d="M375.3-552.3v43.7c0,2.3-1.9,4.2-4.2,4.2h-69.5c6.7-7.6,10.8-17.5,10.8-28.4c0-8.7-2.6-16.9-7.1-23.6
		c0,0,0,0-0.1-0.1H371C373.4-556.6,375.3-554.7,375.3-552.3z"/>
</g>
<g id="head_3">
	<path class="st3" d="M673.6-557.6v44.5c0,2.1-1.9,3.7-4.2,3.7H495.5c-2.3,0-4.2-1.7-4.2-3.7v-44.5c0-2.1,1.9-3.8,4.2-3.8h173.9
		C671.7-561.4,673.6-559.7,673.6-557.6z"/>
</g>
<g id="_x5B_dvd_x5D_">
	<text transform="matrix(1 0 0 1 -397.2816 -684.7297)" class="st1" style="font-family:'ArcadeNormal'; font-size:10px;">PARTS /</text>
	<text transform="matrix(1 0 0 1 -397.2816 -17.7411)" class="st1" style="font-family:'ArcadeNormal'; font-size:10px;">VARIATIONS /</text>
</g>
<g id="bot_01">
	<circle class="st15" cx="-223.9" cy="180.4" r="152.4"/>
	<path class="st3" d="M-116.6,151.2"/>
	<path class="st3" d="M-119,204.3"/>
	<rect x="-234" y="221.2" class="st3" width="25" height="44.1"/>
	<path class="st3" d="M-138.7,271.1V308c0,3.9-38.5,17.5-52.9,23.5l-65.3-0.6c-30.4-14.1-45.6-18.6-45.6-22.5v-37.3
		c0-1.1,0.2-2.1,0.7-3c1.1-2.3,3.5-4,6.3-4h149.9c2.8,0,5.2,1.7,6.3,4.1C-138.9,269.1-138.7,270.1-138.7,271.1z"/>
	<path class="st3" d="M-164.9,318c-11.1,4.5-23.5,9.1-30.5,12l-64.9-0.6c-8.8-4.1-16.3-7.3-22.5-10c2.3-9.8,7.4-18.6,15.2-26
		c7.8-7.3,16.8-12.6,27.8-15.2c3.3-0.8,5.3-1.5,9.9-2.1h0.3c5.4-0.4,9.3-0.2,14.1,0.5c8.1,1.1,15.6,3.5,22.7,7.2
		C-179,291.1-168.9,303.6-164.9,318z"/>
	<path class="st3" d="M-313.6,273.1h4.9V303h-4.9c-3.2,0-5.8-2.5-5.8-5.5v-18.9C-319.4,275.6-316.8,273.1-313.6,273.1z"/>
	<path class="st3" d="M-127.9,166.4v50.5c0,2.3-1.9,4.2-4.2,4.2h-175c-2.3,0-4.2-1.9-4.2-4.2v-50.5c0-2.3,1.9-4.3,4.2-4.3h175
		C-129.8,162.1-127.9,164-127.9,166.4z"/>
	<path class="st3" d="M-116.6,178v25.3c0,4.2-2.4,7.7-5.3,7.7h-4.9c-0.6,0-1.1-0.7-1.1-1.6v-35.9c0-0.9,0.5-1.6,1.1-1.6h2.9
		c0.6,0,1.1-0.7,1.1-1.6v-17.9c0-2,1.1-3.6,2.5-3.6h0c1.4,0,2.5,1.6,2.5,3.6v20.4c0,0.4,0.1,0.8,0.3,1.1
		C-117,175-116.6,176.4-116.6,178z"/>
	<path class="st3" d="M-311.4,170v43.2h-7c-2.9,0-5.2-3-5.2-6.7v-29.9c0-2.1,0.8-4,2-5.3v-66.8c0.8,0.6,1.8,0.9,2.8,0.9
		c1,0,2-0.3,2.8-0.9V170H-311.4z"/>
	<path class="st3" d="M-129,271.9V301c0,1.4-1.3,2.6-3,2.6h-6.6v-31.7c0-0.9,0.4-1.7,0-2.5h6.6C-130.4,269.4-129,270.5-129,271.9z"
		/>
	<path class="st3" d="M-119.1,279.3v13.9c0,2.2-2.4,4.1-5.4,4.1h-4.5v-22h4.5C-121.5,275.2-119.1,277.1-119.1,279.3z"/>
	<path class="st3" d="M-156.9,191.1H-287c-2.3,0-4.2-1.9-4.2-4.2V180c0-2.3,1.9-4.2,4.2-4.2h130.1c2.3,0,4.2,1.9,4.2,4.2v6.9
		C-152.7,189.2-154.6,191.1-156.9,191.1z"/>
	<path class="st3" d="M-269.5,219.7v-13.5c0-1.6,1.3-2.8,2.8-3.7h98.8c1.6,0.9,2.8,2.1,2.8,3.7v13.5"/>
	<path class="st3" d="M-313.1,100.5c0,2.2-1.2,4.2-2.9,5.2c-0.8,0.5-1.8,0.8-2.8,0.8s-2-0.3-2.8-0.8c-1.7-1-2.9-3-2.9-5.2
		c0-3.3,2.5-6,5.7-6C-315.6,94.5-313.1,97.2-313.1,100.5z"/>
	<path class="st3" d="M-302.5,269.3c-0.5,0.9,0,1.8,0,2.8v34.8h-4c-1.7,0-3-1.3-3-2.8v-32c0-1.6,1.3-2.8,3-2.8H-302.5z"/>
	<circle class="st16" cx="-223.9" cy="180.4" r="152.4"/>
</g>
<g id="bot_02">
	<circle class="st15" cx="180.4" cy="180.4" r="151.5"/>
	<path class="st4" d="M275,196.1c0.1-3.3,0-7.1,0.1-10.9c0.1-2.8,0.2-5.6,0-8.4c-0.2-2.4,1.4-3.7,3.1-2.5c3.3,2.2,6,5.1,7.1,9.5
		c0.2,0.8,0.2,1.7,0.2,2.5c0,3.3-0.2,6.6,0,9.9c0.3,4.9-1.8,8.3-4.8,11.2c-0.8,0.8-1.6,1.5-2.6,2c-1.5,0.8-2.5,0.3-2.9-1.5
		c-0.2-0.8-0.3-1.6-0.3-2.4C275,202.6,275,199.6,275,196.1z"/>
	<path class="st4" d="M94.3,204.7c0,0.8-0.1,1.6-0.3,2.4c-0.4,1.8-1.4,2.3-2.9,1.5c-1-0.5-1.8-1.3-2.6-2c-3-2.9-5.1-6.3-4.8-11.2
		c0.2-3.3,0-6.6,0-9.9c0-0.8,0-1.7,0.2-2.5c1.1-4.4,3.8-7.3,7.1-9.5c1.8-1.2,3.3,0.1,3.1,2.5c-0.2,2.8-0.1,5.6,0,8.4
		c0.1,3.8,0,7.6,0.1,10.9C94.3,198.8,94.3,201.8,94.3,204.7z"/>
	<path class="st4" d="M167.9,168.5c0.2-3.9,0-7.8,0.1-11.8c0.1-2.1,0.9-2.7,1.9-2.7c1.4,0,3.4,0,4.9-0.1c2.4-0.1,2.4-0.1,4.3-0.2
		c0.3,0,1.6,0,1.8,0c0.3,0,0.2-3,0.2-3.7c0-3.1,0-6.1,0-9.1c0-7.1,0.3-14.1,0.2-21.2c0-1.2-0.1-2.3-0.7-3.3
		c-1.9-3.1-2.2-6.6-0.9-10.5c1-3.2,3.6-4.7,5.7-3.3c1.6,1,2.8,3,3.1,6.1c0.3,3.3-0.2,6.3-1.9,8.2c-0.5,0.6-0.7,1.3-0.7,2.3
		c0.1,10.4,0,20.8,0.2,31.1c0,0.6,0,2.5,0.4,2.9c0.3,0.4,1.1,0.3,1.5,0.3c0.9,0,2.2,0,2.9,0c2-0.1,2.3,0,3.3,0c1,0,2.1-0.1,3.3-0.1
		c1.7,0,1.3,1,1.3,4.5c0,3.1,0,5.8,0,8.8"/>
	<path class="st1" d="M287.1,151.4"/>
	<path class="st1" d="M284.7,204.2"/>
	<rect x="167.9" y="222.3" class="st4" width="31" height="43.9"/>
	<path class="st3" d="M265.2,270.6v36.7c0,3.8-38.3,17.4-52.6,23.4l-64.9-0.6c-30.2-14-45.3-18.5-45.3-22.3v-37.1
		c0-1.1,0.2-2.1,0.7-3c1.1-2.3,3.5-3.9,6.2-3.9h149c2.8,0,5.2,1.7,6.3,4.1C264.9,268.6,265.2,269.5,265.2,270.6z"/>
	<path class="st4" d="M102.3,268.7c-0.4,0.9,0,1.8,0,2.8v34.6h-4c-1.6,0-3-1.2-3-2.8v-31.9c0-1.5,1.3-2.8,3-2.8H102.3z"/>
	<path class="st4" d="M90.9,274.6h4.5v27.7h-4.5c-3,0-5.4-2.3-5.4-5.1v-17.5C85.5,276.8,87.9,274.6,90.9,274.6z"/>
	<path class="st3" d="M275.8,166.5v50.2c0,2.3-1.9,4.2-4.2,4.2H97.7c-2.3,0-4.2-1.9-4.2-4.2v-50.2c0-2.3,1.9-4.2,4.2-4.2h173.9
		C273.9,162.2,275.8,164.1,275.8,166.5z"/>
	<path class="st4" d="M274.7,271.4v28.9c0,1.4-1.3,2.5-3,2.5h-6.6v-31.5c0-0.9,0.4-1.7,0-2.5h6.6C273.4,268.8,274.7,270,274.7,271.4
		z"/>
	<path class="st4" d="M284.6,278.7v13.8c0,2.2-2.4,4-5.4,4h-4.5v-21.9h4.5C282.2,274.7,284.6,276.5,284.6,278.7z"/>
	<circle class="st17" cx="180.4" cy="180.4" r="151.5"/>
	<path class="st3" d="M246.1,192.7H123.8c-2.5,0-4.5-2-4.5-4.5v-9.8c0-2.5,2-4.5,4.5-4.5h122.3c2.5,0,4.5,2,4.5,4.5v9.8
		C250.7,190.7,248.6,192.7,246.1,192.7z"/>
	<path class="st18" d="M147,212.6c-1,0-1.8-0.4-2.6-0.8c-2.9-1.6-5.7-3.2-8.5-4.8c-1-0.6-2.4-1.3-1.7-2.7c0.7-1.3,2.1-0.7,3.2-0.3
		c2.7,1,5.1,2.5,7.6,3.8c1.5,0.8,2.8,0.9,4.2,0.1c3.1-1.5,6.3-2.8,9.4-4.4c2.1-1,3.9-1.2,6-0.2c3.4,1.6,6.8,3,10.2,4.5
		c1,0.4,1.9,0.5,2.8,0.1c3.3-1.3,6.6-2.5,9.8-3.9c2.6-1.2,5-1.2,7.6,0.1c2.8,1.4,5.7,2.5,8.5,3.8c1.5,0.7,2.9,0.3,4.3-0.3
		c3.8-1.5,7.6-2.8,11.3-4.4c2.3-1,4.4-0.8,6.5,0.4c2.6,1.5,5.3,2.9,7.9,4.3c1,0.6,2.2,1.1,1.6,2.6c-0.4,1.1-2.1,1.5-3.4,1
		c-1.4-0.6-2.8-1.1-4-2c-3.7-2.8-7.4-3.3-11.5-1c-2.5,1.4-5.4,2.1-8.1,3.2c-2.1,0.9-4.1,0.7-6.2-0.2c-3-1.4-6-2.7-9-4.1
		c-1.1-0.5-2.2-0.6-3.4-0.1c-3.6,1.5-7.2,2.9-10.8,4.4c-1.7,0.7-3.2,0.7-4.8-0.1c-3.3-1.5-6.6-2.9-9.9-4.5c-1.5-0.7-2.8-0.7-4.3,0
		c-3.1,1.6-6.2,3-9.4,4.5C149.3,212.1,148.2,212.5,147,212.6z"/>
	<circle class="st4" cx="183.8" cy="109.5" r="7.3"/>
	<circle class="st7" cx="200.7" cy="281.3" r="2"/>
	<circle class="st7" cx="208.4" cy="281.3" r="2"/>
	<path class="st7" d="M251.1,283.3h-34.7c-0.6,0-1.1-0.5-1.1-1.1v-1.9c0-0.6,0.5-1.1,1.1-1.1h34.7c0.6,0,1.1,0.5,1.1,1.1v1.9
		C252.2,282.8,251.7,283.3,251.1,283.3z"/>
</g>
<g id="bot_03">
	<circle class="st19" cx="585.8" cy="180.4" r="151.5"/>
	<rect x="573.2" y="220.9" class="st3" width="31" height="43.9"/>
	<path class="st3" d="M670.5,270.6v36.7c0,3.8-38.3,17.4-52.6,23.4L553,330c-30.2-14-45.3-18.5-45.3-22.3v-37.1c0-1.1,0.2-2.1,0.7-3
		c1.1-2.3,3.5-3.9,6.2-3.9h149c2.8,0,5.2,1.7,6.3,4.1C670.3,268.6,670.5,269.5,670.5,270.6z"/>
	<path class="st3" d="M507.7,268.7c-0.4,0.9,0,1.8,0,2.8v34.6h-4c-1.6,0-3-1.2-3-2.8v-31.9c0-1.5,1.3-2.8,3-2.8H507.7z"/>
	<path class="st3" d="M496.2,274.6h4.5v27.7h-4.5c-3,0-5.4-2.3-5.4-5.1v-17.5C490.8,276.8,493.2,274.6,496.2,274.6z"/>
	<path class="st3" d="M680.1,271.4v28.9c0,1.4-1.3,2.5-3,2.5h-6.6v-31.5c0-0.9,0.4-1.7,0-2.5h6.6C678.8,268.8,680.1,270,680.1,271.4
		z"/>
	<path class="st3" d="M689.9,278.7v13.8c0,2.2-2.4,4-5.4,4h-4.5v-21.9h4.5C687.5,274.7,689.9,276.5,689.9,278.7z"/>
	<circle class="st17" cx="585.8" cy="180.4" r="151.5"/>
	<path class="st3" d="M616.6,187.4c0.5,15.1-12.2,28.3-28.2,28.1c-15.7-0.2-27.8-12.3-27.9-28.1c-0.1-15.6,12.3-28.2,28.6-28.2
		C604,159.3,617.2,172,616.6,187.4z M588.7,213.8c15,0.3,26.7-11.9,26.7-26.5c0-14-11.2-27.5-28.9-26.5c-12.2,0.7-25,11.3-24.4,27.7
		C562.5,201.7,573.4,214.1,588.7,213.8z"/>
	<path class="st3" d="M611.4,212.7"/>
	<path class="st4" d="M684,173.5V206c0.2,0,0.3,0,0.5,0h7.2c1.9,0,3.4-1.4,3.4-3.2v-26.1c0-0.8-0.3-1.5-0.7-2v-30.1c0-1.1-1-2-2.2-2
		h-0.4c-1.2,0-2.2,0.9-2.2,2v28.8h-5.2C684.3,173.5,684.2,173.5,684,173.5z"/>
	<path class="st4" d="M493,173.5h-5.2v-28.8c0-1.1-1-2-2.2-2h-0.4c-1.2,0-2.2,0.9-2.2,2v30.1c-0.5,0.6-0.7,1.3-0.7,2v26.1
		c0,1.8,1.5,3.2,3.4,3.2h7.2c0.2,0,0.3,0,0.5,0v-32.5C493.4,173.5,493.2,173.5,493,173.5z"/>
	<path class="st3" d="M684,171.5V207c0,1.9-1.8,3.4-4,3.4h-66.2c6.4-6.2,10.3-14.3,10.3-23.1c0-7.1-2.5-13.7-6.8-19.3
		c0,0,0,0-0.1-0.1H680C682.2,168,684,169.6,684,171.5z"/>
	<path class="st3" d="M623.5,187.3c0,8.9-3.3,17-8.8,23.1c0,0,0,0-0.1,0.1c-6.4,7.2-15.7,11.8-26.1,11.8c-10.4,0-19.7-4.5-26.1-11.8
		c-5.5-6.2-8.8-14.3-8.8-23.2c0-7.1,2.1-13.7,5.8-19.3c6.3-9.5,17-15.7,29.2-15.7c12.2,0,22.9,6.2,29.1,15.6c0,0,0,0,0,0.1
		C621.4,173.6,623.5,180.2,623.5,187.3z"/>
	<path class="st3" d="M623.7,187.3c0,8.9-3.3,17-8.8,23.2c-6.4,7.2-15.7,11.8-26.1,11.8s-19.7-4.5-26.1-11.8
		c-5.5-6.2-8.8-14.3-8.8-23.2c0-7.1,2.1-13.7,5.8-19.3c6.3-9.5,17-15.7,29.2-15.7s22.9,6.2,29.2,15.7
		C621.5,173.5,623.7,180.2,623.7,187.3z"/>
	<circle class="st4" cx="588.7" cy="187.3" r="28"/>
	<path class="st3" d="M562.6,210.5H497c-1.9,0-3.4-1.5-3.4-3.4v-35.6c0-1.9,1.5-3.4,3.4-3.4h62.6c-3.7,5.5-5.8,12.1-5.8,19.3
		C553.8,196.2,557.1,204.3,562.6,210.5z"/>
	<circle class="st4" cx="605.9" cy="281.5" r="2"/>
	<circle class="st4" cx="613.6" cy="281.5" r="2"/>
	<path class="st4" d="M656.3,283.5h-34.7c-0.6,0-1.1-0.5-1.1-1.1v-1.9c0-0.6,0.5-1.1,1.1-1.1h34.7c0.6,0,1.1,0.5,1.1,1.1v1.9
		C657.4,283,656.9,283.5,656.3,283.5z"/>
	<line class="st4" x1="519.8" y1="277.6" x2="519.8" y2="312.7"/>
	<path class="st3" d="M692.4,199.4"/>
	<line class="st5" x1="488.6" y1="176.3" x2="488.6" y2="203.5"/>
	<line class="st5" x1="689" y1="176.3" x2="689" y2="203.5"/>
	<path class="st3" d="M485.2,199.4"/>
</g>
<g id="bot_04">
	<circle class="st15" cx="179.9" cy="987.8" r="151.5"/>
	<rect x="167.4" y="1028.3" class="st3" width="31" height="43.9"/>
	<path class="st3" d="M264.7,1077.9v36.7c0,3.8-38.3,17.4-52.6,23.4l-64.9-0.6c-30.2-14-45.3-18.5-45.3-22.3v-37.1
		c0-1.1,0.2-2.1,0.7-3c1.1-2.3,3.5-3.9,6.2-3.9h149c2.8,0,5.2,1.7,6.3,4.1C264.4,1075.9,264.7,1076.9,264.7,1077.9z"/>
	<path class="st3" d="M101.8,1076.1c-0.4,0.9,0,1.8,0,2.8v34.6h-4c-1.6,0-3-1.2-3-2.8v-31.9c0-1.5,1.3-2.8,3-2.8H101.8z"/>
	<path class="st3" d="M90.4,1081.9h4.5v27.7h-4.5c-3,0-5.4-2.3-5.4-5.1V1087C85,1084.2,87.4,1081.9,90.4,1081.9z"/>
	<path class="st3" d="M274.2,1078.7v28.9c0,1.4-1.3,2.5-3,2.5h-6.6v-31.5c0-0.9,0.4-1.7,0-2.5h6.6
		C272.9,1076.2,274.2,1077.3,274.2,1078.7z"/>
	<path class="st4" d="M238.7,1124.7c-11.1,4.5-23.5,9.1-30.5,12l-64.9-0.6c-8.8-4.1-16.2-7.3-22.5-10c2.3-9.8,7.4-18.6,15.2-26
		c7.8-7.3,16.8-12.6,27.8-15.2c3.3-0.8,5.3-1.5,9.9-2.1h0.3c5.4-0.4,9.3-0.2,14.1,0.5c8.1,1.1,15.6,3.5,22.7,7.2
		C224.6,1097.8,234.7,1110.2,238.7,1124.7z"/>
	<path class="st3" d="M284.1,1086.1v13.8c0,2.2-2.4,4-5.4,4h-4.5V1082h4.5C281.7,1082,284.1,1083.8,284.1,1086.1z"/>
	<circle class="st17" cx="179.9" cy="987.8" r="151.5"/>
	<path class="st3" d="M210.8,994.7c0.5,15.1-12.2,28.3-28.2,28.1c-15.7-0.2-27.8-12.3-27.9-28.1c-0.1-15.6,12.3-28.2,28.6-28.2
		C198.2,966.7,211.4,979.4,210.8,994.7z M182.9,1021.2c15,0.3,26.7-11.9,26.7-26.5c0-14-11.2-27.5-28.9-26.5
		c-12.2,0.7-25,11.3-24.4,27.7C156.7,1009.1,167.6,1021.4,182.9,1021.2z"/>
	<path class="st3" d="M205.5,1020"/>
	<path class="st3" d="M217.7,994.7c0,8.9-3.3,17-8.8,23.1c0,0,0,0-0.1,0.1c-6.4,7.2-15.7,11.8-26.1,11.8c-10.4,0-19.7-4.5-26.1-11.8
		c-5.5-6.2-8.8-14.3-8.8-23.2c0-7.1,2.1-13.7,5.8-19.3c6.3-9.5,17-15.7,29.2-15.7c12.2,0,22.9,6.2,29.1,15.6c0,0,0,0,0,0.1
		C215.6,981,217.7,987.6,217.7,994.7z"/>
	<path class="st3" d="M217.8,994.6c0,8.9-3.3,17-8.8,23.2c-6.4,7.2-15.7,11.8-26.1,11.8c-10.4,0-19.7-4.5-26.1-11.8
		c-5.5-6.2-8.8-14.3-8.8-23.2c0-7.1,2.1-13.7,5.8-19.3c6.3-9.5,17-15.7,29.2-15.7c12.2,0,22.9,6.2,29.2,15.7
		C215.7,980.9,217.8,987.5,217.8,994.6z"/>
	<circle class="st4" cx="182.9" cy="994.7" r="28"/>
	<path class="st3" d="M156.7,1017.8H91.2c-1.9,0-3.4-1.5-3.4-3.4v-35.6c0-1.9,1.5-3.4,3.4-3.4h62.6c-3.7,5.5-5.8,12.1-5.8,19.3
		C147.9,1003.5,151.3,1011.7,156.7,1017.8z"/>
	<path class="st3" d="M268.9,978.8v35.6c0,1.9-1.5,3.4-3.4,3.4h-56.5c5.5-6.2,8.8-14.3,8.8-23.1c0-7.1-2.1-13.7-5.8-19.3
		c0,0,0,0,0-0.1h53.6C267.4,975.4,268.9,976.9,268.9,978.8z"/>
	<path class="st4" d="M87.2,981h-4.8v-27.9c0-1.1-0.9-2-2-2h-0.3c-1.1,0-2,0.9-2,2v29.1c-0.4,0.5-0.7,1.2-0.7,2v25.3
		c0,1.7,1.4,3.1,3.1,3.1h6.6c0.2,0,0.3,0,0.5,0V981C87.6,981,87.4,981,87.2,981z"/>
	<path class="st4" d="M269,980.5v31.5c0.1,0,0.3,0,0.5,0h6.6c1.7,0,3.1-1.4,3.1-3.1v-25.3c0-0.7-0.3-1.4-0.7-2v-29.1
		c0-1.1-0.9-2-2-2h-0.3c-1.1,0-2,0.9-2,2v27.9h-4.8C269.3,980.5,269.1,980.5,269,980.5z"/>
</g>
<g id="bot_05">
	<circle class="st15" cx="594.6" cy="982.7" r="151.5"/>
	<path class="st1" d="M700.4,953.6"/>
	<path class="st1" d="M698,1006.4"/>
	<rect x="581.2" y="1023.2" class="st12" width="31" height="43.9"/>
	<path class="st12" d="M678.5,1072.9v36.7c0,3.8-38.3,17.4-52.6,23.4l-64.9-0.6c-30.2-14-45.3-18.5-45.3-22.3v-37.1
		c0-1.1,0.2-2.1,0.7-3c1.1-2.3,3.5-3.9,6.2-3.9h149c2.8,0,5.2,1.7,6.3,4.1C678.3,1070.9,678.5,1071.8,678.5,1072.9z"/>
	<path class="st12" d="M515.6,1071c-0.4,0.9,0,1.8,0,2.8v34.6h-4c-1.6,0-3-1.2-3-2.8v-31.9c0-1.5,1.3-2.8,3-2.8H515.6z"/>
	<path class="st12" d="M504.2,1076.8h4.5v27.7h-4.5c-3,0-5.4-2.3-5.4-5.1V1082C498.8,1079.1,501.2,1076.8,504.2,1076.8z"/>
	<path class="st12" d="M703.5,980.3v26.7c0,3.3-2.7,6.1-6.1,6.1h-10.3v-38.8h10.3c1.6,0,3,0.6,4.1,1.6
		C702.8,976.9,703.5,978.5,703.5,980.3z"/>
	<path class="st12" d="M508.8,972.3v43h-8.9c-3.6,0-6.6-3-6.6-6.6V979c0-2.1,1-4,2.6-5.2c1.1-0.9,2.5-1.4,4.1-1.4H508.8z"/>
	<path class="st4" d="M654.6,1120.1c-11.1,4.5-23.5,9.1-30.5,12l-64.9-0.6c-8.8-4.1-16.3-7.3-22.5-10c2.3-9.8,7.4-18.6,15.2-25.9
		c7.8-7.3,16.8-12.6,27.8-15.2c3.3-0.8,5.3-1.5,9.9-2.1h0.3c5.4-0.4,9.3-0.2,14.1,0.5c8.1,1.1,15.6,3.5,22.7,7.2
		C640.5,1093.2,650.7,1105.6,654.6,1120.1z"/>
	<path class="st12" d="M689.1,968.8v50.2c0,2.3-1.9,4.2-4.2,4.2H511c-2.3,0-4.2-1.9-4.2-4.2v-50.2c0-2.3,1.9-4.2,4.2-4.2h173.9
		C687.2,964.5,689.1,966.4,689.1,968.8z"/>
	<path class="st4" d="M539.1,966.9v42c0,1.2,1.3,2.2,2.9,2.2h109.5c1.6,0,2.9-1,2.9-2.2v-42"/>
	<path class="st12" d="M688.1,1073.7v28.9c0,1.4-1.3,2.5-3,2.5h-6.6v-31.5c0-0.9,0.4-1.7,0-2.5h6.6
		C686.7,1071.1,688.1,1072.3,688.1,1073.7z"/>
	<path class="st12" d="M697.9,1080.7v12.7c0,2.1-2.4,3.7-5.4,3.7h-4.5V1077h4.5C695.5,1077,697.9,1078.6,697.9,1080.7z"/>
	<circle class="st17" cx="593.7" cy="982.7" r="151.5"/>
	<path class="st12" d="M660.3,993.3H531.1c-2.3,0-4.2-1.9-4.2-4.2v-6.9c0-2.3,1.9-4.2,4.2-4.2h129.3c2.3,0,4.2,1.9,4.2,4.2v6.9
		C664.5,991.5,662.6,993.3,660.3,993.3z"/>
</g>
<g id="bot_06">
	<circle class="st15" cx="-224.4" cy="983.6" r="151.5"/>
	<path class="st1" d="M-117.8,940.5"/>
	<path class="st1" d="M-120.2,993.3"/>
	<rect x="-237" y="1010" class="st4" width="31" height="57.9"/>
	<path class="st3" d="M-139.7,1073.7v36.7c0,3.8-38.3,17.4-52.6,23.4l-64.9-0.6c-30.2-14-45.3-18.5-45.3-22.3v-37.1
		c0-1.1,0.2-2.1,0.7-3c1.1-2.3,3.5-3.9,6.2-3.9h149c2.8,0,5.2,1.7,6.3,4.1C-139.9,1071.7-139.7,1072.7-139.7,1073.7z"/>
	<path class="st3" d="M-302.5,1071.9c-0.4,0.9,0,1.8,0,2.8v34.6h-4c-1.6,0-3-1.2-3-2.8v-31.9c0-1.5,1.3-2.8,3-2.8H-302.5z"/>
	<path class="st3" d="M-314,1077.7h4.5v27.7h-4.5c-3,0-5.4-2.3-5.4-5.1v-17.5C-319.3,1080-316.9,1077.7-314,1077.7z"/>
	<path class="st3" d="M-129,955.6v50.2c0,2.3-1.9,4.2-4.2,4.2h-173.9c-2.3,0-4.2-1.9-4.2-4.2v-50.2c0-2.3,1.9-4.2,4.2-4.2h173.9
		C-130.9,951.4-129,953.3-129,955.6z"/>
	<path class="st3" d="M-130.1,1074.5v28.9c0,1.4-1.3,2.5-3,2.5h-6.6v-31.5c0-0.9,0.4-1.7,0-2.5h6.6
		C-131.4,1072-130.1,1073.1-130.1,1074.5z"/>
	<path class="st3" d="M-120.2,1081.8v13.8c0,2.2-2.4,4-5.4,4h-4.5v-21.9h4.5C-122.6,1077.8-120.2,1079.6-120.2,1081.8z"/>
	<path class="st5" d="M-162.3,1120.7c-11.1,4.5-23.5,9.1-30.5,12l-64.9-0.6c-8.8-4.1-16.3-7.3-22.5-10c2.3-9.8,7.4-18.6,15.2-25.9
		c7.8-7.3,16.8-12.6,27.8-15.2c3.3-0.8,6.7-0.9,9.9-2.1h0.3c4.7,0.3,9.3-0.2,14.1,0.5c8.1,1.1,15.6,3.5,22.7,7.2
		C-176.4,1093.8-166.2,1106.3-162.3,1120.7z"/>
	<circle class="st17" cx="-224.4" cy="983.6" r="151.5"/>
	<path class="st3" d="M-152.7,995.6h-135.5c-9.8,0-17.8-8-17.8-17.8v0c0-9.8,8-17.8,17.8-17.8h135.5c9.8,0,17.8,8,17.8,17.8v0
		C-134.9,987.6-142.9,995.6-152.7,995.6z"/>
	<path class="st12" d="M-202.1,1003.1h-36.4c-0.3,0-0.5-0.1-0.5-0.1l0,0c0-0.1,0.2-0.1,0.5-0.1h36.4c0.3,0,0.5,0.1,0.5,0.1l0,0
		C-201.6,1003-201.8,1003.1-202.1,1003.1z"/>
	<path class="st3" d="M-129,984.3c0.1-2.4,0-5.2,0.1-8c0-2.1-0.2-5-0.1-7.5c0.5-1.2,1.3-1.3,2.4-0.7c2.6,1.4,4,1.8,4.7,5.1
		c0.1,0.6,0.1,3.4,0.1,4c0,2.4-0.1,7.4,0,9.8c-0.1,3.6-1.1,3.7-3.3,5.7c0,0,0,0,0,0c-0.7,0.6-0.9,0.7-1.5,0.9
		c-0.5,0.2-1,0.2-1.4-0.1c-0.6-0.3-0.9-0.8-1.1-1.8c0-0.7,0-0.9,0-2.1C-129,987.5-129,986.9-129,984.3z"/>
	<line class="st20" x1="-121.7" y1="980.9" x2="-103" y2="980.5"/>
	<ellipse class="st4" cx="-103" cy="980.5" rx="3.8" ry="4.1"/>
	<path class="st3" d="M-311.4,989.7c0.1,1.2,0.1,1.4,0,2.1c-0.2,1-0.5,1.5-1.1,1.8c-0.4,0.2-1,0.2-1.4,0.1c-0.6-0.2-0.8-0.3-1.5-0.9
		c0,0,0,0,0,0c-2.2-2.1-3.1-2.1-3.3-5.7c0.1-2.4,0-7.4,0-9.8c0-0.6,0-3.4,0.1-4c0.7-3.3,2.1-3.7,4.7-5.1c1-0.6,1.9-0.4,2.4,0.7
		c0.1,2.5-0.2,5.5-0.1,7.5c0.1,2.8,0,5.6,0.1,8C-311.4,986.9-311.4,987.5-311.4,989.7z"/>
	<line class="st20" x1="-318.7" y1="980.9" x2="-337.4" y2="980.5"/>
	<ellipse class="st4" cx="-337.4" cy="980.5" rx="3.8" ry="4.1"/>
</g>
<g id="bot_07">
	<circle class="st15" cx="-223.9" cy="581.1" r="151.5"/>
	<path class="st3" d="M-129.4,599.6c0.1-2.9,0-6.3,0.1-9.6c0.1-2.5,0.2-5,0-7.5c-0.2-2.1,1.4-3.2,3.1-2.2c3.3,1.9,6,4.5,7.1,8.4
		c0.2,0.7,0.2,1.5,0.2,2.2c0,2.9-0.2,5.9,0,8.8c0.3,4.3-1.8,7.3-4.8,9.9c-0.8,0.7-1.6,1.3-2.6,1.8c-1.5,0.7-2.5,0.3-2.9-1.4
		c-0.2-0.7-0.3-1.4-0.3-2.1C-129.4,605.4-129.4,602.7-129.4,599.6z"/>
	<path class="st1" d="M-117.3,560"/>
	<path class="st1" d="M-119.7,606.8"/>
	<rect x="-232.6" y="623" class="st3" width="23.3" height="43.9"/>
	<path class="st4" d="M-311.4,575.3h-5.2v-35.1c0-1.4-1-2.5-2.2-2.5h-0.4c-1.2,0-2.2,1.1-2.2,2.5v36.6c-0.5,0.7-0.7,1.5-0.7,2.5V611
		c0,2.2,1.5,3.9,3.4,3.9h7.2c0.2,0,0.3,0,0.5,0v-39.6C-311,575.3-311.2,575.3-311.4,575.3z"/>
	<path class="st3" d="M-139.2,671.3V708c0,3.8-38.3,17.4-52.6,23.4l-64.9-0.6c-30.2-14-45.3-18.5-45.3-22.3v-37.1
		c0-1.1,0.2-2.1,0.7-3c1.1-2.3,3.5-3.9,6.2-3.9h149c2.8,0,5.2,1.7,6.3,4.1C-139.4,669.3-139.2,670.3-139.2,671.3z"/>
	<path class="st3" d="M-302,669.4c-0.4,0.9,0,1.8,0,2.8v34.6h-4c-1.6,0-3-1.2-3-2.8v-31.9c0-1.5,1.3-2.8,3-2.8H-302z"/>
	<path class="st3" d="M-313.5,675.3h4.5V703h-4.5c-3,0-5.4-2.3-5.4-5.1v-17.5C-318.8,677.6-316.4,675.3-313.5,675.3z"/>
	<path class="st3" d="M-128.5,573.4v44.5c0,2.1-1.9,3.7-4.2,3.7h-173.9c-2.3,0-4.2-1.7-4.2-3.7v-44.5c0-2.1,1.9-3.8,4.2-3.8h173.9
		C-130.4,569.6-128.5,571.3-128.5,573.4z"/>
	<path class="st3" d="M-129.6,672.1V701c0,1.4-1.3,2.5-3,2.5h-6.6V672c0-0.9,0.4-1.7,0-2.5h6.6
		C-130.9,669.5-129.6,670.7-129.6,672.1z"/>
	<path class="st3" d="M-119.7,679.4v13.8c0,2.2-2.4,4-5.4,4h-4.5v-21.9h4.5C-122.1,675.4-119.7,677.2-119.7,679.4z"/>
	<circle class="st17" cx="-223.9" cy="581.1" r="151.5"/>
	<path class="st3" d="M-148.8,591.7h-64.9c-0.9,0-1.6-0.7-1.6-1.6v-6.6c0-0.9,0.7-1.6,1.6-1.6h64.9c0.9,0,1.6,0.7,1.6,1.6v6.6
		C-147.2,591-147.9,591.7-148.8,591.7z"/>
	<path class="st3" d="M-226.7,591.7h-64.8c-0.9,0-1.6-0.7-1.6-1.6v-6.5c0-0.9,0.7-1.6,1.6-1.6h64.8c0.9,0,1.6,0.7,1.6,1.6v6.5
		C-225.1,591-225.8,591.7-226.7,591.7z"/>
	<line class="st7" x1="-314.8" y1="578.7" x2="-314.8" y2="611.8"/>
	<circle class="st7" cx="-203.6" cy="682" r="2"/>
	<circle class="st7" cx="-195.9" cy="682" r="2"/>
	<path class="st7" d="M-153.2,684H-188c-0.6,0-1.1-0.5-1.1-1.1v-1.9c0-0.6,0.5-1.1,1.1-1.1h34.7c0.6,0,1.1,0.5,1.1,1.1v1.9
		C-152.2,683.6-152.6,684-153.2,684z"/>
	<path class="st3" d="M-291,620.2v-14.1c0-1.8,1.6-3.2,3.5-3.2h134.8c1.9,0,3.5,1.5,3.5,3.2v14.1"/>
	<path class="st4" d="M-128,575.3v39.6c0.2,0,0.3,0,0.5,0h7.2c1.9,0,3.4-1.8,3.4-3.9v-31.8c0-0.9-0.3-1.8-0.7-2.5v-36.6
		c0-1.4-1-2.5-2.2-2.5h-0.4c-1.2,0-2.2,1.1-2.2,2.5v35.1h-5.2C-127.7,575.3-127.9,575.3-128,575.3z"/>
	<line class="st7" x1="-228.2" y1="626.9" x2="-228.2" y2="663"/>
	<line class="st7" x1="-124.1" y1="578.7" x2="-124.1" y2="611.8"/>
</g>
<g id="bot_08">
	<circle class="st15" cx="180.4" cy="581.1" r="152.4"/>
	<path class="st3" d="M275,599.6c0.1-2.9,0-6.3,0.1-9.6c0.1-2.5,0.2-5,0-7.5c-0.2-2.1,1.4-3.2,3.1-2.2c3.3,1.9,6,4.5,7.1,8.4
		c0.2,0.7,0.2,1.5,0.2,2.2c0,2.9-0.2,5.9,0,8.8c0.3,4.3-1.8,7.3-4.8,9.9c-0.8,0.7-1.6,1.3-2.6,1.8c-1.5,0.7-2.5,0.3-2.9-1.4
		c-0.2-0.7-0.3-1.4-0.3-2.1C275,605.4,275,602.7,275,599.6z"/>
	<path class="st1" d="M287.1,560"/>
	<path class="st1" d="M284.7,606.8"/>
	<rect x="171.8" y="623" class="st4" width="23.3" height="43.9"/>
	<path class="st3" d="M265.2,671.3V708c0,3.8-38.3,17.4-52.6,23.4l-64.9-0.6c-30.2-14-45.3-18.5-45.3-22.3v-37.1
		c0-1.1,0.2-2.1,0.7-3c1.1-2.3,3.5-3.9,6.2-3.9h149c2.8,0,5.2,1.7,6.3,4.1C264.9,669.3,265.2,670.3,265.2,671.3z"/>
	<path class="st4" d="M102.3,669.4c-0.4,0.9,0,1.8,0,2.8v34.6h-4c-1.6,0-3-1.2-3-2.8v-31.9c0-1.5,1.3-2.8,3-2.8H102.3z"/>
	<path class="st4" d="M90.9,675.3h4.5V703h-4.5c-3,0-5.4-2.3-5.4-5.1v-17.5C85.5,677.6,87.9,675.3,90.9,675.3z"/>
	<path class="st3" d="M275.8,573.4v44.5c0,2.1-1.9,3.7-4.2,3.7H97.7c-2.3,0-4.2-1.7-4.2-3.7v-44.5c0-2.1,1.9-3.8,4.2-3.8h173.9
		C273.9,569.6,275.8,571.3,275.8,573.4z"/>
	<path class="st5" d="M128.3,571.1v36c0,1,1.3,1.9,2.9,1.9h109.5c1.6,0,2.9-0.8,2.9-1.9v-36"/>
	<path class="st4" d="M274.7,672.1V701c0,1.4-1.3,2.5-3,2.5h-6.6V672c0-0.9,0.4-1.7,0-2.5h6.6C273.4,669.5,274.7,670.7,274.7,672.1z
		"/>
	<path class="st4" d="M284.6,679.4v13.8c0,2.2-2.4,4-5.4,4h-4.5v-21.9h4.5C282.2,675.4,284.6,677.2,284.6,679.4z"/>
	<circle class="st17" cx="180.4" cy="581.1" r="151.5"/>
	<path class="st3" d="M255.6,591.7h-64.9c-0.9,0-1.6-0.7-1.6-1.6v-6.6c0-0.9,0.7-1.6,1.6-1.6h64.9c0.9,0,1.6,0.7,1.6,1.6v6.6
		C257.2,591,256.5,591.7,255.6,591.7z"/>
	<path class="st3" d="M177.6,591.7h-64.8c-0.9,0-1.6-0.7-1.6-1.6v-6.5c0-0.9,0.7-1.6,1.6-1.6h64.8c0.9,0,1.6,0.7,1.6,1.6v6.5
		C179.2,591,178.5,591.7,177.6,591.7z"/>
	<circle class="st7" cx="200.7" cy="682" r="2"/>
	<circle class="st7" cx="208.4" cy="682" r="2"/>
	<path class="st7" d="M251.1,684h-34.7c-0.6,0-1.1-0.5-1.1-1.1v-1.9c0-0.6,0.5-1.1,1.1-1.1h34.7c0.6,0,1.1,0.5,1.1,1.1v1.9
		C252.2,683.6,251.7,684,251.1,684z"/>
	<path class="st21" d="M276.3,575.3v39.6c0.2,0,0.3,0,0.5,0h7.2c1.9,0,3.4-1.8,3.4-3.9v-31.8c0-0.9-0.3-1.8-0.7-2.5v-36.6
		c0-1.4-1-2.5-2.2-2.5h-0.4c-1.2,0-2.2,1.1-2.2,2.5v35.1h-5.2C276.6,575.3,276.5,575.3,276.3,575.3z"/>
	<line class="st7" x1="176.1" y1="626.9" x2="176.1" y2="663"/>
	<line class="st22" x1="280.3" y1="578.7" x2="280.3" y2="611.8"/>
	<path class="st21" d="M93.2,575.3h-5.2v-35.1c0-1.4-1-2.5-2.2-2.5h-0.4c-1.2,0-2.2,1.1-2.2,2.5v36.6c-0.5,0.7-0.7,1.5-0.7,2.5V611
		c0,2.2,1.5,3.9,3.4,3.9h7.2c0.2,0,0.3,0,0.5,0v-39.6C93.5,575.3,93.3,575.3,93.2,575.3z"/>
	<line class="st22" x1="89.7" y1="578.7" x2="89.7" y2="611.8"/>
	<line class="st7" x1="114.6" y1="678.2" x2="114.6" y2="713.2"/>
</g>
<g id="bot_09">
	<circle class="st15" cx="586.7" cy="581.1" r="151.5"/>
	<path class="st1" d="M692.4,552.1"/>
	<path class="st1" d="M690,604.9"/>
	<rect x="573.2" y="621.6" class="st12" width="31" height="43.9"/>
	<path class="st12" d="M670.5,671.3V708c0,3.8-38.3,17.4-52.6,23.4l-64.9-0.6c-30.2-14-45.3-18.5-45.3-22.3v-37.1
		c0-1.1,0.2-2.1,0.7-3c1.1-2.3,3.5-3.9,6.2-3.9h149c2.8,0,5.2,1.7,6.3,4.1C670.3,669.3,670.5,670.3,670.5,671.3z"/>
	<path class="st12" d="M507.7,669.5c-0.4,0.9,0,1.8,0,2.8v34.6h-4c-1.6,0-3-1.2-3-2.8v-31.9c0-1.5,1.3-2.8,3-2.8H507.7z"/>
	<path class="st12" d="M496.2,675.3h4.5V703h-4.5c-3,0-5.4-2.3-5.4-5.1v-17.5C490.8,677.6,493.2,675.3,496.2,675.3z"/>
	<path class="st3" d="M681.2,567.2v50.2c0,2.3-1.9,4.2-4.2,4.2H503c-2.3,0-4.2-1.9-4.2-4.2v-50.2c0-2.3,1.9-4.2,4.2-4.2h173.9
		C679.3,563,681.2,564.9,681.2,567.2z"/>
	<path class="st12" d="M680.1,672.1V701c0,1.4-1.3,2.5-3,2.5h-6.6V672c0-0.9,0.4-1.7,0-2.5h6.6C678.8,669.6,680.1,670.7,680.1,672.1
		z"/>
	<path class="st12" d="M690,679.1v12.7c0,2.1-2.4,3.7-5.4,3.7h-4.5v-20.2h4.5C687.6,675.4,690,677.1,690,679.1z"/>
	<circle class="st17" cx="585.8" cy="581.1" r="151.5"/>
	<path class="st3" d="M657.7,607.9H522.2c-9.8,0-17.8-8-17.8-17.8v0c0-9.8,8-17.8,17.8-17.8h135.5c9.8,0,17.8,8,17.8,17.8v0
		C675.5,599.9,667.6,607.9,657.7,607.9z"/>
	<circle class="st7" cx="602.9" cy="680.3" r="2"/>
	<circle class="st7" cx="610.6" cy="680.3" r="2"/>
	<path class="st7" d="M653.3,682.3h-34.7c-0.6,0-1.1-0.5-1.1-1.1v-1.9c0-0.6,0.5-1.1,1.1-1.1h34.7c0.6,0,1.1,0.5,1.1,1.1v1.9
		C654.4,681.9,653.9,682.3,653.3,682.3z"/>
	<line class="st7" x1="516.8" y1="676.5" x2="516.8" y2="711.5"/>
	<g>
		<path class="st4" d="M497.8,570.8v36.3h-7c-2.9,0-5.2-2.5-5.2-5.6v-25.1c0-1.8,0.8-3.4,2-4.4v-56.1c0.8,0.5,1.8,0.8,2.8,0.8
			c1,0,2-0.3,2.8-0.8v55H497.8z"/>
		<path class="st4" d="M496.1,511c0,2.2-1.2,4.2-2.9,5.2c-0.8,0.5-1.8,0.8-2.8,0.8s-2-0.3-2.8-0.8c-1.7-1-2.9-3-2.9-5.2
			c0-3.3,2.5-6,5.7-6C493.6,505,496.1,507.7,496.1,511z"/>
	</g>
	<path class="st4" d="M681.2,570.8v36.3h7c2.9,0,5.2-2.5,5.2-5.6v-25.1c0-1.8-0.8-3.4-2-4.4v-56.1c-0.8,0.5-1.8,0.8-2.8,0.8
		c-1,0-2-0.3-2.8-0.8v55H681.2z"/>
	<path class="st4" d="M682.8,511c0,2.2,1.2,4.2,2.9,5.2c0.8,0.5,1.8,0.8,2.8,0.8s2-0.3,2.8-0.8c1.7-1,2.9-3,2.9-5.2
		c0-3.3-2.5-6-5.7-6S682.8,507.7,682.8,511z"/>
</g>
</svg>
